<?xml version="1.0" encoding="utf-8"?>
<!-- Generator: Adobe Illustrator 21.0.2, SVG Export Plug-In . SVG Version: 6.00 Build 0)  -->
<svg version="1.1" id="Layer_1" xmlns="http://www.w3.org/2000/svg" xmlns:xlink="http://www.w3.org/1999/xlink" x="0px" y="0px"
	 viewBox="0 0 1211 543" style="enable-background:new 0 0 1211 543;" xml:space="preserve">
<style type="text/css">
	.st0{fill:#FFFFFF;}
	.st1{fill:url(#SVGID_1_);}
	.st2{fill:url(#SVGID_2_);}
	.st3{fill:#9C9C9C;}
	.st4{fill:#6D6E71;}
	.st5{fill:#2D2D2D;}
	.st6{fill:#005767;}
	.st7{fill:#5C6568;}
	.st8{fill:#2D1E56;}
	.st9{fill:none;stroke:#FFFFFF;stroke-width:4;stroke-miterlimit:10;}
	.st10{fill:none;stroke:#FFFFFF;stroke-width:4;stroke-miterlimit:10;stroke-dasharray:19.091,19.091;}
	.st11{opacity:0.4;}
	.st12{fill:url(#SVGID_3_);}
	.st13{opacity:0.3;}
	.st14{fill:url(#SVGID_4_);}
	.st15{fill:url(#SVGID_5_);}
	.st16{opacity:0.31;}
	.st17{opacity:0.3;fill:url(#SVGID_6_);enable-background:new    ;}
	.st18{opacity:0.3;fill:url(#SVGID_7_);enable-background:new    ;}
	.st19{opacity:0.3;fill:url(#SVGID_8_);enable-background:new    ;}
	.st20{opacity:0.3;fill:url(#SVGID_9_);enable-background:new    ;}
	.st21{opacity:0.3;fill:url(#SVGID_10_);enable-background:new    ;}
	.st22{fill:url(#SVGID_11_);}
	.st23{fill:url(#SVGID_12_);}
	.st24{fill:url(#SVGID_13_);}
	.st25{opacity:0.75;}
	.st26{fill:url(#SVGID_14_);}
	.st27{fill:url(#SVGID_15_);}
	.st28{fill:url(#SVGID_16_);}
	.st29{fill:url(#SVGID_17_);}
	.st30{opacity:0.3;fill:url(#SVGID_18_);enable-background:new    ;}
	.st31{fill:url(#SVGID_19_);}
	.st32{fill:url(#SVGID_20_);}
	.st33{opacity:0.3;fill:url(#SVGID_21_);enable-background:new    ;}
	.st34{opacity:0.3;fill:url(#SVGID_22_);enable-background:new    ;}
	.st35{fill:url(#SVGID_23_);}
	.st36{fill:#186E85;}
	.st37{fill:#0C5066;}
	.st38{fill:#42ACC5;}
	.st39{fill:#E6D8CC;}
	.st40{fill:#EEE2D4;}
	.st41{fill:#AEAEA5;}
	.st42{fill:#004754;}
	.st43{fill:#2A8DA5;}
	.st44{fill:#006C80;}
	.st45{fill:#70B5C4;}
	.st46{fill:#004369;}
	.st47{fill:#085580;}
	.st48{fill:#00B2D2;}
	.st49{fill:#0095B1;}
	.st50{fill:#FFE9D7;}
	.st51{fill:#D5B39F;}
	.st52{fill:#F1D7C5;}
	.st53{fill:#4472AC;}
	.st54{fill:#6486C1;}
	.st55{fill:#1E244C;}
	.st56{fill:#494C7F;}
	.st57{fill:#313664;}
	.st58{fill:#313768;}
	.st59{fill:#24A6C0;}
	.st60{fill:#0087A7;}
	.st61{fill:#E9D7C1;}
	.st62{fill:#DEC9B1;}
	.st63{fill:#E5DCCB;}
	.st64{fill:#D7C19C;}
	.st65{fill:#2A3161;}
	.st66{fill:url(#SVGID_24_);}
	.st67{fill:#E2E2E2;}
	.st68{opacity:0.5;fill:#876500;enable-background:new    ;}
	.st69{fill:#414042;}
	.st70{fill:#FFD200;}
	.st71{fill:#FDBB30;}
	.st72{fill:#820024;}
	.st73{fill:#ED1849;}
	.st74{fill:#2E6A75;}
	.st75{fill:none;stroke:#000000;stroke-width:0.9429;stroke-miterlimit:10;}
	.st76{fill:#F6A01A;}
	.st77{fill:#B2740E;}
	.st78{fill:#663700;}
	.st79{fill:#5698A5;}
	.st80{opacity:0.5;fill:#D11242;enable-background:new    ;}
	.st81{fill:#E58E1A;}
	.st82{opacity:0.3;fill:#E58E1A;enable-background:new    ;}
	.st83{fill:#CDCFD0;}
	.st84{fill:#D11242;}
	.st85{fill:#E2E3E4;}
	.st86{fill:#A55615;}
	.st87{fill:url(#SVGID_25_);}
	.st88{fill:url(#SVGID_26_);}
	.st89{fill:url(#SVGID_27_);}
	.st90{fill:#606060;}
	.st91{font-family:'PlayfairDisplay-Regular';}
	.st92{font-size:49.8777px;}
	.st93{fill:none;}
	.st94{fill:#A8A8A8;}
	.st95{font-family:'Gotham-Light';}
	.st96{font-size:15.7223px;}
</style>
<path class="st0" d="M1194.6,542.3H16.4c-6.3,0-11.4-5.1-11.4-11.4V59.4C5,53.1,10.1,48,16.4,48h1178.1c6.3,0,11.4,5.1,11.4,11.4
	v471.4C1206,537.2,1200.9,542.3,1194.6,542.3z"/>
<linearGradient id="SVGID_1_" gradientUnits="userSpaceOnUse" x1="321" y1="240.13" x2="1212.0001" y2="240.13" gradientTransform="matrix(1 0 0 -1 0 542.63)">
	<stop  offset="0.1417" style="stop-color:#42287C"/>
	<stop  offset="1" style="stop-color:#714091"/>
</linearGradient>
<path class="st1" d="M1189,546H827.4c-168.8-25.4-337.6-50.9-506.4-76.3c135.8-132.5,373.2-320.4,708.2-387.6
	c64-12.8,125.2-20,182.8-23.1v464C1212,535.7,1201.7,546,1189,546z"/>
<linearGradient id="SVGID_2_" gradientUnits="userSpaceOnUse" x1="177" y1="239.4741" x2="1199.4113" y2="239.4741" gradientTransform="matrix(1 0 0 -1 0 542.63)">
	<stop  offset="0.1417" style="stop-color:#42287C"/>
	<stop  offset="1" style="stop-color:#714091"/>
</linearGradient>
<path class="st2" d="M804.4,126.4c-75,25.7-146.2,50.8-224.8,108C503.9,289.6,514,307,437.7,355.2C359,405,310.2,410.4,242.9,471.1
	c-31.8,28.7-53.2,56.7-65.9,74.9h1000.3c19.2,0,20.7,0.8,20.7-10.8c0.2-60.5,0.3-106.1,0.5-144.8c0-0.8,0.1-17.2,0.2-50.1
	c0-8.7,0.2-35.3,0.2-43.9c0.2-31.3,0.3-62.7,0.5-94c0.2-48.3-2.3-93.8-2.1-142.1C1014.6,62.3,891.4,96.6,804.4,126.4z"/>
<path class="st3" d="M1171.4,317.2L1171.4,317.2c-0.1-0.1-0.1-0.2-0.2-0.3l0,0l0,0c-0.1-0.1-0.2-0.1-0.3-0.2l0,0
	c-0.1,0-0.2-0.1-0.3-0.1l0,0l0,0h-22.9c-0.5,0-1,0.4-1,0.9v147.8c0,0.1,0,0.2,0.1,0.3l0,0c0,0.1,0.1,0.2,0.2,0.3l0,0l0,0
	c0,0,0.1,0,0.1,0.1c0,0,0,0,0.1,0l0.1,0.1l0,0c0.1,0,0.1,0,0.2,0.1c0.1,0,0.1,0,0.2,0h22.9c0.5,0,1-0.4,1-0.9V317.5
	C1171.5,317.4,1171.4,317.3,1171.4,317.2z M1169.5,427.3h-19.3l19.3-15.5V427.3z M1148.6,355.5h19.3l-19.3,15.5V355.5z
	 M1148.6,373.9h19.3l-19.3,15.5V373.9z M1148.6,392.3h19.3l-19.3,15.5V392.3z M1148.6,410.6h19.3l-19.3,15.5V410.6z M1148.6,429
	h19.3l-19.3,15.5V429z M1169.5,408.9h-19.3l19.3-15.5V408.9z M1169.5,390.5h-19.3l19.3-15.5V390.5z M1169.5,372.2h-19.3l19.3-15.5
	V372.2z M1169.5,353.8h-19.3l19.3-15.5V353.8z M1169.5,335.4h-19.4l19.4-15.9V335.4z M1167.9,337.2l-19.3,15.5v-15.5H1167.9z
	 M1148.6,447.3h19.4l-19.4,15.9V447.3z M1150.1,445.6l19.3-15.5v15.5H1150.1z M1168,318.4l-19.4,15.9v-15.9H1168z M1150.1,464.4
	l19.4-15.9v15.9H1150.1z"/>
<path class="st3" d="M1148.8,299.8l-13.4-14.5l0,0l0,0c-0.1-0.1-0.1-0.1-0.2-0.1l0,0c-0.1,0-0.2-0.1-0.3-0.1h-121l0,0h-0.1
	c-0.1,0-0.1,0-0.2,0l0,0l0,0c-0.1,0-0.1,0-0.1,0.1l0,0c-0.1,0-0.1,0.1-0.1,0.1l-11.9,14.6c-0.2,0.2-0.2,0.5-0.1,0.7
	c0.1,0.2,0.4,0.4,0.7,0.4h42.4l0,0h60.1l0,0h15l0,0l0,0h28.8l0,0c0.5,0,0.8-0.3,0.8-0.7C1149,300.2,1148.9,300,1148.8,299.8z
	 M1058.4,298.5l-12.4-12h12.3L1058.4,298.5z M1014.6,287.6l12.7,12h-12.7L1014.6,287.6L1014.6,287.6z M1015.6,286.5h12.7v12
	L1015.6,286.5z M1030,287.6l12.4,12H1030V287.6z M1031,286.5h12.4v12L1031,286.5z M1045,287.6l12.4,12H1045V287.6z M1060.1,287.6
	l12.3,12h-12.3V287.6z M1061.1,286.5h12.4v12L1061.1,286.5z M1075.1,287.6l12.4,12h-12.4V287.6z M1076.1,286.5h12.4v12L1076.1,286.5
	z M1090.1,287.6l12.3,12h-12.3V287.6z M1091.1,286.5h12.3v12L1091.1,286.5z M1105.1,287.6l12.3,12h-12.3V287.6z M1106.2,286.5h12.4
	v12L1106.2,286.5z M1120.2,287.6l12.7,12h-12.7V287.6z M1121.2,286.5h12.7v12L1121.2,286.5z M1012.9,288v11.6h-9.5L1012.9,288z
	 M1135.6,299.6v-11.8l10.9,11.8H1135.6z"/>
<path class="st3" d="M1171.3,288.5h-15.9l15.9-38.1V288.5z M1157.7,287.2h12v-28.8L1157.7,287.2z"/>
<path class="st3" d="M1199.4,293.3c-0.1,0-0.3-0.1-0.4-0.2l-29.7-38.9l-75.2,31.4c-0.3,0.1-0.6-0.1-0.7-0.5s0.1-0.8,0.4-0.9
	l75.5-31.5c0.2-0.1,0.4,0,0.6,0.2l30,39.2c0.2,0.3,0.2,0.7,0,1C1199.7,293.2,1199.6,293.3,1199.4,293.3z"/>
<path class="st4" d="M1085.2,349.8c-0.1,0-0.2,0-0.3-0.1l-32.2-13.1l-30.2,13.1c-0.4,0.2-0.8,0-1-0.3s0-0.7,0.3-0.8l30.8-13.4
	l32.8,13.4c0.4,0.1,0.5,0.5,0.3,0.8C1085.8,349.7,1085.5,349.8,1085.2,349.8z"/>
<polygon class="st4" points="1053.6,340.1 1043,301.2 1044.9,300.8 1053.6,332.7 1062.6,300.8 1064.5,301.2 "/>
<ellipse class="st5" cx="1169.3" cy="252.7" rx="6.4" ry="5.6"/>
<polygon class="st4" points="1065.3,303.1 1041.9,303.1 1041,300.4 1066.2,300.4 "/>
<rect x="1142.9" y="464.5" class="st3" width="32.1" height="6.6"/>
<rect x="1135.7" y="470.8" class="st4" width="46.4" height="6.6"/>
<polygon class="st5" points="1195.8,495 1122.1,495 1125.4,477.4 1192.5,477.4 "/>
<rect x="1174" y="295.3" class="st4" width="27" height="8.2"/>
<rect x="1174" y="297.4" class="st4" width="27" height="4.1"/>
<ellipse class="st4" cx="1053.7" cy="336.6" rx="4.5" ry="4"/>
<rect x="1019.6" y="348.6" class="st3" width="69.5" height="3.2"/>
<polygon class="st4" points="1175,318.8 1140.7,318.8 1140.7,304.3 1154.8,287.8 1175,287.8 "/>
<rect x="1162.2" y="290.8" class="st6" width="9.8" height="12"/>
<polygon class="st6" points="1159.2,302.8 1146.5,302.8 1156.1,290.8 1159.2,290.8 "/>
<rect x="1167.6" y="305.1" class="st4" width="4.2" height="1.2"/>
<polygon class="st6" points="1172,290.8 1172,302.8 1167,302.8 "/>
<path class="st7" d="M1212,524.9c-339.3-0.6-678.7-1.3-1018-1.9c5.1-7,11-14.4,18-22c9-9.8,18-18,26.2-24.7
	c326.6,0.1,647.2,0.2,973.8,0.2V524.9z"/>
<path class="st8" d="M428.9,468.6c-3.8,2.7-9.5,1.9-13.7-0.4c-4.1-2.2-6.8-6.9-6.6-11.6c0.1-3.2,1.5-6.5,0.7-9.6
	c-1-3.7-4.7-6.1-6-9.8c-1.2-3.4,0-7.1,0.1-10.7c0.1-2.7-0.5-5.5-0.8-8.2s-0.3-5.6,1-8.1s4-4.3,6.7-3.8c2.3,0.4,4,2.4,5.2,4.4
	s2,4.3,3.5,6.1c2.3,2.7,5.9,3.9,9.1,5.4s6.6,3.7,7.3,7.2c0.8,3.6-1.4,7.6,0.1,11.1c0.9,2.1,3,3.5,4.6,5.2c3.8,4,4.8,10.4,2.4,15.4
	C440.1,466.1,434.4,469.2,428.9,468.6"/>
<g>
	<path class="st8" d="M434.9,468.7c0,0-0.2-0.1-0.4-0.4c-0.3-0.3-0.6-0.8-1.1-1.4c-0.9-1.2-2.1-3-3.3-5.4c-1.3-2.4-2.6-5.3-4-8.6
		c-1.4-3.3-3-6.8-4.6-10.6c-3.3-7.5-6.2-14.3-8.3-19.3c-1-2.5-1.9-4.5-2.5-5.9c-0.3-0.7-0.5-1.2-0.6-1.6s-0.2-0.6-0.2-0.6
		s0.1,0.2,0.3,0.5c0.2,0.4,0.4,0.9,0.7,1.6c0.6,1.4,1.5,3.4,2.6,5.8c2.2,4.9,5.2,11.7,8.5,19.2c1.6,3.8,3.2,7.3,4.6,10.6
		c1.4,3.3,2.7,6.2,3.9,8.6c1.2,2.4,2.3,4.2,3.2,5.5c0.4,0.6,0.8,1.1,1,1.4C434.8,468.5,434.9,468.6,434.9,468.7z"/>
</g>
<g>
	<path class="st8" d="M426.7,427c0.1,0.1-0.6,0.7-1.4,1.7c-0.4,0.5-0.9,1.2-1.4,2s-0.9,1.7-1.3,2.6c-0.4,1-0.7,1.9-0.9,2.8
		c-0.2,0.9-0.3,1.7-0.4,2.4c-0.1,1.4-0.1,2.2-0.2,2.2s-0.2-0.9-0.2-2.3c0-0.7,0.1-1.5,0.3-2.5c0.2-0.9,0.5-1.9,0.9-2.9
		s0.9-1.9,1.4-2.7c0.5-0.8,1-1.4,1.5-2C426,427.5,426.7,427,426.7,427z"/>
</g>
<g>
	<path class="st8" d="M434.2,443.6c0.1,0.1-0.5,0.7-1.3,1.7c-0.4,0.5-0.8,1.2-1.3,2c-0.4,0.8-0.9,1.6-1.2,2.6
		c-0.4,0.9-0.6,1.9-0.8,2.7c-0.2,0.9-0.3,1.6-0.4,2.3c-0.1,1.3-0.1,2.2-0.2,2.2s-0.2-0.8-0.1-2.2c0-0.7,0.1-1.5,0.3-2.4
		c0.2-0.9,0.4-1.8,0.8-2.8s0.8-1.9,1.3-2.6c0.5-0.8,1-1.4,1.4-1.9C433.5,444.1,434.2,443.6,434.2,443.6z"/>
</g>
<g>
	<path class="st8" d="M423.5,446.4c-0.1,0.1-0.8-0.6-2-1.6s-3-2.3-5.1-3.5c-1-0.6-2.1-1.1-3-1.5c-1-0.4-1.9-0.7-2.6-0.9
		c-1.5-0.4-2.5-0.5-2.5-0.6s1-0.1,2.6,0.2c0.8,0.1,1.7,0.4,2.7,0.8s2.1,0.9,3.1,1.4c2.1,1.2,3.9,2.6,5.1,3.6
		C422.9,445.7,423.6,446.4,423.5,446.4z"/>
</g>
<g>
	<path class="st8" d="M430.4,461.4c-0.1,0-0.6-0.7-1.6-1.7c-0.5-0.5-1.1-1.1-1.8-1.7c-0.7-0.6-1.6-1.2-2.5-1.7s-1.9-1-2.7-1.3
		c-0.9-0.3-1.7-0.6-2.4-0.8c-1.4-0.4-2.2-0.5-2.2-0.6s0.9-0.1,2.3,0.2c0.7,0.1,1.5,0.4,2.4,0.7c0.9,0.3,1.9,0.8,2.8,1.3
		c1,0.6,1.8,1.2,2.5,1.8c0.7,0.6,1.3,1.2,1.8,1.8C430,460.6,430.5,461.4,430.4,461.4z"/>
</g>
<g>
	<g>
		<line class="st9" x1="218" y1="498.4" x2="227.5" y2="498.4"/>
		<line class="st10" x1="246.6" y1="498.4" x2="1191.6" y2="498.4"/>
		<line class="st9" x1="1201.1" y1="498.4" x2="1210.6" y2="498.4"/>
	</g>
</g>
<g class="st11">
	
		<linearGradient id="SVGID_3_" gradientUnits="userSpaceOnUse" x1="886.3979" y1="298.7531" x2="885.9532" y2="323.4286" gradientTransform="matrix(1 0 0 -1 0 542.63)">
		<stop  offset="0" style="stop-color:#FFFFFF;stop-opacity:0"/>
		<stop  offset="1" style="stop-color:#FFFFFF"/>
	</linearGradient>
	<path class="st12" d="M879.1,226.5c4.9,0.1,9.8,0.7,14.7,0.4c2.5-0.2,5.3-0.6,7.1-2.8c1.7-2.1,2.2-5.6,1-8.2
		c-1.2-2.6-3.8-4-6.2-3.3c-2.5,0.7-4.8,3.6-7.3,2.6c-1.7-0.7-3-3.1-4.8-3c-1.9,0.2-2.8,3-4.4,4.2c-1.4,1-3.1,0.7-4.8,0.5
		c-1.6-0.2-3.5,0-4.5,1.5c-1.1,1.8-0.4,4.6,1.2,5.9C871.1,224.4,874.2,226.5,879.1,226.5z"/>
</g>
<g class="st13">
	
		<linearGradient id="SVGID_4_" gradientUnits="userSpaceOnUse" x1="998.731" y1="351.3807" x2="1000.5025" y2="377.9551" gradientTransform="matrix(1 0 0 -1 0 542.63)">
		<stop  offset="0" style="stop-color:#FFFFFF;stop-opacity:0"/>
		<stop  offset="0.9986" style="stop-color:#FFFFFF"/>
	</linearGradient>
	<path class="st14" d="M990.9,181.8c6.3,0.1,12.6,0.7,18.9,0.4c3.3-0.2,6.8-0.6,9.1-2.9c2.2-2.2,2.8-5.9,1.3-8.6
		c-1.5-2.7-4.9-4.2-8-3.5c-3.2,0.8-6.2,3.8-9.3,2.8c-2.2-0.7-3.8-3.3-6.2-3.1s-3.5,3.2-5.6,4.4c-1.8,1.1-4,0.7-6.1,0.5
		s-4.5,0-5.7,1.6c-1.4,1.9-0.5,4.8,1.5,6.2C980.7,179.6,984.6,181.7,990.9,181.8z"/>
</g>
<g class="st13">
	
		<linearGradient id="SVGID_5_" gradientUnits="userSpaceOnUse" x1="648.9843" y1="276.0717" x2="650.1325" y2="339.8003" gradientTransform="matrix(1 0 0 -1 0 542.63)">
		<stop  offset="0" style="stop-color:#FFFFFF;stop-opacity:0"/>
		<stop  offset="0.9986" style="stop-color:#FFFFFF"/>
	</linearGradient>
	<path class="st15" d="M632.8,241.9c12,0.2,23.9,1.4,35.9,0.7c6.2-0.4,12.9-1.2,17.3-5.5c4.2-4.1,5.2-11.2,2.4-16.4
		c-2.9-5.2-9.4-8.1-15.1-6.7c-6.1,1.5-11.7,7.1-17.7,5.2c-4.2-1.3-7.3-6.2-11.7-5.9c-4.6,0.4-6.7,6-10.7,8.4c-3.4,2-7.7,1.3-11.6,1
		c-3.9-0.4-8.5-0.1-10.9,3.1c-2.8,3.6-0.9,9.2,2.8,11.8C613.3,237.7,620.8,241.8,632.8,241.9z"/>
</g>
<g class="st16">
	<g>
		<g>
			<path class="st0" d="M876,154.2c0.3,0.2-0.7,2.2-1.9,5.4c-0.7,1.6-1.3,3.6-2,5.8c-0.6,2.2-1.1,4.7-1.5,7.3
				c-0.3,2.6-0.5,5.1-0.5,7.4c0,2.3,0.2,4.3,0.4,6.1c0.4,3.5,0.8,5.6,0.4,5.7c-0.3,0.1-1.4-1.9-2.2-5.4c-0.4-1.8-0.8-3.9-0.9-6.3
				c-0.1-2.4-0.1-5.1,0.3-7.8c0.4-2.8,1-5.3,1.8-7.6s1.7-4.3,2.6-5.8C874.2,155.7,875.8,154.1,876,154.2z"/>
		</g>
	</g>
</g>
<linearGradient id="SVGID_6_" gradientUnits="userSpaceOnUse" x1="766.0251" y1="408.2006" x2="754.0177" y2="428.9133" gradientTransform="matrix(1 0 0 -1 0 542.63)">
	<stop  offset="0" style="stop-color:#FFFFFF;stop-opacity:0"/>
	<stop  offset="0.9986" style="stop-color:#FFFFFF"/>
</linearGradient>
<polygon class="st17" points="755,117.8 757.4,112.5 760.6,117.5 766,120 761,123.1 758.5,128.5 755.3,123.5 749.9,121 "/>
<linearGradient id="SVGID_7_" gradientUnits="userSpaceOnUse" x1="966.0103" y1="306.876" x2="954.0033" y2="327.5881" gradientTransform="matrix(1 0 0 -1 0 542.63)">
	<stop  offset="0" style="stop-color:#FFFFFF;stop-opacity:0"/>
	<stop  offset="0.9986" style="stop-color:#FFFFFF"/>
</linearGradient>
<polygon class="st18" points="954.9,219.2 957.4,213.8 960.6,218.8 966,221.3 961,224.5 958.5,229.9 955.3,224.9 949.9,222.4 "/>
<linearGradient id="SVGID_8_" gradientUnits="userSpaceOnUse" x1="914.6904" y1="409.5554" x2="902.6826" y2="430.2689" gradientTransform="matrix(1 0 0 -1 0 542.63)">
	<stop  offset="0" style="stop-color:#FFFFFF;stop-opacity:0"/>
	<stop  offset="0.9986" style="stop-color:#FFFFFF"/>
</linearGradient>
<polygon class="st19" points="902.9,116.9 905.4,111.5 908.6,116.5 915.8,119 910.8,122.2 906.5,127.6 903.3,122.6 897.9,120.1 "/>
<linearGradient id="SVGID_9_" gradientUnits="userSpaceOnUse" x1="726.8066" y1="333.3111" x2="719.7987" y2="345.3998" gradientTransform="matrix(1 0 0 -1 0 542.63)">
	<stop  offset="0" style="stop-color:#FFFFFF;stop-opacity:0"/>
	<stop  offset="0.9986" style="stop-color:#FFFFFF"/>
</linearGradient>
<polygon class="st20" points="720.3,199.6 721.8,196.5 723.7,199.4 726.8,200.9 723.9,202.7 722.4,205.9 720.6,203 717.4,201.5 "/>
<polygon class="st8" points="1064.9,203.6 1066.4,200.4 1068.3,203.3 1071.4,204.8 1068.5,206.7 1067,209.8 1067,206.9 1062,205.4 
	"/>
<linearGradient id="SVGID_10_" gradientUnits="userSpaceOnUse" x1="1038.448" y1="76.4798" x2="1028.6711" y2="93.345" gradientTransform="matrix(0.9893 0.1458 0.1458 -0.9893 -5.2435 77.366)">
	<stop  offset="0" style="stop-color:#FFFFFF;stop-opacity:0"/>
	<stop  offset="0.9986" style="stop-color:#FFFFFF"/>
</linearGradient>
<polygon class="st21" points="1025.6,138.7 1028.3,134.7 1031.7,139.1 1035.8,141.7 1029.9,143.7 1027.2,147.7 1025.3,143.3 
	1021.2,140.7 "/>
<polygon class="st8" points="1158.3,111.5 1160.3,110.4 1160.2,112.7 1161.3,114.8 1160.8,114.6 1156.9,115.7 1157.1,113.4 
	1156,111.4 "/>
<linearGradient id="SVGID_11_" gradientUnits="userSpaceOnUse" x1="1101.6112" y1="-1038.4333" x2="1096.8914" y2="-1030.2917" gradientTransform="matrix(0.8001 0.5998 0.5998 -0.8001 443.1623 -1319.7922)">
	<stop  offset="0.1417" style="stop-color:#42287C"/>
	<stop  offset="1" style="stop-color:#714091"/>
</linearGradient>
<polygon class="st22" points="702.2,164 704.2,162.9 704,165.2 705.1,167.3 702.8,167.1 700.8,168.2 700.9,165.9 699.8,163.8 "/>
<linearGradient id="SVGID_12_" gradientUnits="userSpaceOnUse" x1="1295.8531" y1="-804.962" x2="1291.1339" y2="-796.8211" gradientTransform="matrix(0.8001 0.5998 0.5998 -0.8001 443.1623 -1319.7922)">
	<stop  offset="0.1417" style="stop-color:#42287C"/>
	<stop  offset="1" style="stop-color:#714091"/>
</linearGradient>
<polygon class="st23" points="997.6,93.7 999.6,92.6 999.5,94.9 1000.6,97 998.2,96.8 996.2,97.9 996.4,95.6 995.2,93.5 "/>
<linearGradient id="SVGID_13_" gradientUnits="userSpaceOnUse" x1="1301.2788" y1="-892.6437" x2="1296.559" y2="-884.502" gradientTransform="matrix(0.8001 0.5998 0.5998 -0.8001 443.1618 -1319.7917)">
	<stop  offset="0.1417" style="stop-color:#42287C"/>
	<stop  offset="1" style="stop-color:#714091"/>
</linearGradient>
<polygon class="st24" points="949.3,167.1 951.4,166 951.2,168.3 952.3,170.4 950,170.2 947.9,171.3 948.1,169 947,166.9 "/>
<g class="st25">
	
		<linearGradient id="SVGID_14_" gradientUnits="userSpaceOnUse" x1="1117.7274" y1="309.2123" x2="1117.0868" y2="344.7708" gradientTransform="matrix(1 0 0 -1 0 542.63)">
		<stop  offset="0" style="stop-color:#FFFFFF;stop-opacity:0"/>
		<stop  offset="1" style="stop-color:#FFFFFF"/>
	</linearGradient>
	<path class="st26" d="M1107.1,208.4c7.1,0.1,14.1,1,21.2,0.5c3.7-0.3,7.6-0.9,10.2-4c2.5-3,3.1-8.1,1.4-11.8s-5.5-5.8-8.9-4.8
		c-3.6,1.1-6.9,5.1-10.5,3.8c-2.5-1-4.3-4.5-6.9-4.3c-2.7,0.3-4,4.4-6.3,6.1c-2,1.4-4.5,1-6.8,0.7s-5,0-6.4,2.2
		c-1.6,2.6-0.5,6.6,1.7,8.6C1095.6,205.4,1100,208.3,1107.1,208.4z"/>
</g>
<g class="st13">
	
		<linearGradient id="SVGID_15_" gradientUnits="userSpaceOnUse" x1="1175.5219" y1="380.1327" x2="1177.028" y2="402.7237" gradientTransform="matrix(1 0 0 -1 0 542.63)">
		<stop  offset="0" style="stop-color:#FFFFFF;stop-opacity:0"/>
		<stop  offset="0.9986" style="stop-color:#FFFFFF"/>
	</linearGradient>
	<path class="st27" d="M1169,154.5c5.4,0.1,10.7,0.6,16,0.3c2.8-0.2,5.8-0.5,7.7-2.5c1.9-1.9,2.3-5,1.1-7.3c-1.3-2.3-4.2-3.6-6.8-3
		c-2.7,0.7-5.2,3.2-7.9,2.3c-1.9-0.6-3.3-2.8-5.2-2.6c-2.1,0.2-3,2.7-4.8,3.8c-1.5,0.9-3.4,0.6-5.2,0.4c-1.8-0.2-3.8,0-4.9,1.4
		c-1.2,1.6-0.4,4.1,1.3,5.3C1160.3,152.6,1163.7,154.4,1169,154.5z"/>
</g>
<g class="st13">
	
		<linearGradient id="SVGID_16_" gradientUnits="userSpaceOnUse" x1="1084.8351" y1="409.4646" x2="1085.5565" y2="449.5061" gradientTransform="matrix(1 0 0 -1 0 542.63)">
		<stop  offset="0" style="stop-color:#FFFFFF;stop-opacity:0"/>
		<stop  offset="0.9986" style="stop-color:#FFFFFF"/>
	</linearGradient>
	<path class="st28" d="M1074.7,117.7c7.5,0.1,15,0.9,22.5,0.5c3.9-0.2,8.1-0.7,10.9-3.5c2.7-2.6,3.3-7,1.5-10.3s-5.9-5.1-9.5-4.2
		c-3.9,0.9-7.4,4.5-11.2,3.3c-2.7-0.8-4.6-3.9-7.4-3.7c-2.9,0.2-4.2,3.8-6.7,5.3c-2.1,1.3-4.8,0.8-7.3,0.6c-2.5-0.2-5.3,0-6.8,1.9
		c-1.7,2.3-0.5,5.8,1.8,7.4C1062.5,115,1067.2,117.6,1074.7,117.7z"/>
</g>
<g class="st13">
	
		<linearGradient id="SVGID_17_" gradientUnits="userSpaceOnUse" x1="809.8351" y1="351.4646" x2="810.5565" y2="391.5061" gradientTransform="matrix(1 0 0 -1 0 542.63)">
		<stop  offset="0" style="stop-color:#FFFFFF;stop-opacity:0"/>
		<stop  offset="0.9986" style="stop-color:#FFFFFF"/>
	</linearGradient>
	<path class="st29" d="M799.7,175.7c7.5,0.1,15,0.9,22.5,0.5c3.9-0.2,8.1-0.7,10.9-3.5c2.7-2.6,3.3-7,1.5-10.3s-5.9-5.1-9.5-4.2
		c-3.9,0.9-7.4,4.5-11.2,3.3c-2.7-0.8-4.6-3.9-7.4-3.7c-2.9,0.2-4.2,3.8-6.7,5.3c-2.1,1.3-4.8,0.8-7.3,0.6s-5.3,0-6.8,1.9
		c-1.7,2.3-0.5,5.8,1.8,7.4C787.5,173,792.2,175.6,799.7,175.7z"/>
</g>
<linearGradient id="SVGID_18_" gradientUnits="userSpaceOnUse" x1="947.2213" y1="357.9321" x2="939.6768" y2="370.9463" gradientTransform="matrix(1 0 0 -1 0 542.63)">
	<stop  offset="0" style="stop-color:#FFFFFF;stop-opacity:0"/>
	<stop  offset="0.9986" style="stop-color:#FFFFFF"/>
</linearGradient>
<polygon class="st30" points="940.2,174.3 941.8,170.9 943.8,174 947.2,175.6 944.1,177.6 942.5,181 940.5,177.9 937.1,176.3 "/>
<linearGradient id="SVGID_19_" gradientUnits="userSpaceOnUse" x1="972.0183" y1="382.9871" x2="964.4741" y2="396.0009" gradientTransform="matrix(1 0 0 -1 0 542.63)">
	<stop  offset="0.1417" style="stop-color:#42287C"/>
	<stop  offset="1" style="stop-color:#714091"/>
</linearGradient>
<polygon class="st31" points="965,149.2 966.6,145.8 968.6,149 972,150.6 968.9,152.6 967.3,156 965.3,152.8 961.9,151.2 "/>
<linearGradient id="SVGID_20_" gradientUnits="userSpaceOnUse" x1="1169.1703" y1="349.3925" x2="1161.6255" y2="362.4071" gradientTransform="matrix(1 0 0 -1 0 542.63)">
	<stop  offset="0.1417" style="stop-color:#42287C"/>
	<stop  offset="1" style="stop-color:#714091"/>
</linearGradient>
<polygon class="st32" points="1161.8,183.1 1163.4,179.7 1165.4,182.8 1169.9,184.4 1166.7,186.4 1164,189.8 1162,186.6 
	1158.6,185.1 "/>
<linearGradient id="SVGID_21_" gradientUnits="userSpaceOnUse" x1="894.8926" y1="464.3539" x2="890.4894" y2="471.9495" gradientTransform="matrix(1 0 0 -1 0 542.63)">
	<stop  offset="0" style="stop-color:#FFFFFF;stop-opacity:0"/>
	<stop  offset="0.9986" style="stop-color:#FFFFFF"/>
</linearGradient>
<polygon class="st33" points="890.8,72.2 891.7,70.2 892.9,72.1 894.9,73 893,74.2 892.1,76.1 891,74.3 889,73.4 "/>
<polygon class="st8" points="1093.4,75.2 1094.3,73.2 1095.5,75 1097.5,75.9 1095.6,77.1 1094.7,79.1 1094.7,77.3 1091.6,76.3 "/>
<linearGradient id="SVGID_22_" gradientUnits="userSpaceOnUse" x1="1076.9808" y1="190.7161" x2="1069.4363" y2="203.7303" gradientTransform="matrix(0.9893 0.1458 0.1458 -0.9893 -5.2435 77.366)">
	<stop  offset="0" style="stop-color:#FFFFFF;stop-opacity:0"/>
	<stop  offset="0.9986" style="stop-color:#FFFFFF"/>
</linearGradient>
<polygon class="st34" points="1082.1,34.6 1084.2,31.5 1086.8,34.9 1090,36.9 1085.4,38.5 1083.4,41.6 1081.8,38.2 1078.7,36.1 "/>
<linearGradient id="SVGID_23_" gradientUnits="userSpaceOnUse" x1="1417.9093" y1="-777.6711" x2="1414.9437" y2="-772.5556" gradientTransform="matrix(0.8001 0.5998 0.5998 -0.8001 443.1618 -1319.7917)">
	<stop  offset="0.1417" style="stop-color:#42287C"/>
	<stop  offset="1" style="stop-color:#714091"/>
</linearGradient>
<polygon class="st35" points="1111.4,148 1112.7,147.3 1112.6,148.7 1113.3,150 1111.8,149.9 1110.5,150.6 1110.7,149.1 1110,147.9 
	"/>
<g>
	<rect x="940.2" y="260.8" class="st36" width="64.7" height="214.9"/>
	<rect x="918.5" y="260.8" class="st37" width="21.6" height="214.9"/>
	<g>
		<rect x="944" y="357.3" class="st38" width="57.1" height="8.6"/>
		<rect x="944" y="370" class="st38" width="57.1" height="8.6"/>
		<rect x="944" y="382.7" class="st38" width="57.1" height="8.6"/>
		<rect x="944" y="395.4" class="st38" width="57.1" height="8.6"/>
		<rect x="944" y="408.2" class="st38" width="57.1" height="8.6"/>
		<rect x="944" y="420.9" class="st38" width="57.1" height="8.6"/>
		<rect x="944" y="433.6" class="st38" width="57.1" height="8.6"/>
		<rect x="944" y="446.3" class="st38" width="57.1" height="8.6"/>
	</g>
	<g>
		<rect x="944" y="268" class="st38" width="57.1" height="8.6"/>
		<rect x="944" y="280.7" class="st38" width="57.1" height="8.6"/>
		<rect x="944" y="293.4" class="st38" width="57.1" height="8.6"/>
		<rect x="944" y="306.1" class="st38" width="57.1" height="8.6"/>
		<rect x="944" y="318.8" class="st38" width="57.1" height="8.6"/>
		<rect x="944" y="331.5" class="st38" width="57.1" height="8.6"/>
		<rect x="944" y="344.3" class="st38" width="57.1" height="8.6"/>
	</g>
	<rect x="956.8" y="460" class="st37" width="31.5" height="15.7"/>
</g>
<g>
	<rect x="839.4" y="289.2" class="st39" width="25.9" height="186.5"/>
	<rect x="865.3" y="289.2" class="st40" width="67.5" height="186.5"/>
	<g>
		<g>
			<rect x="874.2" y="299.3" class="st41" width="49.7" height="19.6"/>
		</g>
		<g>
			<g>
				<rect x="874.2" y="456" class="st39" width="49.7" height="19.6"/>
			</g>
		</g>
		<g>
			<rect x="874.2" y="325.4" class="st41" width="49.7" height="19.6"/>
		</g>
		<g>
			<rect x="874.2" y="351.5" class="st41" width="49.7" height="19.6"/>
		</g>
		<g>
			<rect x="874.2" y="377.7" class="st41" width="49.7" height="19.6"/>
		</g>
		<g>
			<rect x="874.2" y="403.8" class="st41" width="49.7" height="19.6"/>
		</g>
		<g>
			<rect x="874.2" y="429.9" class="st41" width="49.7" height="19.6"/>
		</g>
	</g>
</g>
<g>
	<rect x="768.2" y="199.3" class="st6" width="81.5" height="18.3"/>
	<rect x="755.9" y="199.3" class="st42" width="14.2" height="18.3"/>
	<rect x="773.4" y="192" class="st43" width="69.1" height="7.3"/>
	<rect x="763" y="192" class="st44" width="12.1" height="7.3"/>
	<rect x="748.6" y="217.5" class="st44" width="29.4" height="258.1"/>
	<rect x="778.1" y="217.5" class="st43" width="76.6" height="258.1"/>
	<rect x="787.2" y="227.1" class="st45" width="59.2" height="8.6"/>
	<rect x="787.2" y="239.7" class="st45" width="59.2" height="8.6"/>
	<rect x="787.2" y="252.3" class="st45" width="59.2" height="8.6"/>
	<rect x="787.2" y="264.9" class="st45" width="59.2" height="8.6"/>
	<rect x="787.2" y="277.4" class="st45" width="59.2" height="8.6"/>
	<rect x="787.2" y="290" class="st45" width="59.2" height="8.6"/>
	<rect x="787.2" y="302.6" class="st45" width="59.2" height="8.6"/>
	<rect x="787.2" y="316.8" class="st45" width="59.2" height="8.6"/>
	<rect x="787.2" y="329.4" class="st45" width="59.2" height="8.6"/>
	<rect x="787.2" y="342" class="st45" width="59.2" height="8.6"/>
	<rect x="787.2" y="354.6" class="st45" width="59.2" height="8.6"/>
	<rect x="787.2" y="367.2" class="st45" width="59.2" height="8.6"/>
	<rect x="787.2" y="379.8" class="st45" width="59.2" height="8.6"/>
	<rect x="787.2" y="392.4" class="st45" width="59.2" height="8.6"/>
	<rect x="787.2" y="407.2" class="st45" width="59.2" height="8.6"/>
	<rect x="787.2" y="419.8" class="st45" width="59.2" height="8.6"/>
	<rect x="787.2" y="432.4" class="st45" width="59.2" height="8.6"/>
	<rect x="787.2" y="445" class="st45" width="59.2" height="8.6"/>
	<rect x="787.2" y="457.6" class="st44" width="59.2" height="18.1"/>
</g>
<g>
	<rect x="683.2" y="257.4" class="st46" width="20.8" height="218.3"/>
	<rect x="704" y="257.4" class="st47" width="54.2" height="218.3"/>
	<g>
		<rect x="711.2" y="267.1" class="st48" width="39.9" height="23"/>
		<rect x="711.2" y="285.2" class="st46" width="39.9" height="7.1"/>
	</g>
	<g>
		<g>
			<rect x="711.2" y="450.6" class="st48" width="39.9" height="23"/>
			<rect x="711.2" y="468.6" class="st46" width="39.9" height="7.1"/>
		</g>
	</g>
	<g>
		<polygon class="st48" points="750.9,247.3 698.5,238.9 698.5,257.4 750.9,257.4 		"/>
		<polygon class="st49" points="698.5,238.9 690.5,247.3 690.5,257.4 698.5,257.4 		"/>
	</g>
	<g>
		<rect x="711.2" y="297.7" class="st48" width="39.9" height="23"/>
		<rect x="711.2" y="315.7" class="st46" width="39.9" height="7.1"/>
	</g>
	<g>
		<rect x="711.2" y="328.3" class="st48" width="39.9" height="23"/>
		<rect x="711.2" y="346.3" class="st46" width="39.9" height="7.1"/>
	</g>
	<g>
		<rect x="711.2" y="358.9" class="st48" width="39.9" height="23"/>
		<rect x="711.2" y="376.9" class="st46" width="39.9" height="7.1"/>
	</g>
	<g>
		<rect x="711.2" y="389.4" class="st48" width="39.9" height="23"/>
		<rect x="711.2" y="407.5" class="st46" width="39.9" height="7.1"/>
	</g>
	<g>
		<rect x="711.2" y="420" class="st48" width="39.9" height="23"/>
		<rect x="711.2" y="438" class="st46" width="39.9" height="7.1"/>
	</g>
</g>
<g>
	<rect x="1069.4" y="358.9" class="st50" width="65" height="116.8"/>
	<rect x="1057" y="358.9" class="st51" width="12.4" height="116.8"/>
	<rect x="1073.3" y="365.7" class="st52" width="57.4" height="19.8"/>
	<rect x="1073.3" y="389.3" class="st52" width="57.4" height="19.8"/>
	<rect x="1073.3" y="413" class="st52" width="57.4" height="19.8"/>
	<rect x="1073.3" y="436.6" class="st52" width="57.4" height="19.8"/>
	<g>
		<rect x="1073.3" y="377.5" class="st51" width="57.4" height="8"/>
		<rect x="1073.3" y="401.1" class="st51" width="57.4" height="8"/>
		<rect x="1073.3" y="424.8" class="st51" width="57.4" height="8"/>
		<rect x="1073.3" y="448.4" class="st51" width="57.4" height="8"/>
	</g>
	<rect x="1086.1" y="461.1" class="st51" width="31.7" height="14.6"/>
</g>
<g>
	<rect x="992.9" y="341.4" class="st53" width="18.2" height="134.3"/>
	<rect x="1011.1" y="341.4" class="st54" width="47.4" height="134.3"/>
	<g>
		<rect x="999.3" y="318" class="st55" width="7" height="10.9"/>
	</g>
	<rect x="1017.4" y="347.5" class="st56" width="35" height="14.3"/>
	<rect x="1017.4" y="461.4" class="st56" width="35" height="14.3"/>
	<rect x="1006.3" y="318" class="st57" width="45.9" height="10.9"/>
	<g>
		<rect x="992.9" y="328.9" class="st58" width="18.2" height="12.5"/>
	</g>
	<rect x="1011.1" y="328.9" class="st56" width="47.4" height="12.5"/>
	<rect x="1017.4" y="366.5" class="st56" width="35" height="14.3"/>
	<rect x="1017.4" y="385.4" class="st56" width="35" height="14.3"/>
	<rect x="1017.4" y="404.4" class="st56" width="35" height="14.3"/>
	<rect x="1017.4" y="423.4" class="st56" width="35" height="14.3"/>
	<rect x="1017.4" y="442.4" class="st56" width="35" height="14.3"/>
</g>
<g>
	<g>
		<rect x="632.2" y="290.1" class="st39" width="17.7" height="185.5"/>
		<rect x="649.9" y="290.1" class="st40" width="46" height="185.5"/>
		<g>
			<g>
				<rect x="656" y="298.4" class="st59" width="9.7" height="19.5"/>
				<rect x="656" y="313.8" class="st60" width="9.7" height="6"/>
			</g>
			<g>
				<rect x="668.1" y="298.4" class="st59" width="9.7" height="19.5"/>
				<rect x="668.1" y="313.8" class="st60" width="9.7" height="6"/>
			</g>
			<g>
				<rect x="680.2" y="298.4" class="st59" width="9.7" height="19.5"/>
				<rect x="680.2" y="313.8" class="st60" width="9.7" height="6"/>
			</g>
		</g>
		<g>
			<g>
				<rect x="656" y="324.4" class="st59" width="9.7" height="19.5"/>
				<rect x="656" y="339.7" class="st60" width="9.7" height="6"/>
			</g>
			<g>
				<rect x="668.1" y="324.4" class="st59" width="9.7" height="19.5"/>
				<rect x="668.1" y="339.7" class="st60" width="9.7" height="6"/>
			</g>
			<g>
				<rect x="680.2" y="324.4" class="st59" width="9.7" height="19.5"/>
				<rect x="680.2" y="339.7" class="st60" width="9.7" height="6"/>
			</g>
		</g>
		<g>
			<g>
				<rect x="656" y="350.4" class="st59" width="9.7" height="19.5"/>
				<rect x="656" y="365.7" class="st60" width="9.7" height="6"/>
			</g>
			<g>
				<rect x="668.1" y="350.4" class="st59" width="9.7" height="19.5"/>
				<rect x="668.1" y="365.7" class="st60" width="9.7" height="6"/>
			</g>
			<g>
				<rect x="680.2" y="350.4" class="st59" width="9.7" height="19.5"/>
				<rect x="680.2" y="365.7" class="st60" width="9.7" height="6"/>
			</g>
		</g>
		<g>
			<g>
				<rect x="656" y="376.4" class="st59" width="9.7" height="19.5"/>
				<rect x="656" y="391.7" class="st60" width="9.7" height="6"/>
			</g>
			<g>
				<rect x="668.1" y="376.4" class="st59" width="9.7" height="19.5"/>
				<rect x="668.1" y="391.7" class="st60" width="9.7" height="6"/>
			</g>
			<g>
				<rect x="680.2" y="376.4" class="st59" width="9.7" height="19.5"/>
				<rect x="680.2" y="391.7" class="st60" width="9.7" height="6"/>
			</g>
		</g>
		<g>
			<g>
				<rect x="656" y="402.4" class="st59" width="9.7" height="19.5"/>
				<rect x="656" y="417.7" class="st60" width="9.7" height="6"/>
			</g>
			<g>
				<rect x="668.1" y="402.4" class="st59" width="9.7" height="19.5"/>
				<rect x="668.1" y="417.7" class="st60" width="9.7" height="6"/>
			</g>
			<g>
				<rect x="680.2" y="402.4" class="st59" width="9.7" height="19.5"/>
				<rect x="680.2" y="417.7" class="st60" width="9.7" height="6"/>
			</g>
		</g>
		<g>
			<g>
				<rect x="656" y="428.4" class="st59" width="9.7" height="19.5"/>
				<rect x="656" y="443.7" class="st60" width="9.7" height="6"/>
			</g>
			<g>
				<rect x="668.1" y="428.4" class="st59" width="9.7" height="19.5"/>
				<rect x="668.1" y="443.7" class="st60" width="9.7" height="6"/>
			</g>
			<g>
				<rect x="680.2" y="428.4" class="st59" width="9.7" height="19.5"/>
				<rect x="680.2" y="443.7" class="st60" width="9.7" height="6"/>
			</g>
		</g>
		<g>
			<g>
				<rect x="656" y="454.4" class="st59" width="33.9" height="19.5"/>
				<rect x="656" y="469.7" class="st60" width="33.9" height="6"/>
			</g>
		</g>
	</g>
	<g>
		<rect x="645.2" y="281.5" class="st61" width="44.5" height="8.6"/>
		<rect x="638.4" y="281.5" class="st62" width="7.3" height="8.6"/>
	</g>
</g>
<g>
	<rect x="568.1" y="367.3" class="st50" width="74" height="108.4"/>
	<rect x="554" y="367.3" class="st63" width="14.1" height="108.4"/>
	<g>
		<rect x="572.5" y="373.6" class="st63" width="65.3" height="7.4"/>
		<rect x="572.5" y="384.6" class="st63" width="65.3" height="7.4"/>
		<rect x="572.5" y="395.6" class="st63" width="65.3" height="7.4"/>
		<rect x="572.5" y="406.5" class="st63" width="65.3" height="7.4"/>
		<rect x="572.5" y="417.5" class="st63" width="65.3" height="7.4"/>
		<rect x="572.5" y="428.4" class="st63" width="65.3" height="7.4"/>
		<rect x="572.5" y="439.4" class="st63" width="65.3" height="7.4"/>
		<rect x="572.5" y="450.4" class="st63" width="65.3" height="7.4"/>
	</g>
	<rect x="587.1" y="462.1" class="st64" width="36" height="13.5"/>
</g>
<g>
	<rect x="747.9" y="350.5" class="st54" width="87.6" height="125.1"/>
	<rect x="733.8" y="350.5" class="st53" width="14.1" height="125.1"/>
	<g>
		<rect x="752.2" y="357.9" class="st56" width="78.9" height="9.9"/>
		<rect x="752.2" y="372.4" class="st56" width="78.9" height="9.9"/>
		<rect x="752.2" y="387" class="st56" width="78.9" height="9.9"/>
		<rect x="752.2" y="401.5" class="st56" width="78.9" height="9.9"/>
		<rect x="752.2" y="416.1" class="st56" width="78.9" height="9.9"/>
		<rect x="752.2" y="430.6" class="st56" width="78.9" height="9.9"/>
		<rect x="752.2" y="445.2" class="st56" width="78.9" height="9.9"/>
	</g>
	<rect x="766.9" y="460" class="st65" width="49.7" height="15.6"/>
</g>
<g>
	
		<linearGradient id="SVGID_24_" gradientUnits="userSpaceOnUse" x1="433.9227" y1="597.4368" x2="471.6272" y2="495.5331" gradientTransform="matrix(0.9999 -3.956874e-03 -3.956874e-03 -0.9999 -1.6527 968.1011)">
		<stop  offset="0" style="stop-color:#67D690"/>
		<stop  offset="1" style="stop-color:#00A99D"/>
	</linearGradient>
	<path class="st66" d="M452.9,475c-7.2,2.2-15.5-2.1-20.6-7.6s-6.8-14-4.1-21.1c1.9-4.9,5.7-9.1,6-14.3c0.5-6.2-4.1-11.8-4.1-18
		c0-5.8,3.7-10.8,5.8-16.2c1.5-4.1,2-8.6,3-12.9s2.5-8.7,5.7-11.8c3.2-3.1,8.3-4.5,12.1-2.4c3.3,1.8,4.9,5.7,5.6,9.4
		c0.7,3.7,0.8,7.6,2.3,11.1c2.2,5.3,6.9,9,11.1,12.9s8.1,9.1,7.5,14.8c-0.6,6-6,10.9-5.6,16.9c0.3,3.7,2.8,6.9,4.4,10.2
		c3.8,8.1,2,18.4-4.3,24.7C471.3,477,461,478.8,452.9,475"/>
</g>
<g>
	<g>
		<g>
			<path class="st67" d="M462,478.2c0,0-0.2-0.3-0.4-0.9c-0.2-0.6-0.6-1.5-0.9-2.6c-0.7-2.3-1.6-5.7-2.3-10
				c-0.7-4.3-1.2-9.4-1.7-15.1s-1-11.9-1.6-18.5c-1.1-13.1-2.1-25-2.7-33.6c-0.3-4.3-0.6-7.8-0.7-10.2c-0.1-1.2-0.1-2.1-0.1-2.8
				c0-0.6,0-1,0-1s0.1,0.3,0.2,1c0.1,0.6,0.2,1.6,0.3,2.8c0.3,2.4,0.6,5.9,1,10.2c0.8,8.6,1.9,20.5,3,33.6
				c0.5,6.6,1.1,12.8,1.5,18.5s0.9,10.8,1.5,15.1c0.6,4.3,1.3,7.7,2,10C461.7,476.9,462.1,478.1,462,478.2z"/>
		</g>
	</g>
</g>
<g>
	<g>
		<g>
			<path class="st67" d="M471.1,410.5c0.1,0.2-1.2,0.8-3,2c-1.9,1.2-4.3,3.1-6.5,5.6s-3.7,5.2-4.7,7.2c-0.9,2-1.4,3.3-1.5,3.3
				s0.1-1.4,0.9-3.6c0.8-2.1,2.3-5,4.6-7.6c2.3-2.6,4.9-4.5,6.9-5.6C469.7,410.8,471.1,410.4,471.1,410.5z"/>
		</g>
	</g>
</g>
<g>
	<g>
		<g>
			<path class="st67" d="M474,439.7c0.1,0.1-1.1,0.8-2.9,2s-4,3.1-6.1,5.6s-3.6,5.1-4.5,7s-1.4,3.2-1.5,3.2s0.1-1.4,0.8-3.5
				c0.8-2.1,2.2-4.8,4.4-7.4c2.2-2.6,4.6-4.5,6.5-5.6C472.6,440,473.9,439.6,474,439.7z"/>
		</g>
	</g>
</g>
<g>
	<g>
		<g>
			<path class="st67" d="M456.2,438.5c-0.1,0.1-0.9-1.3-2.3-3.4s-3.4-5-6-7.9c-1.3-1.4-2.6-2.7-3.9-3.8c-1.3-1.1-2.5-2-3.5-2.7
				c-2.1-1.4-3.5-2.1-3.5-2.2s1.6,0.3,3.8,1.6c1.1,0.6,2.4,1.5,3.8,2.6c1.3,1.1,2.7,2.4,4,3.8c2.6,2.9,4.6,5.9,5.8,8.2
				C455.8,436.9,456.4,438.4,456.2,438.5z"/>
		</g>
	</g>
</g>
<g>
	<g>
		<g>
			<path class="st67" d="M459,464.8c-0.2,0-0.6-1.3-1.7-3.3c-1-2-2.6-4.7-4.9-7.3c-2.3-2.6-4.8-4.5-6.6-5.8
				c-1.9-1.3-3.2-1.9-3.1-2.1c0-0.1,1.4,0.3,3.5,1.4c2,1.1,4.7,3.1,7,5.7c2.4,2.7,3.9,5.5,4.8,7.7
				C458.9,463.3,459.1,464.8,459,464.8z"/>
		</g>
	</g>
</g>
<ellipse class="st68" cx="1047.6" cy="496.7" rx="84.3" ry="1.8"/>
<g>
	<polygon points="1021.2,471.6 1034.3,471.6 1031,462.2 1024.5,462.2 	"/>
	<rect x="1043.3" y="468.1" width="66.6" height="3.5"/>
	<polygon class="st69" points="1030,451.4 1018.3,455 1018.3,464.8 1035.1,463.6 	"/>
	<g>
		<path class="st70" d="M1030.4,436.4c0,0-0.8,7.3-0.8,10.6c0,3.3,0.4,4.3,0.4,4.3l5.1,12.2c0,0,7.1,6.9,9.2,8h31
			c0,0,27.5-19.5,38.9-36.9l-5.5-13.1h-42.2C1066.5,421.5,1036.7,427.6,1030.4,436.4z"/>
		<path class="st71" d="M1075.4,471.5c0,0,27.5-19.5,38.9-36.9l-1.6-3.7l-77.6,32.7c0,0,7.1,6.9,9.2,8h31.1V471.5z"/>
	</g>
	<rect x="1013.3" y="430.7" width="2.6" height="13.1"/>
	<rect x="1015.1" y="471.5" class="st69" width="102.7" height="13.3"/>
	<rect x="964.3" y="467.2" class="st5" width="50.8" height="17.8"/>
	<rect x="1010.9" y="439.1" class="st72" width="7.3" height="30.1"/>
	<path class="st73" d="M999.2,481c-1.3-5.1-6-8.9-11.5-8.9c-5.7,0-10.5,4-11.7,9.4l-11.7,0.1c0,0,0-14.4,0-17.8s9.8-23.7,9.8-23.7
		c1.3-3.1,4.5-2.8,4.5-2.8h32.4V481h-11.5H999.2z"/>
	<g>
		<circle cx="987.7" cy="485.8" r="10.1"/>
		<circle class="st4" cx="987.7" cy="485.8" r="5"/>
	</g>
	<g>
		<circle cx="1076.9" cy="485.8" r="10.1"/>
		<ellipse class="st4" cx="1076.9" cy="485.8" rx="5" ry="5"/>
	</g>
	<g>
		<circle cx="1106.5" cy="485.8" r="10.1"/>
		<circle class="st4" cx="1106.5" cy="485.8" r="5"/>
	</g>
	<polygon class="st74" points="994.2,441.2 977.9,441.2 973.4,454.7 994.2,454.7 	"/>
	<rect x="988.1" y="457.9" class="st75" width="4.9" height="1.2"/>
	<path class="st4" d="M1022.8,487.9c0,1,0.8,1.8,1.8,1.8h26.3c1,0,1.8-0.8,1.8-1.8v-11.6c0-1-0.8-1.8-1.8-1.8h-26.3
		c-1,0-1.8,0.8-1.8,1.8V487.9z"/>
	<rect x="1044.1" y="474.6" width="3.1" height="15.1"/>
	<rect x="1028.4" y="474.6" width="3.1" height="15.1"/>
	<polygon class="st76" points="1101.9,471.5 1104,446.9 1116.8,431.5 1118.4,434.7 1109.9,446.9 1115.4,471.5 	"/>
	<polygon class="st77" points="1106.2,417.2 1115.2,439.3 1120,433 1116.7,416.1 	"/>
	<polygon class="st78" points="1115.2,439.3 1120.3,446.2 1120.3,457.2 1122,458 1123,447.1 1118.4,434.7 	"/>
	<path class="st76" d="M1066.5,421.5l-18,4.9l19.5,45.1h7.4c0,0,3.9-2.8,9.4-7.2L1066.5,421.5z"/>
	<polygon class="st79" points="994.2,441.2 994.2,454.7 989.7,454.7 	"/>
	<path class="st80" d="M964.3,469.5v12l11.7-0.1c1.2-5.4,5.9-9.4,11.7-9.4c5.5,0,10.2,3.8,11.5,8.9h0.2h11.5v-11.5h-46.6V469.5z"/>
	<rect x="964.3" y="464.3" class="st70" width="3.7" height="5.5"/>
	<rect x="964.3" y="469.8" class="st4" width="3.7" height="11.6"/>
</g>
<ellipse class="st68" cx="530.8" cy="489.9" rx="73.3" ry="3.5"/>
<g>
	<path class="st69" d="M483.7,480.3c0,4.4,3.6,8,8,8h80.7c4.4,0,8-3.6,8-8v-2.1c0-4.4-3.6-8-8-8h-80.7c-4.4,0-8,3.6-8,8V480.3z"/>
	<circle cx="492.9" cy="478.7" r="4.7"/>
	<circle cx="572" cy="478.7" r="4.7"/>
	<g>
		<path d="M503.6,479.9c0,0.5,0.4,0.9,0.9,0.9h55.1c0.5,0,0.9-0.4,0.9-0.9v-1.1c0-0.5-0.4-0.9-0.9-0.9h-55.1c-0.5,0-0.9,0.4-0.9,0.9
			L503.6,479.9L503.6,479.9z"/>
	</g>
	<rect x="507.2" y="470.1" width="49.8" height="3.9"/>
	<polygon points="555.4,424 558.2,424 563.5,424 563.5,426.8 563.5,443.8 558.2,443.8 558.2,426.8 555.4,426.8 	"/>
	<polygon class="st70" points="501.8,441.9 501.8,418.1 537.2,418.1 547.2,443.5 576.4,444.8 576.4,466.8 563.2,470.1 492.5,470.1 
		493.8,441.6 	"/>
	<polygon class="st74" points="522.3,450 545.9,450 534.9,420.6 522.3,420.6 	"/>
	<rect x="504.9" y="420.6" class="st74" width="14.1" height="29.3"/>
	<rect x="504.9" y="420.6" class="st79" width="4.2" height="29.3"/>
	<rect x="515.2" y="415.5" class="st71" width="9.7" height="2.6"/>
	<polygon class="st79" points="522.3,420.6 522.3,450 533.3,450 	"/>
	<polygon class="st71" points="576.4,466.8 563.2,470.1 492.5,470.1 493,459.4 576.4,459.4 	"/>
	<path class="st76" d="M555,477.6c0.4,0.6,1.3,0.7,1.9,0.3l36.6-24.1c0.6-0.4,0.8-1.2,0.3-1.8l-0.3-0.4c-0.4-0.6-1.3-0.7-1.9-0.3
		L555,475.4c-0.6,0.4-0.8,1.2-0.3,1.8L555,477.6z"/>
	<g>
		<path class="st81" d="M526.7,476.4l66.3,7.8l-0.3-5.4l-65.4-8.7C527.3,470.1,524.3,473,526.7,476.4z"/>
		<path class="st82" d="M592.1,484.1l-65.4-7.7c-0.6-0.8-0.8-1.5-0.9-2.2c0.4-0.6,0.7-0.9,0.7-0.9L592,482L592.1,484.1z"/>
	</g>
	<path class="st70" d="M601.1,445l-10.7-3.9c0,0-1.3,34.1-0.5,45.6l8.9,4.7h7.2C606,491.4,584.9,482.5,601.1,445z"/>
	<rect x="538.4" y="453.9" class="st76" width="5.9" height="1.7"/>
</g>
<ellipse class="st68" cx="808.7" cy="490.9" rx="73.3" ry="3.5"/>
<g>
	<path class="st69" d="M855.7,481.3c0,4.4-3.6,8-8,8H767c-4.4,0-8-3.6-8-8v-2.1c0-4.4,3.6-8,8-8h80.7c4.4,0,8,3.6,8,8V481.3z"/>
	<circle cx="846.6" cy="479.7" r="4.7"/>
	<circle cx="767.5" cy="479.7" r="4.7"/>
	<g>
		<path d="M835.8,480.9c0,0.5-0.4,0.9-0.9,0.9h-55.1c-0.5,0-0.9-0.4-0.9-0.9v-1.1c0-0.5,0.4-0.9,0.9-0.9h55.1c0.5,0,0.9,0.4,0.9,0.9
			V480.9z"/>
	</g>
	<rect x="782.5" y="471.1" width="49.8" height="3.9"/>
	<polygon points="784.1,425 781.2,425 776,425 776,427.8 776,444.8 781.2,444.8 781.2,427.8 784.1,427.8 	"/>
	<polygon class="st70" points="837.7,442.9 837.7,419.1 802.2,419.1 792.2,444.5 763,445.8 763,467.8 776.2,471.1 847,471.1 
		845.7,442.6 	"/>
	<polygon class="st74" points="817.1,451 793.6,451 804.6,421.6 817.1,421.6 	"/>
	<rect x="820.4" y="421.6" class="st74" width="14.1" height="29.3"/>
	<rect x="830.3" y="421.6" class="st79" width="4.2" height="29.3"/>
	<rect x="814.5" y="416.5" class="st71" width="9.7" height="2.6"/>
	<polygon class="st79" points="817.1,421.6 817.1,451 806.1,451 	"/>
	<polygon class="st71" points="763,467.8 776.2,471.1 847,471.1 846.5,460.4 763,460.4 	"/>
	<path class="st76" d="M784.4,478.6c-0.4,0.6-1.3,0.7-1.9,0.3l-36.6-24.1c-0.6-0.4-0.8-1.2-0.3-1.8l0.3-0.4c0.4-0.6,1.3-0.7,1.9-0.3
		l36.6,24.1c0.6,0.4,0.8,1.2,0.3,1.8L784.4,478.6z"/>
	<g>
		<path class="st81" d="M812.7,477.4l-66.3,7.8l0.3-5.4l65.4-8.7C812.1,471.1,815.2,474,812.7,477.4z"/>
		<path class="st82" d="M747.4,485.1l65.4-7.7c0.6-0.8,0.8-1.5,0.9-2.2c-0.4-0.6-0.7-0.9-0.7-0.9l-65.4,8.7L747.4,485.1z"/>
	</g>
	<path class="st70" d="M738.3,446l10.7-3.9c0,0,1.3,34.1,0.5,45.6l-8.9,4.7h-7.2C733.5,492.4,754.5,483.5,738.3,446z"/>
	<rect x="795.2" y="454.9" class="st76" width="5.9" height="1.7"/>
</g>
<ellipse class="st68" cx="737.7" cy="529.8" rx="19.2" ry="0.6"/>
<g>
	<g>
		<g>
			<rect x="722.6" y="509.1" class="st83" width="2.6" height="20.3"/>
			<rect x="723.9" y="509.1" class="st3" width="1.3" height="20.3"/>
		</g>
		<g>
			<rect x="746.7" y="509.1" class="st83" width="2.6" height="20.3"/>
			<rect x="748" y="509.1" class="st3" width="1.3" height="20.3"/>
		</g>
	</g>
	<g>
		<rect x="714.7" y="507.7" class="st84" width="42.7" height="6.6"/>
		<g>
			<polygon class="st85" points="714.7,514.3 714.7,514 714.5,514.3 			"/>
			<polygon class="st85" points="722.2,507.7 718,514.3 720.4,514.3 724.6,507.7 			"/>
			<polygon class="st85" points="714.7,507.7 714.7,514 718.8,507.7 			"/>
			<polygon class="st85" points="733.9,507.7 729.6,514.3 732.1,514.3 736.3,507.7 			"/>
			<polygon class="st85" points="728,507.7 723.8,514.3 726.2,514.3 730.4,507.7 			"/>
			<polygon class="st85" points="751.4,507.7 747.2,514.3 749.6,514.3 753.8,507.7 			"/>
			<polygon class="st85" points="757.2,507.7 753,514.3 757.4,514.3 757.4,507.7 			"/>
			<polygon class="st85" points="745.5,507.7 741.3,514.3 743.7,514.3 748,507.7 			"/>
			<polygon class="st85" points="739.7,507.7 735.5,514.3 737.9,514.3 742.1,507.7 			"/>
		</g>
	</g>
</g>
<ellipse class="st68" cx="366.4" cy="524.8" rx="19.2" ry="0.6"/>
<g>
	<g>
		<g>
			<rect x="351.4" y="504.1" class="st83" width="2.6" height="20.3"/>
			<rect x="352.7" y="504.1" class="st3" width="1.3" height="20.3"/>
		</g>
		<g>
			<rect x="375.5" y="504.1" class="st83" width="2.6" height="20.3"/>
			<rect x="376.8" y="504.1" class="st3" width="1.3" height="20.3"/>
		</g>
	</g>
	<g>
		<rect x="343.5" y="502.7" class="st84" width="42.7" height="6.6"/>
		<g>
			<polygon class="st85" points="343.5,509.3 343.5,509 343.3,509.3 			"/>
			<polygon class="st85" points="351,502.7 346.7,509.3 349.2,509.3 353.4,502.7 			"/>
			<polygon class="st85" points="343.5,502.7 343.5,509 347.5,502.7 			"/>
			<polygon class="st85" points="362.6,502.7 358.4,509.3 360.8,509.3 365.1,502.7 			"/>
			<polygon class="st85" points="356.8,502.7 352.6,509.3 355,509.3 359.2,502.7 			"/>
			<polygon class="st85" points="380.2,502.7 375.9,509.3 378.4,509.3 382.6,502.7 			"/>
			<polygon class="st85" points="386,502.7 381.8,509.3 386.2,509.3 386.2,502.7 			"/>
			<polygon class="st85" points="374.3,502.7 370.1,509.3 372.5,509.3 376.7,502.7 			"/>
			<polygon class="st85" points="368.5,502.7 364.3,509.3 366.7,509.3 370.9,502.7 			"/>
		</g>
	</g>
</g>
<ellipse class="st68" cx="915.7" cy="517.9" rx="19.2" ry="0.6"/>
<g>
	<g>
		<g>
			<rect x="900.6" y="497.2" class="st83" width="2.6" height="20.3"/>
			<rect x="901.9" y="497.2" class="st3" width="1.3" height="20.3"/>
		</g>
		<g>
			<rect x="924.7" y="497.2" class="st83" width="2.6" height="20.3"/>
			<rect x="926" y="497.2" class="st3" width="1.3" height="20.3"/>
		</g>
	</g>
	<g>
		<rect x="892.7" y="495.8" class="st84" width="42.7" height="6.6"/>
		<g>
			<polygon class="st85" points="892.7,502.4 892.7,502.1 892.5,502.4 			"/>
			<polygon class="st85" points="900.2,495.8 896,502.4 898.4,502.4 902.6,495.8 			"/>
			<polygon class="st85" points="892.7,495.8 892.7,502.1 896.8,495.8 			"/>
			<polygon class="st85" points="911.9,495.8 907.6,502.4 910.1,502.4 914.3,495.8 			"/>
			<polygon class="st85" points="906,495.8 901.8,502.4 904.2,502.4 908.4,495.8 			"/>
			<polygon class="st85" points="929.4,495.8 925.2,502.4 927.6,502.4 931.8,495.8 			"/>
			<polygon class="st85" points="935.2,495.8 931,502.4 935.4,502.4 935.4,495.8 			"/>
			<polygon class="st85" points="923.5,495.8 919.3,502.4 921.7,502.4 926,495.8 			"/>
			<polygon class="st85" points="917.7,495.8 913.5,502.4 915.9,502.4 920.1,495.8 			"/>
		</g>
	</g>
</g>
<rect x="299.2" y="443" class="st86" width="4.7" height="32"/>
<linearGradient id="SVGID_25_" gradientUnits="userSpaceOnUse" x1="282" y1="101.23" x2="321.138" y2="101.23" gradientTransform="matrix(1 0 0 -1 0 542.63)">
	<stop  offset="0" style="stop-color:#67D690"/>
	<stop  offset="1" style="stop-color:#00A99D"/>
</linearGradient>
<circle class="st87" cx="301.6" cy="441.4" r="19.6"/>
<rect x="357.6" y="458" class="st86" width="4.7" height="18.1"/>
<linearGradient id="SVGID_26_" gradientUnits="userSpaceOnUse" x1="331.9" y1="98.18" x2="388" y2="98.18" gradientTransform="matrix(1 0 0 -1 0 542.63)">
	<stop  offset="0" style="stop-color:#67D690"/>
	<stop  offset="1" style="stop-color:#00A99D"/>
</linearGradient>
<path class="st88" d="M380.2,444.7c0-0.1,0-0.1,0-0.2c0-10.8-8.8-19.6-19.6-19.6c-9.5,0-17.5,6.8-19.2,15.9c-5.4,1-9.5,5.8-9.5,11.5
	c0,6.5,5.3,11.7,11.7,11.7c2.8,0,31.8,0,34.6,0c5.4,0,9.8-4.4,9.8-9.8C388,449.6,384.6,445.6,380.2,444.7z"/>
<linearGradient id="SVGID_27_" gradientUnits="userSpaceOnUse" x1="1190.7422" y1="222.1107" x2="1244.0962" y2="222.1107" gradientTransform="matrix(0.9479 -0.3186 -0.3186 -0.9479 63.6176 1034.4216)">
	<stop  offset="0" style="stop-color:#9FEAB2"/>
	<stop  offset="1" style="stop-color:#6AD4AB"/>
</linearGradient>
<path class="st89" d="M1143.1,471.8c-5.7,0.8-11.4-3.4-14.6-8.1s-3.4-11.3-0.6-16.3c2-3.4,5.3-6.2,6.2-10c1.1-4.6-1.7-9.4-1-14
	c0.6-4.4,4.1-7.7,6.2-11.5c1.6-2.9,2.5-6.2,3.8-9.3c1.2-3.1,2.9-6.2,5.6-8.2s6.7-2.4,9.4-0.4c2.3,1.8,3,4.9,3.1,7.8
	s-0.3,5.8,0.4,8.6c1,4.2,4.2,7.6,6.8,11c2.7,3.4,5,7.8,3.9,12c-1.2,4.4-5.8,7.5-6.2,12c-0.2,2.8,1.3,5.5,2.1,8.2
	c1.9,6.5-0.7,14.1-6.1,18C1156.7,475.5,1148.7,475.6,1143.1,471.8"/>
<g>
	<path class="st67" d="M1149.6,475.3c0,0-0.1-0.2-0.2-0.7s-0.2-1.2-0.4-2.1c-0.3-1.8-0.5-4.5-0.5-7.8s0.2-7.2,0.5-11.5
		s0.6-9.1,1-14.1c0.7-10,1.4-19,1.9-25.6c0.3-3.3,0.5-5.9,0.6-7.7c0.1-0.9,0.2-1.6,0.2-2.1c0.1-0.5,0.1-0.7,0.1-0.7s0,0.3,0,0.7
		c0,0.5-0.1,1.2-0.1,2.1c-0.1,1.9-0.3,4.5-0.4,7.8c-0.4,6.6-1,15.6-1.7,25.6c-0.4,5-0.7,9.8-1,14.1c-0.3,4.3-0.6,8.2-0.7,11.5
		s0.1,5.9,0.3,7.7c0.1,0.9,0.2,1.6,0.3,2.1C1149.6,475,1149.6,475.3,1149.6,475.3z"/>
</g>
<g>
	<path class="st67" d="M1164.4,425.5c0,0.1-1,0.4-2.5,1.1c-0.8,0.3-1.7,0.8-2.6,1.4s-2,1.3-2.9,2.1c-1,0.8-1.8,1.7-2.6,2.5
		c-0.7,0.8-1.3,1.6-1.8,2.4c-0.9,1.4-1.4,2.4-1.5,2.3c-0.1,0,0.3-1,1.1-2.5c0.4-0.8,1-1.6,1.7-2.5s1.6-1.8,2.6-2.6
		c1-0.8,2.1-1.6,3.1-2.1c1-0.6,1.9-1,2.7-1.3C1163.3,425.6,1164.4,425.5,1164.4,425.5z"/>
</g>
<g>
	<path class="st67" d="M1163.1,447.8c0,0.1-0.9,0.4-2.4,1.1c-0.7,0.4-1.6,0.8-2.5,1.4s-1.9,1.3-2.8,2.1c-0.9,0.8-1.8,1.7-2.5,2.5
		s-1.3,1.6-1.7,2.3c-0.9,1.4-1.4,2.3-1.5,2.2c-0.1,0,0.3-1,1.1-2.5c0.4-0.7,1-1.6,1.7-2.4c0.7-0.9,1.5-1.7,2.5-2.6
		c1-0.8,2-1.5,2.9-2.1c1-0.6,1.8-1,2.6-1.3C1162.1,447.9,1163.1,447.7,1163.1,447.8z"/>
</g>
<g>
	<path class="st67" d="M1149.9,444.8c-0.1,0-0.5-1.1-1.3-2.9s-1.9-4.2-3.5-6.6c-0.8-1.2-1.7-2.3-2.5-3.3c-0.8-0.9-1.6-1.8-2.4-2.4
		c-1.4-1.3-2.4-1.9-2.4-2s1.1,0.5,2.7,1.7c0.8,0.6,1.6,1.4,2.5,2.4s1.7,2.1,2.6,3.3c1.6,2.5,2.7,5,3.4,6.8
		C1149.7,443.6,1150,444.7,1149.9,444.8z"/>
</g>
<g>
	<path class="st67" d="M1148.9,464.9c-0.1,0-0.3-1-0.8-2.7c-0.3-0.8-0.6-1.8-1.1-2.8s-1.1-2.2-1.8-3.3c-0.7-1.1-1.5-2.1-2.2-3
		c-0.8-0.9-1.5-1.6-2.1-2.2c-1.3-1.2-2.2-1.8-2.1-1.9c0-0.1,1,0.4,2.4,1.5c0.7,0.5,1.5,1.3,2.3,2.1c0.8,0.9,1.6,1.9,2.3,3
		c0.7,1.1,1.3,2.3,1.8,3.4c0.4,1.1,0.8,2.1,1,2.9C1149,463.8,1149,464.9,1148.9,464.9z"/>
</g>
<text transform="matrix(1 0 0 1 65 151.876)" class="st90 st91 st92">Bringing Projects </text>
<text transform="matrix(1 0 0 1 65 215.876)" class="st90 st91 st92">to Reality</text>
<g>
	<rect x="66.9" y="288.6" class="st93" width="320.4" height="75"/>
	<text transform="matrix(0.9 0 0 1 66.9569 300.0991)" class="st94 st95 st96">We do our best leaving no stone </text>
	<text transform="matrix(0.9 0 0 1 66.9569 320.2524)" class="st94 st95 st96">unturned in delivering the optimal solutions </text>
	<text transform="matrix(0.9 0 0 1 66.9569 340.3335)" class="st94 st95 st96">for the needs of our clients.</text>
</g>
<rect x="81" y="250" class="st94" width="206" height="1"/>
</svg>
