<?xml version="1.0" encoding="utf-8"?>
<!-- Generator: Adobe Illustrator 21.0.2, SVG Export Plug-In . SVG Version: 6.00 Build 0)  -->
<svg version="1.1" id="b1ff9bb2-7f4f-4418-907c-98d09956747d"
	 xmlns="http://www.w3.org/2000/svg" xmlns:xlink="http://www.w3.org/1999/xlink" x="0px" y="0px" viewBox="0 0 1060 664.1"
	 style="enable-background:new 0 0 1060 664.1;" xml:space="preserve">
<style type="text/css">
	.st0{fill:#444053;}
	.st1{opacity:0.1;enable-background:new    ;}
	.st2{fill:#A1616A;}
	.st3{fill:url(#SVGID_1_);}
	.st4{fill:#3F3D56;}
	.st5{fill:#462A7E;}
	.st6{opacity:5.000000e-02;enable-background:new    ;}
	.st7{fill:#6B3D8E;}
	.st8{opacity:0.1;}
	.st9{opacity:0.3;fill:#31BF97;enable-background:new    ;}
	.st10{opacity:0.8;}
	.st11{fill:none;stroke:#444053;stroke-miterlimit:10;}
	.st12{fill-rule:evenodd;clip-rule:evenodd;fill:#434244;}
	.st13{fill:#434244;}
	.st14{fill:#D0D2D5;}
</style>
<title>circles</title>
<path class="st0" d="M677,439c6.7,1.4,8-4.4,8-4.4s0.8-5.1,1.2-5.5c0.1-0.1,0.1-0.3,0.1-0.5l0,0c-0.2-0.9-0.5-1.7-1-2.4
	c-0.4-0.6-0.1-2.9-0.1-2.9l-7.8-2.2c-0.3,0.8-0.6,1.7-0.8,2.6c-0.1,0.8-1.2,4.5-1.1,5c0.1,0.5-0.5,2.1-0.6,2.9c-0.1,0.8-1,2-1.1,2.4
	c-0.1,0.4-0.3,0.8-0.4,1.1c-0.2,0.6-0.4,1.1-0.5,1.7C672.4,438.7,677,439,677,439z"/>
<path class="st1" d="M677,439c6.7,1.4,8-4.4,8-4.4s0.8-5.1,1.2-5.5c0.1-0.1,0.1-0.3,0.1-0.5l-1.6,5.2c0,0-1.3,3.1-6.3,2.7
	c-2.8-0.3-4.2-0.8-4.9-1.3c-0.2,0.6-0.4,1.1-0.5,1.7C672.4,438.7,677,439,677,439z"/>
<path class="st1" d="M682.2,430.9c0,0-1.7,0-1.8-1.5L682.2,430.9z"/>
<path class="st1" d="M688.4,386.7c0,0-6.7-3.2-8.7-0.9C677.7,388.1,688.4,386.7,688.4,386.7z"/>
<path class="st1" d="M684.6,388c0,0,6.8,4.3,4.5,5C686.8,393.7,684.6,388,684.6,388z"/>
<path class="st1" d="M664.3,384.3c0,0,2.9,0.2,1.8,0.9C664.9,385.8,664.3,384.3,664.3,384.3z"/>
<path class="st1" d="M660.6,385.3c0,0.2,8.5,3.3,6.8,4.6C665.8,391.3,660.6,385.3,660.6,385.3z"/>
<path class="st1" d="M687.4,411.5c-1.3-0.2-8.3-3.8-5.5-1.2C683.4,411.7,685.5,412.2,687.4,411.5z"/>
<path class="st1" d="M683.9,414.3c0,0-0.6,2.7-2.9,2.3C678.6,416.3,683.9,414.3,683.9,414.3z"/>
<path class="st1" d="M685.9,419.7c-0.4-0.1-5.4-2.7-5.5-1.5s4.8,3.3,5.2,2.7C685.7,420.5,685.8,420.1,685.9,419.7z"/>
<path class="st1" d="M669.6,416.6c-0.6,0-6.3-2.1-7.5-0.3L669.6,416.6z"/>
<path class="st1" d="M664.4,417.8c0,0-1-1-2-0.5C661.5,417.9,664.4,417.8,664.4,417.8z"/>
<path class="st1" d="M677.1,428.4c-0.1,0.7-0.6,1.3-1.3,1.5L677.1,428.4z"/>
<path class="st0" d="M648,432.5c0.4,1.8,5.7,1.9,8.3,1.5c2.6-0.5,7.9-2.2,7.9-2.2s5.6-0.6,7.2-1.4s0.3-2.7,0.3-2.7s0-0.1,0-0.2
	c0-0.7,0.2-3.3-0.2-4c-0.5-0.8-0.2-3.5-0.2-3.5s-7.9,1.7-8.1,0.9c-0.2-0.8-1.4-2-2-2.2c-0.6-0.3-1,2.1-1,2.1s-3.6,3.4-3.8,4.7
	c-0.2,1.2-2.8,1.9-2.8,1.9c-1.6,0.5-3.2,1.1-4.8,1.8c-0.6,0.3-1,0.9-1.1,1.7C647.8,431.3,647.8,431.9,648,432.5z"/>
<path class="st1" d="M648,432.5c0.4,1.8,5.7,1.9,8.3,1.5c2.6-0.5,7.9-2.2,7.9-2.2s5.6-0.6,7.2-1.4s0.3-2.7,0.3-2.7s0-0.1,0-0.2l-8,2
	c0,0-3.9,1.9-6.5,1.9c-2.2,0-7.1,1-9.4-0.5C647.8,431.3,647.8,431.9,648,432.5z"/>
<path class="st1" d="M658.8,425.7c0,0,0.4,2.8,1.9,3.8L658.8,425.7z"/>
<path class="st2" d="M634.3,321.7c2.3,1,7.5,1.1,9.9,1.1c0.7,0,1.2,0,1.2,0l1.5-3.4l-1.5-2.9c0,0-1.4-0.4-3.2-0.8
	c-2.7-0.5-6.4-1-8.2,0.3C631,318,631.3,320.5,634.3,321.7z"/>
<path class="st1" d="M668.9,353.2c0.9,2.2,1.7,13.1,2.2,16.5c0.7-1.4,1.6-3,1.9-3.6c0.7-1.7,1.3-3.3,1.8-5.1
	c-0.6-1.6-2.2-6.1-2.2-7.7c0-2-2.9-4.5-2.9-4.5C668.6,350,668.3,351.8,668.9,353.2z"/>
<g>
	
		<linearGradient id="SVGID_1_" gradientUnits="userSpaceOnUse" x1="1757.3245" y1="244.9181" x2="1757.3245" y2="441.0778" gradientTransform="matrix(-0.8198 0 0 1 2114.5537 0)">
		<stop  offset="0" style="stop-color:#808080;stop-opacity:0.25"/>
		<stop  offset="0.54" style="stop-color:#808080;stop-opacity:0.12"/>
		<stop  offset="1" style="stop-color:#808080;stop-opacity:0.1"/>
	</linearGradient>
	<path class="st3" d="M702,298.3c-0.2,0.6-0.4,1.1-0.7,1.7v0.1c0,0-3.3,13.7-4.9,16.5c-0.4,0.8-1,1.7-1.5,2.6c0.1,0.6,0.1,1.3,0,2
		c-0.5,3-1,7.2-0.8,8.1s-0.3,3.2,0.6,4c0.9,0.8,1.8,2.2-0.9,4c0,0-0.5,1.5-0.1,1.9c0.1,0,0,0.1-0.1,0.2c0.8,2.5,1.9,6.5,1.2,6.8
		c-0.4,0.2-1.4-0.4-2.5-1.2c0,0.2-0.1,0.3-0.1,0.5c-0.2,1.3-0.5,2.7-0.8,4c-0.5,1.2-1,3.3-0.7,4c0.3,0.7-0.7,2.2-0.5,2.8
		c0.2,0.6-0.8,2.6-0.8,2.6s-1,3.8-1,5.1c0,1.3-1.1,9.6-1.1,9.6s1.2,4.3,0.6,5.5c-0.6,1.2-1,5.5,0,7.1c1,1.6,2.2,5.1,1.8,6.1
		c-0.4,0.9,0.5,12.6-1.8,17.5c-0.3,1.8-0.5,3.6-0.7,5.4c0,1.3-1.9,4.8-1.9,4.8s1.1,5.2-1.6,6.1c-0.2,0.1-0.4,0.1-0.6,0.1
		c-0.1,0.6,0,1.2,0.2,1.7c0.5,0.7,0.8,1.6,1,2.4l0,0c0,0.2,0,0.3-0.1,0.5c-0.3,0.4-1.2,5.5-1.2,5.5s-1.2,5.8-8.1,4.4
		c0,0-4.6-0.3-4.2-2.1c0.1-0.6,0.3-1.2,0.5-1.7c0.2-0.4,0.3-0.7,0.4-1.1c0.1-0.4,1-1.6,1.1-2.5c0.1-0.8,0.7-2.4,0.6-2.9
		c-0.1-0.5,1-4.2,1.1-5c0.1-0.6,0.2-1.1,0.4-1.7l-0.2-0.1c0,0-0.6-3.9-0.1-5.3c0.5-1.4,2.7-3.3,2.7-3.3s-0.3-9.5,0.1-10.8
		s-0.2-6.2-0.2-6.2s-1.3-6.9-1.2-8.5c0-1-0.1-1.9-0.4-2.8c0,0-0.8-10.2-1.4-11.5c-0.5-1.3-1.2-13.9-1.2-13.9l-0.4,1.2
		c-0.5,1.7-1.1,3.5-1.8,5.1c-0.3,0.5-1.2,2.2-1.9,3.6l-1.1,2.1c0,0-0.5,2-0.2,3.3c0.4,1.2-3.6,8-3.6,8c0.3,0.6,0.4,1.2,0.4,1.8
		c-0.1,0.7,1.2,2.7,1.2,2.7s0.5,1.8,0.2,2.5c-0.3,0.6,0.5,4.5,0.5,4.5s1.3,8.4,1.6,9.4s-0.2,7.8-0.2,7.8s2.4,7,1.3,9.3
		c0,0.9-0.1,2.2,0.2,2.7c0.4,0.7,0.3,3.3,0.2,4c0,0.1,0,0.2,0,0.2s1.3,2-0.3,2.8c-1.7,0.8-7.3,1.4-7.3,1.4s-5.4,1.7-8,2.2
		c-2.6,0.5-8,0.3-8.4-1.5c-0.1-0.5-0.2-1.1-0.1-1.7c0.1-0.7,0.5-1.4,1.1-1.7c1.6-0.7,3.2-1.3,4.9-1.8c0,0,2.6-0.7,2.8-1.9
		s3.9-4.7,3.9-4.7s0-0.2,0.1-0.6h-0.1l0.2-0.2c0.2-0.7,0.5-1.5,0.8-1.4l0,0c0.2-0.5,0.1-1.1-0.4-1.3c0,0,0,0,0,0
		c-1.4-0.9-2.2-3.6-1.9-6.5c0.4-2.9,0.5-2.4-0.4-4.1c-0.5-1.3-0.7-2.7-0.6-4l-2.1-8.9c-0.3-1.1-0.5-2.2-0.6-3.4
		c0-0.9-0.2-1.8-0.6-2.6c0,0-1-6.2-1.8-7.6s0.6-6.4,0.6-6.4s1.3-7.7,1.2-11.3c-0.1-3.5,3.4-15.8,3.4-15.8c0.4-0.8,0.6-1.7,0.5-2.7
		c-0.1-0.7,0.3-1.9,0.8-3l0.1-0.3c-0.2-0.3-0.4-0.5-0.6-0.7c-1-0.7-1.4-2.4-1.4-3.6l13.2-34.8c0-0.1-6.1-14.1-6.1-14.2
		c0.4-2.3,3.8-8.4,3.8-8.4l0,0c0-0.1,0.1-0.1,0.1-0.2c0.8-0.4,3.4-2.1,3.4-2.1c2.1-2.8,4-3.4,5.3-3.4c0.4,0,0.8,0.1,1.2,0.2
		c0.1,0,0.3,0.1,0.4,0.2l0.1,0.6c0.1-1.3,0-2.6-0.3-3.9c0-0.1-0.1-0.2-0.1-0.3c-0.2,0-0.4,0-0.6,0c-5.2,0-9.4-4.7-9.4-10.5
		c0,0,0,0,0,0c0-1,0.1-2,0.4-2.9l0-0.2l-0.3-0.1c-1.2-0.5-2.6,0.3-3.6-0.5c-0.3-0.4-0.6-0.9-0.7-1.4c-0.3-0.7-0.4-1.4-0.5-2.2
		c0-0.1,0-0.3,0-0.4c0,0,0-0.1,0-0.1c0,0,0-0.1,0-0.1c0-0.1,0-0.1,0-0.2c0-0.1,0,0,0,0c0.1-0.5,0.2-0.9,0.5-1.3
		c0.6-0.8,1.7-1,2.4-1.6c0.6-0.6,1.2-1.2,1.6-2c0.4-0.8,0.9-1.5,1.5-2.1c0.6-0.6,1.5-0.7,2.3-0.4c0.2,0.2,0.5,0.3,0.7,0.4
		c0.3,0,0.6-0.1,0.8-0.2c2.7-1.4,5.8-1.2,8.8-0.7c1.2,0.1,2.4,0.4,3.5,0.9c1.1,0.5,2,1.5,2.3,2.8c0.2,1,0.1,2.1,0.3,3.1
		c0.2,0.7,0.6,1.3,0.8,1.9c0.1,0.3,0.2,0.7,0.2,1.1l0,0c0,0,0,0.1,0,0.1c0.1,1.5-0.4,3-0.7,4.6c-0.3,2.1-0.2,4.3-1,6.3
		c-0.1,0.2-0.2,0.5-0.3,0.7c0.3,0.7,0.6,1.3,0.9,2c0.4-0.1,1.8-0.5,1.8,0.8c0,1.1,0.2,2.1,0.6,3c0.1,0.1,0.1,0.1,0.2,0.2
		c0.1,0.1,0.2,0.2,0.2,0.4l0,0l0.2,0.1c0.1,0,0.1,0,0.2,0.1c0.1-0.2,0.4-0.2,1.2,1c1.1,1.3,2.4,2.4,3.9,3.3c0,0,5.7,4.5,6,6.5
		S703,295.3,702,298.3z M676.9,276.4C676.9,276.4,676.9,276.4,676.9,276.4L676.9,276.4L676.9,276.4z M661.3,422.7
		c0.2,0.1,0.3,0.1,0.5,0.1L661.3,422.7z"/>
	<path class="st4" d="M651,380.4c0.8,1.4,1.8,7.6,1.8,7.6c0.4,0.8,0.6,1.7,0.6,2.6c0.1,1.2,0.3,2.3,0.6,3.4l2.2,8.9
		c-0.1,1.4,0.1,2.8,0.6,4c0.8,1.7,0.7,1.2,0.3,4.1c-0.4,2.9,0.5,5.6,1.8,6.5c1.4,0.9-0.6,2.9-0.6,2.9s8.8,2.7,10.6,1s-1-9.7-1-9.7
		s0.5-6.8,0.2-7.7c-0.3-1-1.6-9.4-1.6-9.4s-0.8-3.8-0.5-4.4c0.3-0.6-0.2-2.5-0.2-2.5s-1.3-2.1-1.2-2.7c0-0.6-0.1-1.2-0.4-1.8
		c0,0,3.9-6.7,3.6-7.9c-0.3-1.2,0.2-3.3,0.2-3.3s0.5-0.9,1.1-2.1c0.7-1.4,1.6-3,1.9-3.6c0.7-1.7,1.3-3.3,1.8-5.1l0.4-1.2
		c0,0,0.6,12.6,1.2,13.9c0.6,1.3,1.3,11.4,1.3,11.4c0.3,0.9,0.4,1.9,0.4,2.8c-0.1,1.6,1.2,8.5,1.2,8.5s0.6,4.9,0.2,6.2
		c-0.4,1.3-0.1,10.7-0.1,10.7s-2.1,1.8-2.6,3.3s0.1,5.3,0.1,5.3s6.1,3.4,8.8,2.5c2.7-0.9,1.6-6.1,1.6-6.1s1.8-3.4,1.8-4.7
		c0.1-1.8,0.4-3.6,0.7-5.4c2.3-4.8,1.4-16.4,1.8-17.4c0.4-0.9-0.8-4.4-1.8-6c-1-1.6-0.6-5.9,0-7.1c0.6-1.2-0.6-5.5-0.6-5.5
		s1.1-8.3,1.1-9.6c0-1.3,1-5.1,1-5.1s1-2,0.8-2.6s0.8-2.1,0.5-2.8c-0.3-0.7,0.2-2.8,0.7-4c0.4-1.3,0.6-2.6,0.8-3.9
		c0.2-1.5,0.4-2.8,0.4-2.8l-6.3-5.7l-15.8-4.6l-6-2.2l-5.8,10.2c0,0-0.6,1.1-1.1,2.3c-0.5,1.1-0.9,2.2-0.8,3
		c0.1,0.9-0.1,1.9-0.5,2.7c0,0-3.4,12.2-3.4,15.7c0.1,3.5-1.2,11.2-1.2,11.2S650.1,379,651,380.4z"/>
	<path class="st5" d="M667.1,280.8l-0.7-0.9c0,0-3.4,6-3.8,8.3c-0.4,2.3-0.8,4.9-0.8,4.9s-0.9,3-1.4,4.3c-0.5,1-0.9,2-1.1,3.1
		c0,0.6,0.2,1.8-0.9,2.6c-1.1,0.8-1.3,3-1.3,3s-3.9,4.2-5.9,4.3c-2,0.1-7.9,1.3-7.7,2.4c0.2,1.1-2.4,1.8-3.5,2.1
		c-1.1,0.3,6.9,3.7,2.2,8.1c0,0,3,0.7,3.3,1.5s3.4-0.5,3.4-0.5s0.7-1.8,3-1.9c2.3-0.1,3.5-1.3,3.5-1.4c0-0.2,2.3-1.6,3.6-2
		s3-0.6,3-1s7.6-37.1,7.6-37.1L667.1,280.8z"/>
	<path class="st6" d="M667.4,280.8l-0.7-0.9c0,0-3.4,6-3.8,8.3c-0.4,2.3-0.8,4.9-0.8,4.9s-0.9,3-1.4,4.3c-0.5,1-0.9,2-1.1,3.1
		c0,0.6,0.2,1.8-0.9,2.6s-1.3,3-1.3,3s-3.9,4.2-5.9,4.3c-2,0.1-7.9,1.3-7.7,2.4s-2.4,1.8-3.5,2.1c-1.1,0.3,6.9,3.7,2.2,8.1
		c0,0,3,0.7,3.3,1.5c0.3,0.8,3.4-0.5,3.4-0.5s0.7-1.8,3-1.9c2.3-0.1,3.5-1.3,3.5-1.4s2.3-1.6,3.6-2c1.3-0.4,3-0.6,3-1
		c0.1-0.4,7.6-37.1,7.6-37.1L667.4,280.8z"/>
	<path class="st1" d="M657.5,341.5c0.7,0.8,1.1,1.8,1.4,2.9c0,0,4.6,3.5,4.3,1.3c-0.3-2.2,2.4-11.2,2.4-11.2l-0.3,12.2
		c0,0,14.7-0.8,15.8-2c1.1-1.2,7.3-3.5,7.3-3.5s1.9,1.7,3.7,3c0.2-1.5,0.4-2.8,0.4-2.8l-6.3-5.7l-15.8-4.6l-5.9-2.1l-5.8,10.2
		C658.6,339.2,658,340.2,657.5,341.5z"/>
	<path class="st0" d="M657,342.5c1.2,0.9,1.7,3.2,1.7,3.2s4.6,3.5,4.3,1.3c-0.3-2.2,2.4-11.2,2.4-11.2L665,348c0,0,14.7-0.8,15.8-2
		c1.1-1.2,7.3-3.5,7.3-3.5s5.4,4.9,6.4,4.4c1-0.4-1.8-8.7-1.8-8.7l-2.8-48.6c0,0,0.8-14.5-0.4-15c-0.2-0.1-0.3-0.2-0.5-0.3
		c-0.8-0.8-1-2.3-1.1-3.6c-0.1-1.5-1.9-0.8-1.9-0.8l1.1,1.5l-9.5,6.4l-0.1,0.1c-0.4-0.2-0.8-0.4-1.2-0.6c-0.8-0.4-2-0.7-2.7-0.4
		c-0.4,0.2-0.8,0.6-1,1c-0.5,0.9-1,1.9-1.3,2.9l-3.4,6.5c0,0-1.8,8.6-1.8,9s-0.5,8.2-1.2,9.1c-0.6,0.9-1.2,5.1-1,6.4
		s-0.4,6.1-0.4,6.1c-2.5,2.3-3.8,10.2-3.8,10.2s-4,8.8-4.3,9.8C655.3,339.1,655.8,341.6,657,342.5z"/>
	<path class="st1" d="M689.1,272.7c0,0-0.1-1,1.2,0.7c1.1,1.3,2.4,2.4,3.8,3.3c0,0,5.7,4.5,6,6.5s2.1,10.9,1.2,13.9
		s-8.4,17.2-8.4,17.2s1.9,2.6,1.5,5.6c-0.5,3-1,7.2-0.8,8.1s-0.3,3.2,0.6,4c0.9,0.8,1.8,2.2-0.9,4c0,0-0.5,1.5,0,1.9
		c0.5,0.3-6.8,3.9-9.6,2s-8-16.9-8.1-20.3c-0.1-3.4,1.6-14.5,2.5-17.1c0.9-2.6,3.7-12.8,4.8-15.1C684,285.1,689.1,272.7,689.1,272.7
		z"/>
	<path class="st7" d="M689.4,272.7c0,0-0.1-1,1.2,0.7c1.1,1.3,2.4,2.4,3.8,3.3c0,0,5.7,4.5,6,6.5c0.3,2.1,2.1,10.9,1.2,13.9
		s-8.4,17.2-8.4,17.2s1.9,2.6,1.5,5.6c-0.5,3-1,7.2-0.8,8.1c0.3,0.9-0.3,3.2,0.6,4c0.9,0.8,1.8,2.2-0.9,4c0,0-0.5,1.5-0.1,1.9
		c0.5,0.3-6.8,3.9-9.6,2c-2.9-1.9-8-16.9-8.1-20.3c-0.1-3.4,1.6-14.5,2.5-17.1c0.9-2.6,3.7-12.8,4.8-15.1
		C684.3,285.2,689.4,272.7,689.4,272.7z"/>
	<path class="st1" d="M676.6,274.7c0,0-2.8-2-6.4,3c0,0-2.6,1.7-3.4,2.1s-1.6,11-1.6,11s-1.7,4.6-1.2,7.2c0.5,2.6-1.3,11.6-1.3,11.6
		s-3,16.2-2.9,16.6s3-5.1,3-7.8c-0.1-2.8,2.4-11.3,2.8-11.8c0.4-0.5,2.8-15.2,2.8-15.2s2-6.2,3.3-8.3c1.3-2.1,2.9-5.9,3.5-6.6
		c0.5-0.5,1-0.8,1.6-1.1L676.6,274.7z"/>
	<path class="st7" d="M676.7,274.7c0,0-3.2-2-6.8,3c0,0-2.6,1.7-3.4,2.1s-1.6,11-1.6,11s-1.7,4.6-1.2,7.2c0.5,2.6-1.3,11.6-1.3,11.6
		s-3,16.2-2.9,16.6s3-5.1,3-7.8c0-2.8,2.4-11.3,2.8-11.8c0.4-0.5,2.8-15.2,2.8-15.2s2-6.2,3.3-8.2s2.9-5.9,3.5-6.6
		c0.6-0.5,1.2-0.9,1.9-1.1L676.7,274.7z"/>
	<path class="st2" d="M662.7,310.3c0,0-6.1-4.4-9-2.3c-2.9,2.2-7.7,5.3-3,7.6s11.2,1.8,11.2,1.8L662.7,310.3z"/>
	<path class="st1" d="M699.2,294.6l1.4,4.4c0,0-3.3,13.6-4.8,16.4s-3.8,6.5-3.8,6.5c-2.6,1.3-5.4,1.7-8.2,1.1
		c-4.4-1-17.2-3.5-17.2-3.5c-0.6,0.1-1.2-0.1-1.6-0.7c-0.6-0.9-3.5-1.4-3.5-1.4s-3.4-5.5,0.8-7.8c0,0,0.5,1.3,2.7,0.4
		c2.2-0.9,2.9,0.7,2.9,0.7s3.6,0.8,5.6,0.5s6.9-0.4,7.5-0.9c0.3-0.3,0.7-0.2,0.9,0.1c0,0,0,0,0,0c0.6-0.2,1.1-0.6,1.6-1
		c0.4-0.5,1,0.6,1,0.6s0.7-0.5,0.5-1c-0.2-0.6,0.7-2.7,0.7-2.7c0.2-0.8,0.3-1.7,0.2-2.6c-0.3-1.1,1.3-5.2,1.3-5.2
		c0-0.7-0.1-1.4-0.2-2.1c-0.3-1,1.9-3.1,1.9-3.1s2.1-11.6,6.7-7.8S699.2,294.6,699.2,294.6z"/>
	<path class="st7" d="M699.5,294.6l1.4,4.4c0,0-3.3,13.6-4.8,16.4s-3.8,6.5-3.8,6.5c-2.6,1.3-5.4,1.7-8.2,1.1
		c-4.4-1-17.2-3.5-17.2-3.5c-0.6,0.1-1.2-0.1-1.6-0.7c-0.6-0.9-3.5-1.4-3.5-1.4s-3.4-5.5,0.8-7.8c0,0,0.5,1.3,2.7,0.4
		c2.2-0.9,2.9,0.7,2.9,0.7s3.6,0.8,5.6,0.5c2-0.3,6.9-0.4,7.4-0.9c0.3-0.3,0.7-0.2,0.9,0.1c0,0,0,0,0,0c0.6-0.2,1.1-0.6,1.6-1
		c0.4-0.5,1,0.6,1,0.6s0.7-0.5,0.5-1c-0.2-0.6,0.7-2.7,0.7-2.7c0.2-0.8,0.3-1.7,0.2-2.6c-0.3-1.1,1.3-5.2,1.3-5.2
		c0-0.7,0-1.4-0.2-2.1c-0.3-1,1.9-3.1,1.9-3.1s2.1-11.6,6.7-7.8S699.5,294.6,699.5,294.6z"/>
	<path class="st1" d="M686.9,307.8c0,0,5,1.1,3.3,2.1C688.6,310.9,686.9,307.8,686.9,307.8z"/>
	<path class="st2" d="M673.8,282.6c0.2-0.1,16.9-7.8,14.6-9.3c-1.4-0.9-3-4.7-4.2-7.8c-0.8-2.1-1.3-3.8-1.3-3.8s-13.4-2.7-8.6,6.5
		c0.8,1.4,1.3,2.9,1.7,4.5C677.4,279,673.9,282.5,673.8,282.6z"/>
	<path class="st1" d="M674.3,268.2c0.8,1.4,1.3,2.9,1.7,4.5c3.5-0.3,6.5-2.7,7.9-6.2c0.1-0.3,0.3-0.7,0.4-1
		c-0.8-2.1-1.3-3.8-1.3-3.8S669.5,259.1,674.3,268.2z"/>
	<path class="st2" d="M666,262c0,5.8,4.2,10.4,9.4,10.4c3.7,0,7-2.4,8.5-6.2c0.5-1.3,0.8-2.8,0.8-4.2c0-5.8-4.2-10.4-9.4-10.4
		c-4.1,0-7.8,3.1-8.9,7.5C666.1,260,666,261,666,262z"/>
	<path class="st1" d="M677.3,277.7c0.9,1.5,3.6,3.7,3.6,3.7l7.8-7.3c-0.8-0.8-1-2.3-1.1-3.6c-0.1-1.5-1.9-0.8-1.9-0.8l0.2,0.3
		c0.4,0.6,0.3,1.5-0.2,1.9c0,0-0.1,0.1-0.1,0.1L677.3,277.7z"/>
	<path class="st0" d="M677.8,277.8c0.9,1.5,3.6,3.7,3.6,3.7l7.8-7.3c-0.8-0.8-1-2.3-1.1-3.6c-0.1-1.5-1.9-0.8-1.9-0.8l0.2,0.3
		c0.4,0.6,0.3,1.5-0.2,1.9c0,0-0.1,0.1-0.1,0.1L677.8,277.8z"/>
	<path class="st1" d="M673.7,278.5c1,1.3,2.4,2.9,2.3,2.1c-0.1-0.8,0.8-2.4,1.4-3.2c-0.9-0.3-1.9-0.3-2.8,0.1
		C674.3,277.7,673.9,278.1,673.7,278.5z"/>
	<path class="st0" d="M674.5,277c1,1.3,2.4,2.9,2.3,2.1s0.8-2,1.3-2.7c-0.8-0.4-2-0.7-2.7-0.4C675.1,276.2,674.8,276.5,674.5,277z"
		/>
	<path class="st1" d="M691,283.8c0,0-4.4,5.4-4.2,9C686.7,292.8,686.7,287,691,283.8z"/>
	<path class="st1" d="M666.4,259.1c0.1,0.1,0.3,0.2,0.5,0.2c0.7,0.2,1.4-0.3,2.1-0.8c0.6-0.4,1.5-0.8,2.1-0.2c0.7,0.7,0.2,2.3,0.9,3
		c0.5,0.5,1.2,0.3,1.8,0.7s0.7,1.2,0.8,1.9c0.1,0.7,0.4,1.5,1,1.7c0.6,0.2,1.2-0.2,1.8-0.2c0.1,0,0.3,0,0.4-0.1
		c0.1-0.1,0.1-0.2,0.1-0.3c-0.1-0.8,0-1.7,0.2-2.5c0.2-0.8,0.8-1.4,1.6-1.6c1.1-0.2,2,0.9,2.6,1.9c0.7,1,1.3,2.1,1.8,3.3
		c0,0.1,0.1,0.1,0.1,0.2c0.5-1.3,0.8-2.8,0.8-4.2c0-5.8-4.2-10.4-9.4-10.4C671.2,251.6,667.5,254.7,666.4,259.1L666.4,259.1z"/>
	<path class="st4" d="M682,262.6c-0.6-1-1.5-2-2.6-1.9c-0.7,0.2-1.3,0.8-1.6,1.6c-0.2,0.8-0.3,1.6-0.2,2.5c0,0.1,0,0.2-0.1,0.3
		c-0.1,0.1-0.2,0.1-0.4,0.1c-0.6,0-1.2,0.4-1.8,0.2c-0.6-0.2-0.9-1-1-1.7c-0.1-0.7-0.3-1.5-0.8-1.9s-1.3-0.2-1.8-0.7
		c-0.7-0.7-0.2-2.3-0.9-3c-0.6-0.6-1.4-0.2-2.1,0.2c-0.6,0.4-1.3,1-2.1,0.8c-0.2-0.1-0.5-0.2-0.7-0.3c-1.1-0.5-2.6,0.3-3.5-0.5
		c-0.3-0.4-0.6-0.9-0.7-1.4c-0.3-0.7-0.4-1.4-0.5-2.2c-0.1-0.8,0.1-1.5,0.5-2.1c0.6-0.8,1.6-1,2.4-1.6c0.6-0.6,1.2-1.2,1.5-2
		c0.4-0.8,0.9-1.5,1.5-2.1c0.6-0.6,1.5-0.7,2.2-0.4c0.2,0.2,0.5,0.3,0.7,0.4c0.3,0,0.6-0.1,0.8-0.2c2.7-1.4,5.7-1.1,8.6-0.7
		c1.2,0.1,2.3,0.4,3.4,0.9c1.1,0.5,1.9,1.5,2.3,2.8c0.2,1,0.1,2.1,0.3,3.1c0.2,0.7,0.6,1.2,0.8,1.9c0.6,1.8-0.1,3.8-0.4,5.7
		c-0.3,2.1-0.2,4.3-1,6.3c-0.2,0.4-0.3,1.1-0.7,0.8c-0.3-0.2-0.6-1.3-0.7-1.6C683.2,264.7,682.6,263.6,682,262.6z"/>
	<g class="st8">
		<path d="M677.8,261.4c0.2-0.8,0.8-1.4,1.6-1.6c1.1-0.2,2,0.9,2.6,1.9c0.7,1,1.3,2.1,1.8,3.3c0.2,0.3,0.4,1.4,0.7,1.6
			c0.4,0.3,0.6-0.4,0.7-0.8c0.8-2,0.6-4.2,1-6.3c0.3-1.2,0.5-2.4,0.7-3.7c0.1,1.5-0.4,3.1-0.7,4.6c-0.3,2.1-0.2,4.3-1,6.3
			c-0.2,0.4-0.3,1.1-0.7,0.8c-0.3-0.2-0.6-1.3-0.7-1.6c-0.5-1.1-1.1-2.2-1.8-3.3c-0.6-1-1.5-2-2.6-1.9c-0.7,0.2-1.3,0.8-1.6,1.6
			c-0.1,0.4-0.2,0.9-0.2,1.3C677.6,262.8,677.6,262.1,677.8,261.4z"/>
		<path d="M661.9,256c0.1,0.5,0.4,1,0.7,1.4c0.9,0.9,2.4,0.1,3.5,0.5c0.2,0.1,0.4,0.3,0.7,0.3c0.7,0.2,1.4-0.3,2.1-0.8
			c0.6-0.4,1.5-0.8,2.1-0.2c0.7,0.7,0.2,2.3,0.9,3c0.5,0.5,1.2,0.3,1.8,0.7s0.7,1.2,0.8,1.9c0.1,0.7,0.4,1.5,1,1.7
			c0.6,0.2,1.2-0.2,1.8-0.2c0.1,0,0.3,0,0.4-0.1c0,0,0-0.1,0-0.1c0,0.2,0,0.5,0,0.7c0,0.1,0,0.2-0.1,0.3c-0.1,0.1-0.2,0.1-0.4,0.1
			c-0.6,0-1.2,0.4-1.8,0.2c-0.6-0.2-0.9-1-1-1.7c-0.1-0.7-0.3-1.5-0.8-1.9c-0.5-0.4-1.3-0.2-1.8-0.7c-0.7-0.7-0.2-2.3-0.9-3
			c-0.6-0.6-1.4-0.2-2.1,0.2s-1.3,1-2.1,0.8c-0.2-0.1-0.5-0.2-0.7-0.3c-1.1-0.5-2.6,0.3-3.5-0.5c-0.3-0.4-0.6-0.8-0.7-1.4
			c-0.3-0.7-0.4-1.4-0.5-2.2c0-0.3,0-0.5,0-0.8C661.5,254.6,661.6,255.3,661.9,256z"/>
	</g>
</g>
<circle class="st9" cx="404.4" cy="93.7" r="15.3"/>
<circle class="st9" cx="459.1" cy="25.6" r="25.6"/>
<circle class="st9" cx="425.2" cy="149.8" r="25.6"/>
<circle class="st9" cx="963.9" cy="277.7" r="15.3"/>
<circle class="st9" cx="909.3" cy="209.6" r="25.6"/>
<circle class="st9" cx="943.2" cy="333.8" r="25.6"/>
<circle class="st9" cx="100.8" cy="305.4" r="8.6"/>
<circle class="st9" cx="137.9" cy="272.6" r="14.5"/>
<circle class="st9" cx="68.4" cy="295.1" r="14.5"/>
<circle class="st9" cx="741.8" cy="253.4" r="8.7"/>
<circle class="st9" cx="778.8" cy="220.6" r="14.5"/>
<circle class="st9" cx="709.5" cy="243.1" r="14.5"/>
<circle class="st9" cx="216.6" cy="142.3" r="36.3"/>
<circle class="st9" cx="423.6" cy="262.3" r="20.9"/>
<circle class="st9" cx="630.6" cy="398.3" r="20.9"/>
<g class="st10">
	<g>
		<g>
			<g>
				<path d="M671.3,434.5l-1.6,0l-5.9-2.7c0.4,0,0.8,0,1.3,0.1c0.7,0.1,1.6,0.2,2.5,0.3c0.9,0.2,2.1,0.4,3.4,0.7
					c2.2,0.5,3.8,0.8,4.8,0.9c1,0.2,1.9,0.2,2.5,0.2c0.6,0,1-0.1,1.2-0.2c0.1-0.1,0-0.3-0.5-0.6c-0.5-0.2-1.2-0.4-2-0.6
					c-0.8-0.1-1.6-0.2-2.4-0.2l-1-0.5c1.3,0,2.6,0.2,3.7,0.4c1.2,0.2,2.2,0.5,3,0.9c0.9,0.4,1.2,0.7,1,0.9c-0.2,0.2-0.8,0.3-1.9,0.3
					c-0.5,0-1.1,0-1.8-0.1c-0.7-0.1-1.4-0.2-2.4-0.3c-0.9-0.2-2.3-0.4-4-0.8c-1.5-0.3-2.5-0.5-2.9-0.6c-0.5-0.1-0.9-0.2-1.3-0.2
					L671.3,434.5z"/>
			</g>
			<g>
				<path d="M671.5,435.3l1.9,0l1.3,0.6l-1.9,0L671.5,435.3z"/>
			</g>
			<g>
				<path d="M677.9,436.7l1.3,0.5c-0.8,0-1.2,0.1-1.3,0.3c-0.1,0.1,0.1,0.3,0.5,0.5c0.5,0.2,1.3,0.5,2.3,0.6c1,0.2,1.9,0.3,2.9,0.3
					c0.9,0,1.5-0.1,1.7-0.2c0.2-0.2,0-0.4-0.6-0.6c-0.4-0.2-0.8-0.3-1.3-0.4c-0.5-0.1-1.1-0.2-1.6-0.3l-0.8-0.5l7.8,0.4l4.5,2.1
					l-1.6,0l-3.6-1.7l-4.1-0.2c1.1,0.3,2,0.5,2.5,0.8c0.8,0.4,1.1,0.7,0.8,0.9c-0.3,0.2-1,0.4-2.3,0.4c-1.2,0-2.5-0.1-3.9-0.3
					c-1.7-0.3-3-0.6-4-1.1c-0.8-0.4-1.1-0.7-1-0.9C676.3,436.8,676.9,436.7,677.9,436.7z"/>
			</g>
			<g>
				<path d="M688,439.9c1.6,0,3,0.1,4.2,0.2c1.2,0.1,2.3,0.3,3.2,0.5c1,0.2,1.8,0.5,2.4,0.8c0.5,0.2,0.8,0.4,0.9,0.6
					c0.1,0.2,0,0.3-0.3,0.4c-0.3,0.1-0.8,0.2-1.4,0.3c-0.7,0.1-1.6,0.1-3,0.1c-1.6,0-3-0.1-4.2-0.2c-1.2-0.1-2.3-0.3-3.2-0.5
					c-1-0.2-1.8-0.5-2.4-0.8c-0.9-0.4-1.1-0.7-0.7-1C684,440.1,685.5,439.9,688,439.9z M689.2,440.5c-2.2,0-3.5,0.1-3.9,0.2
					c-0.4,0.2-0.3,0.4,0.2,0.6c0.5,0.2,1.3,0.4,2.4,0.6c1.1,0.2,2.7,0.3,4.9,0.3c2.2,0,3.5-0.1,3.9-0.2c0.4-0.2,0.3-0.4-0.2-0.6
					c-0.5-0.2-1.2-0.4-2.2-0.6C693.1,440.6,691.4,440.5,689.2,440.5z"/>
			</g>
		</g>
		<g>
			<g>
				<path d="M884.9,533.6l-1.8,0l-7.5-3.5c0.4,0,0.9,0,1.4,0.1c0.9,0.1,1.8,0.2,2.9,0.4c1.1,0.2,2.4,0.5,4.1,0.8
					c2.6,0.6,4.5,1,5.7,1.2c1.2,0.2,2.2,0.3,2.9,0.3c0.7,0,1.1-0.1,1.2-0.3c0.1-0.2-0.2-0.4-0.8-0.7c-0.7-0.3-1.5-0.6-2.4-0.7
					c-0.9-0.2-1.9-0.3-2.8-0.3l-1.3-0.7c1.5,0,2.9,0.2,4.3,0.5c1.4,0.3,2.6,0.7,3.7,1.2c1.1,0.5,1.6,0.9,1.4,1.2
					c-0.1,0.3-0.8,0.5-2,0.5c-0.6,0-1.3,0-2-0.1c-0.8-0.1-1.7-0.2-2.8-0.4c-1.1-0.2-2.7-0.5-4.8-1c-1.8-0.4-2.9-0.6-3.5-0.7
					c-0.6-0.1-1.1-0.2-1.6-0.3L884.9,533.6z"/>
			</g>
			<g>
				<path d="M885.4,534.7l2.1,0l1.6,0.7l-2.1,0L885.4,534.7z"/>
			</g>
			<g>
				<path d="M907.8,539.8l-1.6-0.7c0.6-0.1,0.9-0.1,1-0.3c0.1-0.2-0.1-0.4-0.6-0.7c-0.5-0.2-1-0.4-1.7-0.6c-0.9-0.2-1.8-0.4-2.9-0.5
					c-1.1-0.1-2.4-0.2-3.9-0.2c1,0.2,1.9,0.3,2.8,0.6c0.8,0.2,1.5,0.5,2.1,0.7c1,0.4,1.3,0.8,1.1,1.1c-0.2,0.3-1.1,0.5-2.5,0.5
					c-0.9,0-2-0.1-3.1-0.2c-1.1-0.1-2.2-0.3-3.2-0.6c-1-0.3-1.8-0.5-2.5-0.9c-1.2-0.6-1.6-1-1.2-1.4c0.4-0.4,1.9-0.5,4.4-0.5
					c2.9,0,5.4,0.2,7.5,0.5c1.9,0.3,3.4,0.8,4.6,1.3c0.9,0.4,1.3,0.8,1.3,1C909.4,539.5,908.9,539.7,907.8,539.8z M895.5,537.1
					c-0.6,0-1.1,0.1-1.5,0.2c-0.4,0.1-0.5,0.2-0.4,0.4c0.1,0.2,0.3,0.4,0.7,0.5c0.6,0.3,1.4,0.5,2.5,0.7c1.1,0.2,2.1,0.3,3.2,0.3
					c1,0,1.6-0.1,1.8-0.3c0.2-0.2-0.1-0.5-0.7-0.8c-0.6-0.3-1.5-0.5-2.5-0.8C897.5,537.2,896.5,537.1,895.5,537.1z"/>
			</g>
			<g>
				<path d="M905.5,540.5c1.8,0,3.3,0.1,4.7,0.2c1.4,0.1,2.6,0.3,3.8,0.6c1.2,0.3,2.2,0.6,3,1c0.6,0.3,1,0.5,1.2,0.8
					c0.2,0.2,0.1,0.4-0.2,0.6c-0.3,0.1-0.8,0.3-1.5,0.3c-0.7,0.1-1.8,0.1-3.3,0.1c-1.8,0-3.3-0.1-4.7-0.2c-1.4-0.1-2.6-0.3-3.8-0.6
					c-1.2-0.3-2.2-0.6-3-1c-1.1-0.5-1.5-0.9-1.1-1.2C901.1,540.7,902.7,540.6,905.5,540.5z M907,541.2c-2.5,0-3.9,0.1-4.2,0.3
					c-0.4,0.2-0.2,0.5,0.4,0.8c0.7,0.3,1.6,0.6,2.9,0.8c1.3,0.2,3.1,0.3,5.6,0.3c2.5,0,3.9-0.1,4.3-0.3c0.4-0.2,0.2-0.5-0.5-0.8
					c-0.7-0.3-1.6-0.5-2.7-0.7C911.4,541.3,909.5,541.2,907,541.2z"/>
			</g>
		</g>
		<g>
			<path d="M577.4,396c-1.1-0.5-0.5-0.9,1.2-0.9c1.7,0,4,0.4,5.1,0.9c1.1,0.5,0.6,0.9-1.2,0.9C580.7,396.9,578.4,396.5,577.4,396z
				 M583.4,396.1c-1-0.5-3.2-0.9-4.8-0.9c-1.6,0-2.1,0.4-1.1,0.8c1,0.5,3.2,0.9,4.8,0.9C584,396.9,584.5,396.5,583.4,396.1z"/>
		</g>
		<g>
			<path d="M767.9,485.1c-1.4-0.6-0.9-1.2,1-1.2c1.9,0,4.6,0.5,6,1.2c1.4,0.6,0.9,1.2-1,1.2C772,486.3,769.3,485.8,767.9,485.1z
				 M774.7,485.1c-1.3-0.6-3.8-1.1-5.6-1.1c-1.8,0-2.2,0.5-0.9,1.1c1.3,0.6,3.8,1.1,5.6,1.1C775.6,486.2,776,485.7,774.7,485.1z"/>
		</g>
		<g>
			<path d="M1007.4,597c-1.8-0.8-1.5-1.5,0.7-1.5c2.1,0,5.3,0.6,7.1,1.5c1.8,0.8,1.5,1.5-0.6,1.6
				C1012.4,598.5,1009.2,597.9,1007.4,597z M1014.9,597c-1.7-0.8-4.7-1.4-6.7-1.4c-2,0-2.3,0.7-0.6,1.4c1.7,0.8,4.7,1.4,6.7,1.4
				C1016.3,598.4,1016.6,597.7,1014.9,597z"/>
		</g>
		<g>
			<path d="M603.2,396.3c-1.1-0.5-0.6-0.9,1.1-0.9c1.7,0,4,0.4,5.1,0.9c1.1,0.5,0.6,0.9-1.1,0.9
				C606.6,397.2,604.3,396.8,603.2,396.3z M609.3,396.3c-1-0.5-3.2-0.9-4.8-0.9c-1.6,0-2.1,0.4-1.1,0.8c1,0.5,3.2,0.9,4.8,0.9
				C609.8,397.2,610.3,396.8,609.3,396.3z"/>
		</g>
		<g>
			<path d="M1039.3,596.7c-1.8-0.8-1.5-1.5,0.6-1.5c2.1,0,5.3,0.6,7.2,1.5c1.8,0.8,1.6,1.5-0.6,1.5
				C1044.3,598.2,1041.1,597.6,1039.3,596.7z M1046.8,596.7c-1.7-0.8-4.7-1.4-6.7-1.4c-2,0-2.2,0.7-0.6,1.4c1.7,0.8,4.7,1.4,6.7,1.4
				C1048.3,598.1,1048.5,597.4,1046.8,596.7z"/>
		</g>
		<g>
			<polygon points="1054.6,602 599,392.9 599.2,392.9 1054.9,602 			"/>
		</g>
		<g>
			<polygon points="1022.5,602.3 573.3,392.7 573.6,392.7 1022.8,602.3 			"/>
		</g>
		<g>
			<polygon points="570.2,396 570,395.9 617.5,396.3 617.7,396.4 			"/>
		</g>
		<g>
			<polygon points="728.6,485.2 728.5,485.1 781.4,485.1 781.6,485.2 			"/>
		</g>
		<g>
			<polygon points="998.5,597.2 998.2,597.1 1057.2,596.5 1057.4,596.6 			"/>
		</g>
	</g>
	<g>
		<path class="st11" d="M617.5,422.2c68.2,4.2,123.4,18.2,122.5,31.1c-0.9,12.9-57.4,19.6-125.4,15.1
			c-67.2-4.4-120.5-18.2-119.8-30.9C495.4,425,550.1,418,617.5,422.2z"/>
		<path class="st11" d="M149.3,369c51.1,2.8,92.7,10.8,92.5,17.8c-0.2,7-42.1,10.2-93.1,7.3c-50.5-2.9-91.1-10.8-90.9-17.6
			C57.8,369.5,98.6,366.2,149.3,369z"/>
		<g>
			<g>
				<g>
					<path class="st12" d="M945.2,594.5c1.3,0,2.5,0,3.5,0c3.9-0.2,7.4-0.7,11.7-0.7c21.3-0.3-1.9,0,19.5-0.2c1.4,0,2.7,0,4,0
						c4.3,1.4,2,1.4-0.1,1.4c-13.9,0,16.9-0.4,3.1-0.4c-3,0-3.5,0.4-0.7,1.5c1.8,0.8,3.4,1.6,4.9,2.3c-8.4,0.3-16.2,0.5-24.8,0.8
						c18.1,8.7,36.3,17.4,55.1,26.4c-96.5,1.1-193.7,2.3-293.5,3.5c-16.3-9.2-32.2-18.2-48-27.2c-24.1,0.2-47.5,0.5-70.9,0.7
						c-23.4,0.2-46.9,0.4-70.5,0.7c-23.8,0.2-47.7,0.5-71.8,0.7c-24.1,0.2-47.7,0.7-72.4,0.5c-8.1-4.6-8.1-4.6,3.1-4.8
						c1.9,0,3.7,0,5.6-0.1c5.5-0.1,11-0.1,17.2-0.2c-6.4-2.9-6.7-5.7-14.6-8.3c-0.4-0.1-0.3-0.4-0.5-0.6c-0.6-0.7-0.8-1.4-1.7-2
						c-4.9-3.4-10-6.8-14.9-10.1c-3.1-2.1-4.3-2.4-10-2.3c-7.4,0-14.7,0.1-22.3,0.2c-22.5-15.5-43.9-30.3-64.8-44.7
						c7.9,0,15.5-0.1,23.2-0.1c2.9,0,4-0.4,2.4-1.3c-6.6-3.8-9.1-7.6-18.4-11.3c-0.4-0.2-0.5-0.4-0.7-0.6c-2.6-2.3-5.3-4.6-8-6.9
						c-8.4,0-15.6,0-22.8,0c-7.4,0-7.4,0-11.2-2.4c-0.1-0.1-0.4-0.2-1.1-0.4c-50,0.1-100.6,0.2-151.9,0.3c-0.8-0.7-1.5-1.2-2.1-1.7
						c-10.5-8.3-20.7-16.5-30.9-24.5c-2.4-1.9-1.8-2.1,3.9-2.1c38.8,0,77.3,0.1,115.6,0.1c1.6,0,3.2,0,5.2,0
						c-0.9-0.6-1.5-1.1-2.2-1.5c-12.5-8.8-24.8-17.5-36.8-25.9c-18.6-13.1-36.5-25.7-53.9-37.9c-0.4-0.3-1.5-0.6-2.3-0.9
						c-0.2-0.1-0.4-0.2-0.4-0.2c-0.1-0.3,0.1-0.7-0.4-1c-3.8-2.8-7.8-5.5-11.6-8.2c-5.6-3.9-11.2-7.8-16.6-11.7
						c-2.4-1.7-2.4-1.7,3.5-1.6c30.9,0.2,61.5,0.5,92.1,0.7c11.6,0.1,23.2,0.2,34.7,0.2c1.2,0,2-0.2,2.8-0.3
						c1.1,0.1,2.5,0.3,3.7,0.4c3.8,0.1,7.7,0.2,11.1,0.1c3.3-0.1,7.1,0.1,10.5,0.1c100.9,0.7,200.3,1.5,298,2.2
						c3.3,0,4.8,0.3,6.7,1.3c29.5,14.2,60.3,29.1,92.4,44.5c4.4,2.1,8.8,4.2,13.2,6.3c0.3,0.1,0.7,0.3,1,0.4
						c1.2,0.1,2.2,0.2,3.3,0.3c-3.6-0.1-1.5,0.7-0.3,1.3c21.2,10.2,42.9,20.7,65.4,31.5c2.1,1,2.1,1.4-1.2,1.3c-4-0.1-7.8,0-11.7,0
						c16.8,8.2,33.6,16.4,50.9,24.7c0.9,0,1.5,0.1,2,0.1c15.9,0.1,31.8,0.3,47.7,0.4c0.5,0,1.1,0,2.1,0.1c2,0.9,3.9,1.8,6,2.9
						c4.7,0-4.3-0.2-0.1-0.2c9.2-0.1-9.3,0.1,0,0c1,0,3,0.4,4.5,0.7c-0.4,0.4-0.8,0.4-1.4,0.4c-21,0-0.9,0-21.9,0.1
						c-0.6,0-1.4,0.1-2,0c-5.9-1-8.4-0.3-12.7-0.5c9.6,4.6,18.8,9.1,28.1,13.5c1.3,0.1,2.4,0.1,4.7,0.2c-1.9,0.1-2.8,0.2-3.9,0.2
						c27.5,13.3,55.8,26.9,85,41c1.5,0.1,2.7,0.1,4.7,0.2c-1.6,0.2-2.5,0.2-3.3,0.3c9.4,4.5,18.6,9,28.2,13.6
						c12-0.1,23.7-0.2,35.2-0.3c1,0,1-0.5,1.4-0.8c6.2,1.9,6.2,1.9,1.2,2.1c-3.8,0.1-7.9,0.1-11.9,0.2c-7.7,0.1-15.5,0.1-23.4,0.2
						C926,585.2,935.4,589.8,945.2,594.5z M435.4,537.4c1.6,0.1,3.3,0.3,4.8,0.3c13.1,0,26.1-0.1,39.2-0.1
						c18.3-0.1,36.5-0.2,54.7-0.2c14.7-0.1,29.4-0.1,44.4-0.2c-1.9-1.1-3.6-2-5.7-3.2c-4.1,0-8.2,0-12.4,0
						c-23.3,0.1-46.7,0.2-70.3,0.3c-18.6,0.1-37.3,0.1-56,0.2c-1.4,0-2.6,0.2-3.9,0.3c-1.4,0-2.8,0-4.2,0c-2.9-0.1-5.9-0.2-8.6-0.2
						c-12.2,0-24.4,0.1-36.6,0.1c-15.5,0.1-31,0.1-46.9,0.2c1.6,1.1,3.1,2.1,4.5,3c12.5-0.1,25-0.1,37.4-0.1c2.3,0,4.9,0.2,7.1,0.2
						c15.2,0,30.4-0.1,45.5-0.2c0.7,0,1.2-0.2,1.8-0.3C432,537.4,433.7,537.4,435.4,537.4z M352.2,418.9c2.1,1.6,4.3,3.1,9.2,4.9
						c5.6,3.2,11.5,6.5,17.6,10c6.9,0,14,0.1,21.5,0.1c-11.3-6.3-22.4-12.5-33.2-18.6c-7.4-1.1-13-0.8-19.2-0.9
						c-3.2-0.1-3.6,0.3-1.8,1.1c1.5,0.7,2.5,1.5,4.1,2.3c0.6,0.3,2,0.6,3,0.9C353,418.8,352.6,418.9,352.2,418.9z M528.3,595.6
						c1.7,0.1,3.6,0.3,5.1,0.3c14.5-0.1,29-0.2,43.4-0.4c18.6-0.2,37.2-0.3,55.6-0.5c14.1-0.1,28.2-0.3,42.3-0.4
						c6.5-0.1,6.5-0.1,2.1-2.5c-0.8-0.4-1.6-0.9-2.5-1.4c-82.9,0.7-166.6,1.4-251.8,2.2c1.9,1.2,3.7,2.5,5.9,4c3.4,0,6.9,0,10.2-0.1
						c10.1-0.2,19.9-0.5,30.1-0.6c17.2-0.1,34.6-0.1,51.8-0.2c1.5,0,2.8-0.2,4.1-0.4C525.9,595.6,527.1,595.6,528.3,595.6z
						 M685.1,506.1c-28.3,0-56.7,0.1-85.2,0.1c-0.8,0-1.5,0-2,0.2c1.1,0,2.1,0,3.2,0c28,0,55.9-0.1,83.7-0.1c1.3,0,2.4-0.1,3.6-0.1
						c1.2,0.1,2.7,0.4,3.6,0.4c14.8,0,29.5,0,44.5-0.1c-17.3-8.5-34.1-16.7-50.8-24.8c-7.2,0-14.3,0-21.4,0c-4.7,0-9.5,0-14.1,0
						c-4.2,0.1-8.1,0.2-12.5,0.3c7.2,3.6,12.3,7.2,21.1,10.4c12.3,4.5,18.3,9,28.8,13.5c0.2,0.1,0.5,0.2,0.8,0.2
						C687.3,506.2,686.1,506.1,685.1,506.1z M202.9,428.8c7.6,0,16.1,0.3,23.5-0.1c0.8,0.1,2.4,0.4,3.7,0.4c2.8,0.1,5.5,0,8.2,0.1
						c0.3,0,0.6,0,0.7,0c3-0.7,8.7,0.1,12.4-0.2c0.9-0.1,1.8-0.5,1.4-0.8c-3-2-6.3-4-9.7-6.1c-9.6,0-19-0.1-28.3-0.1
						c-0.2-0.1-0.3-0.2-0.5-0.3c9.3,0,18.6,0.1,28.4,0.1c-2.7-1.7-5-3.1-7.4-4.6c-4.3-2.7-8.6-5.3-12.9-8c-7.1-4.4-14.3-8.8-21-13.2
						c-1.7-1.1-3.6-1.3-6.6-1.3c-14.6-0.1-29.3-0.2-44-0.3c-5.7,0-11.5-0.1-17.2-0.1c-16.7-0.1-33.5-0.1-50.3-0.2c-0.6,0-1.1,0-2,0
						c1.8,1.3,3.6,2.5,5.4,3.8c1.1,0.8,3.1,0.8,4.9,0.7c1,0,1.9-0.1,2.8-0.2c0.4,0.1,0.8,0.2,1.2,0.3c-0.6,0.1-0.9,0.4-1.7,0.4
						c-5.5-0.1-5.5-0.1-3.4,1.4c0.6,0.4,1.3,0.9,2,1.4c13.9,0.1,27.5,0.2,41.7,0.3c9.3,6.3,18.7,12.5,28.1,18.8
						c10.3,0.3,19.4-0.1,29.7,0.4c0.2,0.1,0.3,0.2,0.5,0.3c-9.7,0-19.3-0.1-29.3-0.2c3.2,2.2,6.2,4.2,9.5,6.3
						c0.4,0.2,2.5,0.7,3.5,0.7c2.7,0.1,5.2,0.1,7.7,0c0.7,0,0.8-0.3,1.4-0.4c0.4-0.1,1.1,0,1.7,0c0.7,0.7,2.3,0.7,3.9,0.7
						c3,0,5.8,0,8.9,0.1c2.6,0.1,2-0.4,1.2-0.9C201.4,428.4,202.1,428.6,202.9,428.8z M440.2,418.1c-4.5,0-9.2-0.1-13.7-0.1
						c-0.8,0-1.6,0.3-1.3,0.5c3.2,1.8,6.6,3.6,10.1,5.4c0.1,0.1,0.8,0.1,1.8,0.3c-2.7,0-4.8,0-7.3,0c-3.2-1.8-6.4-3.5-9.6-5.2
						c-1.1-0.6-2.2-1.2-3.4-1.8c-1.4-0.7-2.3-1.6-4.3-2.1c-1.3-0.3-4.3-0.2-6.7-0.3c-2.2-0.1-4.7-0.1-6-1.1
						c-1.1-0.8,0.7-0.9,2.9-0.9c1.9,0,3.8,0,5.9,0c-10.4-5.6-20.5-11.1-30.6-16.5c-22-0.2-43.9-0.3-66.3-0.5c1,0.7,1.7,1.4,2.9,2.1
						c7.7,4.4,15.7,8.9,23.5,13.4c1.6,0.9,3,1.1,5.9,1.1c6.4,0,13.1,0.1,19.5,0.1c4.4,0,8.7,0.1,13.8,1.1c-1.3,1-5.1,1.2-10.3,0.8
						c0.3,0.1,0.6,0.2,0.9,0.3c5.4,0,10.8,0.1,16.6,0.1c-1.1-0.6-2.2-1.3-3.3-2c0.1,0,0.3,0,0.4,0c1.3,0.7,2.6,1.4,4.2,2.3
						c-5.8,0-11.7-0.1-18-0.1c0.9,0.5,1.6,0.9,2.3,1.3c9.4,5.3,18.9,10.6,28.7,16c1.1,0.6,1.3,1.3,5.1,1.8c1.7,0.3,2.9,1.4,4.3,2.1
						c-6.3,1.4-17,0.6-25.7,0.7c-3.7,0.1-7.6,0-11.7,0c-0.3-0.2-0.9-0.5-1.4-0.8c0.4,0,0.6,0,0.9,0.1c1.1,0.2,2.5,0.5,3.3,0.5
						c9.7,0.1,19.3,0.1,28.9,0.1c-0.3-0.3-0.6-0.6-1-1c-1.4,0-2.7-0.1-3.8-0.1c-30.8-0.1-61.7-0.3-92.9-0.4c-1.6,0-4.2-0.1-5.3-0.4
						c-1.7-0.5-3-1.2-1.1-1.5c0.4-0.1-0.6-0.6-1.1-0.9c-3.1-1.9-6.1-3.7-9.4-5.7c16.5,0.1,32.7,0.2,49,0.2
						c-14.7-8.6-29-16.9-43.1-25.1c-15.6-0.1-31.3-0.2-47.3-0.3c-3.6-2.2-6.9-4.2-10.4-6.3c-10.2-0.1-20.1-0.1-30.5-0.2
						c0.5,0.3,1.1,0.7,1.7,1.1c7.5,4.7,15.1,9.4,23,14.2c1.6,1,2.2,1.7-2.8,1.3c4.8,3,9.4,5.9,14.2,8.9c4.3-0.1,6.1,0.6,7.8,1.8
						c6.4,4.1,13.2,8.3,19.9,12.4c0.6,0.4,0.9,1,0.2,1.1c-1.8,0.2-4.3,0.4-6-0.9c-2.1,0-4,0-5.9,0c-24.2-0.1-48.5-0.2-72.9-0.3
						c-2.3,0-4.2,0.2-6.5,0.2c-2.3,0-5-0.4-7.3-0.4c-8.8-0.1-17.5-0.1-26.4-0.1c-5.4-0.1-5.9,0.2-3.3,1.8c0.7,0.4,1.2,0.8,1.9,1.3
						c8.1,0,15.8,0.1,24,0.1c15.9,10.8,32.2,21.9,49.1,33.5c6,0,11.4,0,16.9,0c0.1,0,0.2,0,0.4,0c7.4-0.2,7.4-0.2,3.6-2.8
						c-8.1-5.4-16.1-10.7-23.9-16c-0.6-0.4-1.2-0.8-1.9-1.3c27.3,0.1,54.2,0.2,81.4,0.2c0.8,0.5,1.5,0.9,2.3,1.4
						c9.1,5.7,18.4,11.4,27.7,17.3c1.7,1.1,3,1.3,6.4,1.3c7-0.1,14.4,0,21.8,0c3.9,2.4,7.5,4.6,11.3,6.9c29.1,0,57.8,0,87.1,0.1
						c-0.9-0.5-1.7-1-2.6-1.5c-15.4-8.8-30.4-17.4-45.1-25.7c-4.4-2.5-4.4-2.5,3.5-2.5c6.2,0,12.3,0,19.1,0.1
						c-1.8-0.7-3.1-1.3-4.5-1.8c1.6,0,4,0,6.7,0c0.7,0.3,1.4,0.7,2,1c3.5,1.9,7,3.8,10.3,5.8c0.9,0.5,0.6,1,0.9,1.5
						c0.2,0.3,0.6,0.6,1.1,0.9c4,2.2,7.2,4.5,12.2,6.7c13,5.7,21.3,11.5,34.2,17.5c15.1,0,30.4,0,46.1,0
						c-21.2-11.5-41.9-22.6-62-33.5c3.2,0,6.1,0,8.1,0c0.1,0.3-0.2,0.8,0.6,1.3c2.2,1.4,5.1,2.7,7.5,4.1c1.5,0.8,3,1.1,5.5,1.1
						c6.7,0,13.5,0,20.4,0c1,0.5,1.8,0.9,2.5,1.2c14.3,7.4,28.9,14.9,43.7,22.6c1.6,0.8,2.8,1.2,5.7,1.2c37.9,0,75.7,0.1,113.2,0.1
						c5,0,10,0,15.2,0c-29.8-14.4-58.2-28.2-85.9-41.6c-1.3,0-2.6,0-3.9,0c-47.1-0.2-94.5-0.4-142.3-0.6c-2.2,0-5.1-0.2-1.6,1.1
						c10,0,20.1,0.1,30.3,0.1c0.8,0.4,1.5,0.8,1.9,1c-1.9-0.1-3.8-0.3-5.5-0.3c-5.5-0.1-10.8,0-16.3-0.1c-5.2-0.1-10.5-0.3-16.1-0.4
						c-2.5-1.4-4.8-2.5-6.7-3.7c-0.4-0.3,0.3-0.7,1.1-0.7c9.4-0.1,19-0.1,28.4-0.1c1.6,0,2.9-0.2,4.4-0.4c3,1.2,3,1.3-1.3,1.3
						c-7.7,0-15.4-0.1-23.1-0.1c-1.2,0-2.2,0-2.8,0.3c50.2,0.2,100,0.4,149.5,0.6c-26.4-12.8-52-25.2-76.8-37.3
						c-39.8-0.3-79.7-0.6-120.2-0.9c0.2,0.2,0.3,0.4,0.7,0.5c5.7,3,11.3,6,17.2,9.1c7.3,3.8,15,7.6,22.5,11.4
						c0.2,0.1-0.8,0.2-1.2,0.3c-13.7-7.2-27.1-14.3-40.4-21.3c-7.2-0.1-14.2-0.1-21.5-0.2c12.9,6.9,26.1,14,39.7,21.3
						c7.4,0,14.8,0.1,22.2,0.1C444.1,418,442.3,418.1,440.2,418.1z M735.5,586.3c-1.2-0.7-2.3-1.3-3.6-2.1c7-0.1,14-0.1,21.4-0.2
						c1.4,0.7,2.7,1.3,4.4,2.1c50.4-0.4,100.3-0.8,149.6-1.2c6.5,3.2,12.8,6.2,19.2,9.3c0.2,0,0.4,0,0.6,0
						c-5.8-2.8-11.5-5.6-17.2-8.4c0.2,0,0.5,0,0.7,0c5.8,2.8,11.7,5.7,17.8,8.7c1.8,0,3.2,0,5.3,0c-22-10.2-39.4-20.1-61.6-29.9
						c-11.7,0.1-22.8,0.1-34.5,0.2c-5.5-2.7-10.9-5.4-16.4-8.1c-2.4,0-4.2,0-5.9,0c-0.2-0.1-0.5-0.2-0.7-0.3
						c1.8-0.1,3.5-0.1,5.4-0.2c-5-2.5-9.9-4.9-15-7.4c-2.5,0-4.6,0-6.8,0c-0.2-0.1-0.4-0.2-0.6-0.3c2.1,0,4.3,0,6.5,0
						c-4-2-7.6-3.8-11.3-5.6c-3.7-1.8-7.4-3.7-11.1-5.5c-3.6-1.8-7.3-3.5-10.6-5.3c-2.9-1.6-6.4-3.1-9.1-4.7
						c-2.9-1.7-7.3-3.4-11.3-5.2c-1,0-2.2-0.1-4.6-0.2c1.8-0.1,2.7-0.2,4-0.3c-7.6-3.8-15.2-7.5-22.9-11.3c-10.4,0-20.3,0-30.6,0.1
						c3.8,1.9,7.6,3.8,11.7,5.9c-24.1,0.1-47.9,0.1-72.1,0.2c-4-2.1-8-4.2-12.2-6.4c23.3,0,46.4-0.1,69.5-0.1
						c-1.9-0.6-3.6-1.2-5.6-1.8c-1.9,0-4.3,0-6.6,0c0.2,0.5,0.5,1,0.7,1.6c-0.4,0-0.8,0-1.3,0c-1.5-0.5-3-1-4.7-1.6
						c-2,0-4.4,0-6.3,0c-0.1,0.5-0.3,1-0.4,1.5c-1.7-0.4-3.3-0.9-5.6-1.5c-1.6,0-3.9,0-6.3,0c0.3,0.5,0.5,1,1,1.8
						c-2.4-0.8-3.8-1.3-5.3-1.8c-2.2,0-4.4,0-6.5,0c0,0.5,0,1.1,0.1,1.6c-1.8-0.5-3.7-0.9-6.1-1.6c-1.6,0-4,0-6.4,0
						c0.5,0.5,1,1,1.9,2c-3.2-0.9-5.1-1.4-7.3-2c-2,0-4.3,0-6.7,0c0.7,0.5,1.3,1,2.5,1.9c-3.3-0.8-5.4-1.2-8.2-1.9c-1,0-3,0-5.2,0
						c0.3,0.5,0.7,1,1.1,1.6c-0.3,0-0.6,0-1,0c-1.5-0.5-2.9-1-4.6-1.6c-2.4,0-5,0-7.4,0c0.3,0.5,0.9,1.1,0.5,1.5
						c-0.1,0.1-2.7-0.3-4.3-0.7c4.2,1.6,0.5,1.4-3.6,1.2c-1.4-0.8-2.8-1.5-4.3-2.3c2,0,3.7-0.1,6.1-0.1c-0.9-0.5-1.8-1-2.7-1.4
						c-6.3-3.4-12.6-6.8-19-10.1c-1.1-0.6-3.3-1.1-4.8-1.7c-1-0.4-1.9-0.8-2.6-1.1c-6.6-3.5-13-7-19.5-10.4c-0.8-0.4-1.5-0.8-3-1.6
						c-17.3,0-34.3,0-51.4,0c-0.5,0-0.9,0-1.4,0.1c-5.5,0.5-5.5,0.5-1.6,2.7c12.4,6.9,25,14,37.9,21.2c0.8,0.5,2.3,0.9,4,1.6
						c0,0.1,0,0.4-0.1,0.9c9.5,0,18,0,27,0c19.3,10.6,38.8,21.3,59.1,32.5c2.1,0,3.7,0.1,5.4,0.1c0.1,0.1,0.2,0.1,0.3,0.2
						c-1.4,0.1-2.9,0.1-4.3,0.2c4.2,3.1,11.9,6.9,14.6,7.4c0.2,0.4,0,0.9,0.7,1.3c9.7,5.4,19.6,10.8,29.8,16.4
						c0.8,0.4,2.8,0.8,3.8,1.1c0,0.3-0.5,0.7,0.2,1.1c4.1,2.4,8.5,4.7,13,7.2c1.4,0.1,2.6,0.1,5,0.2c-1.8,0.2-2.8,0.3-3.7,0.4
						c6.4,3.5,12.9,7.1,19.6,10.8C712.1,586.5,723.7,586.4,735.5,586.3z M672.4,589.8c-32.1-18-62.8-35.3-92.6-52
						c-78.8,0.3-158.7,0.7-239.9,1c3,2,5.9,4,8.6,5.7c2.6,0.6,4.7,1,6.9,1.5c-0.1,0.1-0.2,0.3-0.3,0.4c-1.1,0.1-2.3,0.1-3.6,0.2
						c6.3,4.2,12.5,8.4,18.5,12.4c2.5,0.5,4.8,1,7.1,1.5c0.1,0.2,0.2,0.3,0.3,0.5c-4.6-0.1-3.7,0.7-2,1.9
						c5.3,3.4,10.3,6.9,15.6,10.4c1.3,0.9,2.1,2,6.3,1.9c0.4,0,1.8,0.5,2,0.7c0.2,0.2-0.6,0.4-0.8,0.6c-0.3,0.4-1.2,0.9-0.6,1.4
						c5.3,3.7,10.8,7.4,16.6,11.1c1,0.6,3.8,1.2,5.8,1.8c0.4-0.1,0.8-0.1,1.3-0.2c0.3,0.5,0.6,1,0.9,1.3
						C507.1,591.2,590.2,590.5,672.4,589.8z M304.8,481.5c-76.4,0-154.4-0.1-233.6-0.1c10.8,8.5,22,17.4,33.7,26.7
						c40.8-0.1,81.5,0,121.6-0.2c39.8-0.2,78.9-0.6,118.4-0.9C334.1,498.5,320.9,490.1,304.8,481.5z M422.8,511
						c-17.2,0-34.3,0-51.5,0.1c-21.8,0-43.6,0.1-65.5,0.1c-5.7,0-5.7,0-2.8,2c1.3,0.9,2.6,1.8,4,2.7c1,0.6,1,1.4,4.6,1.7
						c0.5,0,1.4,0.7,2.3,1.1c-1.3,0.1-2.4,0.2-3.7,0.3c5.7,3.8,11.4,7.6,17.3,11.6c1.2,0.1,2.5,0.1,4.1,0.2c0.6,0.4,1.2,0.8,1.9,1.3
						c-1.2,0.1-2.3,0.1-3.4,0.2c2.6,2.3,2.6,2.3,8.8,2.2c20-0.1,39.9-0.2,59.8-0.2c35.3-0.1,70.5-0.3,105.4-0.4
						c21.2-0.1,42.3-0.2,63.3-0.2c1.5,0,3,0,4.7,0c-13.8-7.8-27.2-15.3-40.5-22.7c-25.8,0.1-52,0.1-78.5,0.2
						c0.4,0.4,0.8,0.8,1.2,1.2c-7.9,0-15.7,0-23.5,0c-0.1-0.1-0.2-0.1-0.4-0.2c7.5,0,15.1,0,22.6,0c0-0.1,0-0.3,0-0.4
						c-1.2-0.2-2.7-0.7-3.5-0.7c-7,0-13.8,0-20.6,0c-0.9,0-1.2,0.4-1.4,0.5C425.9,511.3,424.1,511,422.8,511z M964.8,599.1
						c-92.8,0.9-187,1.8-283,2.7c13.7,7.7,27.6,15.6,42,23.8c97.9-1.1,194.2-2.2,289.2-3.3C996.7,614.4,980.7,606.8,964.8,599.1z
						 M357.8,507.7c3.4,0.1,6.9,0.3,10.1,0.3c50.2-0.1,100-0.2,149.5-0.2c2.7,0,5.5-0.2,8.2,0.2c2.2,0.3,4.5,1.4,7.5,2.2
						c-1.4-0.8-2.4-1.7-4.4-2.4c-2-0.7-5-1.3-7.4-1.8c3.5-0.4-2.2-1.7-2.6-2.8c-23.3,0-46.1,0.1-69.1,0.1c-0.3-0.2-0.6-0.3-0.9-0.5
						c22.8,0,45.6-0.1,68.7-0.1c-1.1-0.6-2-1.1-2.8-1.6c-0.9-0.5-1.7-1-2.9-1.6c-22.6,0-45.1,0-67.8,0.1c-0.2-0.1-0.4-0.2-0.7-0.4
						c1.4,0,2.7,0,4.1,0c19.7,0,39.3-0.1,59,0c3.6,0,4.3-0.3,2-1.6c-8.2-4.5-16-8.9-23.9-13.3c-0.8-0.5-2.5-0.9-3.4-1.4
						c-0.6-0.3-0.5-0.7-0.9-1.1c-54.1,0-108.5,0-164.4-0.1c8.5,5.4,17.2,10.9,25.9,16.5c1.3,0.8,2.7,1.1,5.1,1.1
						c17.5,0,35,0,52.5-0.1c7.3,0,14.6,0,21.9,0c0.2,0.1,0.4,0.2,0.5,0.3c-25.7,0-51.5,0.1-77.2,0.1c0,0.2-0.1,0.2,0,0.3
						c5.4,3.6,3.8,2.9,13.1,2.9c6.3,0,12.1-0.3,18.4-0.3c17.3,0,34.8,0.2,52.1,0.3c0,0,0.2,0.1,1.3,0.4c-26.3,0-52.3,0.1-78.7,0.1
						C353.4,504.9,355.5,506.2,357.8,507.7z M313.7,472.7c-20.3,0-40.6,0-61-0.1c-1.5,0-3.1,0-5-0.2c1.1,0,2.2-0.1,3.4-0.1
						c19.6,0,39.1,0,58.5,0.1c5.3,0,10.6,0,16.1,0c-11.5-7.2-22.6-14.1-33.7-21c-26.3-0.1-52.6-0.1-79.4-0.2
						c9,6,18.1,12.1,27.5,18.3c2.1,0,4.1,0,6,0c0.1,0.1,0.3,0.2,0.4,0.2c-2,0-3.9,0-6.1,0c3.7,2.5,7.3,4.8,11,7.3
						c27.3,0,54.5,0,81.6,0.1c-2.2-1.4-4.4-2.8-6.7-4.1c-0.4,0-0.8,0-1.2,0c1.4,0.9,2.7,1.8,4.3,2.6c1.9,1,1.6,1.4-1.9,1.4
						c-23.4-0.1-46.7-0.1-70.1-0.1c-1.2,0-2.6-0.1-3.8-0.2c-0.1-0.1-0.3-0.2-0.4-0.3c25.6,0,51,0,76.6,0.1
						C324.7,472.7,324.7,472.7,313.7,472.7z M534.1,508.3c-2.4,0-2.9,0.3-1.4,1.1c2.9,1.6,5.6,3.1,8.4,4.7
						c39.9,22.3,82,45.9,126.6,70.8c1,0.6,2.1,1.2,3.3,1.9c9.1-0.1,17.7-0.1,27-0.2c-50.3-27.7-97.6-53.7-142.3-78.3
						C548.1,508.3,541.2,508.3,534.1,508.3z M867.3,564.2c3.2,0,1.6-0.7-0.1-1.5c-9.5-4.6-18.9-9.1-28.2-13.6
						c-26.2-12.7-51.6-25-76.3-37c-1.1-0.5-2.2-1.1-3.4-1.7c-10.2,0-20.1,0-30.3,0.1c34.7,17.2,71,35.1,109.3,54
						C848.2,564.3,857.7,564.3,867.3,564.2z M170.3,431.1c-1.1-0.7-2.8-1.5-2.8-2c0-0.4,2.6-0.5,4.4-0.7
						c-11-7.4-22.3-14.9-33.3-22.3c-13.3-0.1-26.4-0.2-39.9-0.3c11.7,8.2,23.7,16.5,36.2,25.2C146.8,431,158.3,431.1,170.3,431.1z
						 M225.4,477.9c-20.3-13.8-39.7-27.1-58.6-40c-7.6,0-15.1-0.1-22.8-0.1c18.4,12.9,37.5,26.2,57.5,40.1
						C209.5,477.8,217.3,477.8,225.4,477.9z M476.7,478c-1.5-0.8-2.9-1.6-4.3-2.4c-1.5-0.9-3.6-1.7-1.7-2.3c0.4-0.1-0.6-0.7-1.3-1
						c-3.7-2.1-7.4-4.2-11.3-6.3c-1.3-0.7-3.4-1.3-5-1.9c0-0.2,0.6-0.5,0.1-0.8c-4.6-2.7-9.4-5.3-14.1-7.9c-0.3-0.2-0.9-0.3-1.3-0.5
						c-0.4,0-0.7,0-1.1,0c5.2,2.9,10.4,5.8,15.7,8.8c-0.4,0-0.9,0-1.3,0c-7.8-4.3-15.4-8.6-23.2-13c-6.7,0-13,0-19.6-0.1
						c15.6,8.9,31.7,18,48.3,27.4C463.3,478,469.8,478,476.7,478z M490.2,453.3c15,8.1,30.3,16.3,46.1,24.7c7.7,0,15.4,0,23.4,0
						c-15.8-8.4-31.3-16.5-46.7-24.7C505.3,453.4,497.9,453.3,490.2,453.3z M328.1,555.5c8.6,0,17.2-0.1,26.4-0.1
						c-5.6-3.2-7.9-6.6-16.1-9.7c-0.8-0.9-1.2-1.8-2.6-2.8c-3-2.2-6.4-4.4-9.8-6.7c-8.7,0-17.1,0.1-26.1,0.1
						c4.2,2.9,8.2,5.7,12.6,8.6c0.5,0.3,3.5,0.8,4.8,0.8c6.2,0.1,12.3,0,18.9,0.3c-7.2,0-14.4,0.1-21.8,0.1
						C319,549.3,323.5,552.3,328.1,555.5z M181.3,434.3c27.4,0.1,54.5,0.2,81.7,0.3c-1.9-1.2-3.7-2.3-5.6-3.5
						c-26.9-0.1-53.9-0.2-81.3-0.4C177.8,432,179.5,433.2,181.3,434.3z M682,595c-83.1,0.7-167.2,1.5-252.7,2.3
						c1.1,1.6,3.8,1.9,7.6,1.8c42.9-0.4,85.6-0.8,128-1.2c38.5-0.4,76.7-0.7,114.7-1c1.8,0,3.5,0,5.6-0.1
						C683.9,596.2,683.1,595.7,682,595z M305.6,396.1c-7-0.1-14-0.1-21.1-0.2c5.9,3.4,11.7,6.8,17.8,10.4c7,0,14,0.1,21.4,0.1
						C317.5,402.9,311.6,399.5,305.6,396.1z M352.3,422.8c-7.4,0-14.6-0.1-21.9-0.1c6.4,3.7,12.6,7.3,19,11c7.4,0,14.6,0.1,22.2,0.1
						C365,430,358.7,426.4,352.3,422.8z M302.9,406.6c6,3.5,11.9,6.9,18.1,10.5c7.1,0,14.2,0.1,21.5,0.1c-6.1-3.5-12.2-7-18.3-10.5
						C316.9,406.7,310,406.7,302.9,406.6z M641.3,493.6c8.1,4.1,15.9,8.1,23.9,12.2c6.8,0,13.7,0,20.7,0c-8-4-15.8-8-24-12.1
						c-3.2,0.3-8.7-0.5-9.8,0.7C647.2,493,645.6,494.1,641.3,493.6z M584.8,483.9c-3.2-1.7-3.2-1.7-8.2-1.7c-1.8,0-3.5,0-5.5,0
						c7.1,3.7,14,7.4,21.2,11.2c6.8,0,13.6,0,20.7,0c-7.1-3.7-14.2-7.4-21.4-11.1c-2.9,0-5.7,0-8.9,0c6.6,3.4,13.2,6.9,19.9,10.4
						c-0.3,0-0.7,0-1,0C596,489.7,590.4,486.8,584.8,483.9z M256.5,395.7c3.3,1.9,6.5,3.9,9.9,5.9c8.8,0.1,17.8,0.1,26.8,0.2
						c-3.4-2-6.7-3.9-10.1-5.9C274.2,395.8,265.5,395.7,256.5,395.7z M320.1,433.6c9.4,0,18.7,0.1,28.4,0.1
						c-3.3-1.9-6.5-3.8-9.9-5.7c-0.4-0.2-2.5-0.7-3.3-0.7c-8.6-0.1-17.1-0.1-26-0.2C313,429.4,316.5,431.4,320.1,433.6z M695,510.3
						c-11.2,0-22.3,0-33.7,0.1c3.6,1.9,7.4,3.8,11.3,5.8c11.2,0,22.4-0.1,33.9-0.1C702.6,514.1,698.9,512.2,695,510.3z M625.3,510.4
						c3.7,1.9,7.3,3.8,11.1,5.9c11.3,0,22.5-0.1,34-0.1c-3.7-1.9-7.4-3.8-11.3-5.9C647.8,510.3,636.8,510.3,625.3,510.4z
						 M342.7,565.8c4.4,2.3,5.2,4.7,12.2,7c0.2,0-0.6,0.1-1.5,0.1c1.2,0.8,2.5,1.7,4,2.8c7.8-0.1,15.7,0,23.2-0.2c1.3,0,2-1,1.3-1.5
						c-3.7-2.7-7.9-5.5-12.2-8.3C360.6,565.7,352,565.7,342.7,565.8z M342.3,565.3c8.8-0.1,17.4-0.1,26.5-0.2
						c-3.9-3.1-10.9-6.1-12.9-9.2c-9.4,0.1-18,0.1-27,0.2C333.4,559.1,337.8,562.2,342.3,565.3z M133.7,402.6
						c-13.2-0.1-26.4-0.2-39.8-0.3c1.3,0.9,2.6,1.8,4,2.8c13.2,0.1,26.4,0.2,40,0.3C136.4,404.5,135.1,403.6,133.7,402.6z
						 M239.5,395.5c-2.1,0-2.3,0.2-1.4,0.8c2.5,1.5,4.7,2.9,7.4,4.4c0.5,0.3,2.7,0.8,3.6,0.8c5.4,0.1,10.6,0.1,16.1,0.1
						c-3.4-2-6.6-3.9-10-6C249.8,395.6,244.7,395.6,239.5,395.5z M309.6,428c-0.5-0.3-2.8-0.8-3.8-0.8c-4.8-0.1-9.6-0.1-14.2-0.1
						c-0.9,0-1.5,0.5-1.1,0.8c2.4,1.6,5.1,3.2,8,4.8c0.5,0.3,2.6,0.8,3.4,0.8c5.7,0.1,11.3,0.1,17.3,0.1
						C315.9,431.6,312.9,429.8,309.6,428z M241.8,471.4c-8.2,0-16.2,0-24.5,0c2.7,1.9,5.5,3.7,8.4,5.7c8.1,0,16.2,0,24.7,0
						C247.4,475.1,244.6,473.3,241.8,471.4z M325.3,471.4c2.8,1.7,5.4,3.4,8.4,5.1c0.4,0.2,2.7,0.6,3.7,0.6c7.1,0.1,14.1,0,21.5,0
						c-3.1-1.9-6.2-3.8-9.4-5.8C341.5,471.5,333.7,471.4,325.3,471.4z M722.2,596.5c-5.8-3.2-11.3-6.2-17.2-9.4
						c-5.9,0-11.7,0.1-17.3,0.2c-0.8,0-1.1,0.7-0.5,1c4.7,2.7,9.8,5.5,15,8.4C709.2,596.6,715.6,596.5,722.2,596.5z M725.1,596.4
						c6.6-0.1,13.1-0.1,20-0.2c-5.3-2.9-10.5-5.7-15.9-8.5c-0.6-0.3-3.1-0.8-4-0.8c-5.7,0-11.3,0.1-17.4,0.1
						C713.8,590.2,719.3,593.2,725.1,596.4z M793.4,595.8c6.5-0.1,12.9-0.1,19.8-0.2c-5.5-2.8-10.8-5.7-16.4-8.5
						c-0.6-0.3-3.1-0.8-4-0.8c-5.7,0-11.2,0.1-17.2,0.1C781.8,589.6,787.5,592.6,793.4,595.8z M768,596c-5.5-2.9-10.8-5.8-16.3-8.6
						c-0.5-0.3-3-0.7-4-0.7c-4.9,0-9.7,0-14.2,0.1c-1,0-1.4,0.8-0.7,1.2c4.7,2.7,9.8,5.3,15.1,8.2C754.7,596.2,761.1,596.1,768,596z
						 M755.8,586.6c-0.9,0-1.1,0.7-0.4,1.1c4.2,2.3,8.7,4.7,13.1,7.1c1.6,0.9,3.2,1.3,5.7,1.3c5.3-0.1,10.7-0.1,16.3-0.2
						c-6-3.2-11.9-6.3-18-9.5C766.9,586.5,761.2,586.5,755.8,586.6z M859.2,595.2c-5.7-2.9-11.1-5.7-16.8-8.4
						c-0.6-0.3-3.1-0.8-4-0.8c-5.8,0-11.3,0.1-17.1,0.1c6.3,3.2,12.1,6.2,18.3,9.4C846.1,595.3,852.4,595.3,859.2,595.2z
						 M835.9,595.4c-5.6-2.9-11.1-5.7-16.9-8.6c-0.5-0.3-3.1-0.7-4-0.7c-4.8,0-9.6,0-14.1,0.1c-1,0-1.3,0.8-0.6,1.2
						c4.9,2.6,10.1,5.3,15.7,8.2C822.8,595.5,829,595.5,835.9,595.4z M329.5,422.1c7.2,0,14.3,0.1,21.9,0.1
						c-2.4-1.4-4.8-2.8-7.3-4.2c-0.3-0.2-1.8-0.5-2.3-0.5c-6.8-0.1-13.5-0.1-20.3-0.1C324.3,419.1,326.8,420.6,329.5,422.1z
						 M595.5,493.8c7.6,4,15.1,8,22.9,12.1c3.4,0,6.8,0,10.5,0c-7.7-4-15.3-8-23.1-12.1C602.3,493.8,599.1,493.8,595.5,493.8z
						 M630,493.8c7.7,4,15.4,7.9,23.4,12c3.4,0,6.8,0,10.4,0c-7.8-4-15.6-8-23.5-12C636.7,493.8,633.4,493.8,630,493.8z
						 M582.3,493.8c-3.6,0-6.8,0-10.4,0c7.5,4,14.9,8,22.6,12.1c3.4,0,6.8,0,10.5,0C597.3,501.8,589.8,497.8,582.3,493.8z
						 M596.3,494.9c-1.1-0.6-2.9-1.2-5.4-1.1c-2.2,0.1-4.7,0-7.3,0c7.6,4,15.1,8,22.8,12.1c3.4,0,6.8,0,10.8,0
						C610.2,502.1,603.3,498.5,596.3,494.9z M618.2,493.8c7.7,4,15.3,8,23.2,12c3.4,0,6.8,0,10.2,0c-1.6-1.4-18.4-9.9-23.8-12
						C624.4,493.8,621.5,493.8,618.2,493.8z M816.4,536.7c18.1,8.7,36.5,17.7,55.3,26.8c5.8,0.2,5.8,0.2,2.2-1.6
						c-16.7-8.1-33.1-16-49.2-23.8c-0.9-0.4-1.8-0.8-3.1-1.4C819.6,536.7,818.2,536.7,816.4,536.7z M610,485.2
						c5.2,2.7,10.4,5.4,15.8,8.2c3.6,0,7,0,10.6,0c-7.2-3.7-14.4-7.4-21.7-11.1C603.8,482,603.8,482,610,485.2z M648.2,493.4
						c-7.4-3.7-14.6-7.4-21.6-11c-0.4-0.1-0.8-0.1-1-0.1c-10.3-0.2-10.3-0.2-4.1,3c5.2,2.7,10.5,5.4,16,8.2
						C641.4,493.4,644.7,493.4,648.2,493.4z M585.3,490.3c-4.4-2.3-8.8-4.6-13-6.9c-1.7-0.9-3.3-1.3-6.1-1.2c-2,0.1-4.3,0-6.8,0
						c7,3.7,14,7.4,21.1,11.2C591.8,493.7,591.8,493.7,585.3,490.3z M602.7,482.3c-10.6-0.3-10.6-0.3-4.3,2.9
						c4.4,2.3,9,4.6,13.3,6.9c2,1.1,3.8,1.5,6.9,1.4c1.9-0.1,4.1,0,6.4,0c-7.3-3.8-14.4-7.4-21.5-11.1
						C603,482.3,602.8,482.3,602.7,482.3z M640.1,505.9c-7.8-4.1-15.6-8.1-23.3-12.1c-3.3,0-6.3,0-9.5,0c7.6,4,15.2,7.9,23.2,12.1
						C633.7,505.9,636.8,505.9,640.1,505.9z M649.4,493.4c3.2,0,6.2,0,9.9,0c-1.4-0.7-2.8-1.4-4.2-2.1c-5.2-2.6-10.5-5.2-15.4-7.8
						c-2-1-3.8-1.4-6.5-1.3c-1.6,0.1-3.5,0-5.8,0C634.8,486,642,489.6,649.4,493.4z M569.5,493.4c3.2,0,6.3,0,10,0
						c-1.5-0.8-3-1.6-4.5-2.4c-4.7-2.5-9.6-5-13.9-7.5c-2.1-1.2-4-1.5-7.1-1.4c-1.5,0.1-3.3,0-5.5,0
						C555.5,486,562.4,489.7,569.5,493.4z M537.9,512.9c-0.5,0.6,141,80.5,149.7,83.8C634.3,566.9,584.5,539.1,537.9,512.9z
						 M689.1,482.6c15.7,7.7,31.6,15.5,47.8,23.4c3.1,0.2,5.1,0.2,2.7-1c-15.5-7.5-30.5-14.9-45.4-22.1c-0.2-0.1-0.5-0.2-0.9-0.3
						C691.8,482.6,690.5,482.6,689.1,482.6z M883.2,585.5c-4.8,0-9.5,0-13.9,0.2c-0.9,0-1.1,0.7-0.4,1.1c3.7,2,7.7,4,12.1,6
						c0.9,0.4,4,1.1,5.1,1.2c4.8,0.1,9.2,0,14-0.1C894.2,591,888.9,588.3,883.2,585.5z M874.7,594.1c1,0,1.6-0.7,0.8-1.1
						c-3.8-2.1-8-4.1-12.3-6.2c-0.8-0.4-3.1-0.7-4.8-1.1c-0.1,0-0.3,0-0.4,0c-14.6-0.3-14.6-0.3-4.3,4.9c2.2,1.1,4.5,2.3,7.1,3.6
						C866,594.2,870.6,594.2,874.7,594.1z M921.2,593.6c-5.6-2.7-11-5.4-16.9-8.3c-4.5,0-9.2,0-13.5,0.2c-0.7,0-0.6,0.7,0.1,1.1
						c4.5,2.3,9.3,4.6,14.4,7.1C910.8,593.7,915.8,593.7,921.2,593.6z M170.6,431.5c-11.9-0.1-23.8-0.1-35.6-0.2c1,1.6,2.4,2,7.8,2
						c10.1,0,20.3,0.1,30.7,0.1C172.4,432.7,171.6,432.2,170.6,431.5z M319,487.9c6.8,4.2,13.5,8.5,20.1,12.8
						c2.1,1.4,4.2,1.8,7.9,1.5c-8.3-5.3-16.6-10.6-24.9-15.8C317.5,486.1,316.9,486.6,319,487.9z M300.2,534.7
						c-0.5,0.2-1,0.5-2.2,1.1c9.8,0,18.2-0.1,27.2-0.1c-1.3-0.9-2.4-1.8-4.2-2.7c-0.9-0.4-3.6-1-4.9-1c-7.4-0.1-14.7,0-22.4,0
						C295.8,533.1,295.2,534.3,300.2,534.7z M587,423.4c-5.4-2.6-10.9-5.2-16.4-7.9c-1,0-2.5-0.1-3.4,0c-0.7,0.1-1.2,0.4-0.8,0.6
						c5.7,2.8,11.7,5.7,17.6,8.6C590.1,424.9,590.1,424.9,587,423.4z M651,457.1c6,0.3,6.2,0.2,2.9-1.3c-5.9-2.9-11.8-5.7-17.8-8.6
						c-1.9,0-3.6,0-5.6,0C637.4,450.4,644.2,453.7,651,457.1z M680.2,468.4c-6.8-3.3-13.3-6.5-20.1-9.7c-2.7-1.2-4.6-0.6-7.2-0.8
						c7.2,3.5,14.2,6.9,21.6,10.4C676.5,468.4,678.1,468.4,680.2,468.4z M563.2,414.5c5.7,0.2,5.8,0.2,2.8-1.2
						c-4.4-2.1-8.8-4.3-13.2-6.4c-2.9-1.4-3.2-1.5-7.9-1.3C550.9,408.5,557,411.5,563.2,414.5z M684.4,588.4c-0.8-0.4-3.4-1-4.6-1.1
						c-6.6-0.5-7.5,0.1-3.7,2.3c4.2,2.4,8.5,4.7,12.8,7.2c3.7,0,6.8-0.1,10.5-0.1C694.2,593.8,689.4,591.1,684.4,588.4z
						 M226.2,477.5c0.1,0.1,0.2,0.2,0.4,0.3c44.8,0,89.3,0.1,133.5,0.1c-0.1-0.1-0.3-0.2-0.4-0.3C315.5,477.6,271,477.6,226.2,477.5
						z M1017.2,624.7c-0.1-0.1-0.2-0.1-0.3-0.2c-94.3,1.1-190.2,2.2-287.6,3.4c0.1,0.1,0.1,0.1,0.2,0.2
						C826.9,627,922.8,625.8,1017.2,624.7z M1014.4,623.4c-0.1-0.1-0.2-0.1-0.3-0.2c-94.2,1.1-190,2.2-287.3,3.3
						c0,0.1,0.1,0.1,0.1,0.2C824.2,625.6,920.1,624.5,1014.4,623.4z M123.8,424.6c-5.8-0.4-6.2-0.2-4.1,1.3c2.7,1.9,5.4,3.8,8.1,5.7
						c2.2,1.5,2.2,1.5,8,1.5C131.7,430.2,127.7,427.4,123.8,424.6z M788.4,523.2c8.1,3.9,16.2,7.8,24.6,11.9c1.6,0,3.2,0,5.1,0
						c-8.2-4-16.4-7.9-24.6-11.9C791.7,523.2,790.2,523.2,788.4,523.2z M166.6,454.5c-6.1-0.3-6.4-0.2-4,1.5c2.9,2,5.8,4.1,8.7,6.1
						c2.4,1.7,2.6,1.7,8.3,1.5C175.1,460.5,170.8,457.4,166.6,454.5z M106.4,416.6c2.8,2,5.7,4,8.5,6c1,0.7,2.2,1,4.7,1
						c2.6,0,2.2-0.4,1.4-1c-3.5-2.4-7-4.9-10.5-7.3C104.5,415.1,104.4,415.1,106.4,416.6z M98.1,406.6c-0.4-0.2-2.5-0.7-3.2-0.7
						c-1.1,0-2.1,0.3-2.6,0.5c-0.3,0.2,0.5,0.5,0.9,0.8c2.5,1.8,5,3.5,7.5,5.3c2.2,1.6,2.2,1.6,8.1,1.5
						C105.1,411.5,101.7,409,98.1,406.6z M152.9,444.9c-0.4-0.3-2.8-0.8-3.4-0.8c-1.2,0.1-2.7,0.3-2.6,0.7c0.1,0.5,1.3,1.1,2.1,1.6
						c2.4,1.7,4.8,3.3,7.2,5c2.5,1.7,2.5,1.7,8.6,1.6C160.7,450.3,156.9,447.6,152.9,444.9z M138.9,435.1c-0.5-0.3-2.5-0.7-3.7-0.9
						c-2.2-0.2-3.2,0.1-2.4,0.7c3.4,2.5,6.9,5,10.7,7.5c0.3,0.2,3,0.6,4.2,0.6c0.9,0,1.9-0.4,1.6-0.7c-1.5-1.2-3.5-2.5-5.2-3.7
						C142.3,437.4,140.8,436.3,138.9,435.1z M350.8,547c-5.2-0.3-5.9,0-3.6,1.5c4.3,2.9,8.9,5.8,12.9,8.8c2.1,1.5,4.5,2,8.9,1.9
						C362.7,555.1,356.7,551,350.8,547z M389,572.5c-5.3-3.6-10.6-7.1-15.9-10.6c-4.9-0.4-5.4,0.4-3.8,1.6c5,3.5,10.4,7,15.7,10.6
						C392.1,574.6,392.2,574.6,389,572.5z M323.7,532.8c3.8,2.6,7.6,5.1,11.4,7.7c1,0.7,2.1,1.4,3.1,2.1c2.5,1.6,3.6,1.9,8.4,1.7
						c-5.7-3.8-11.4-7.6-17.1-11.5C327.6,532.8,326,532.8,323.7,532.8z M391.9,578.7c4.3,2.9,8.6,5.8,13.1,8.8
						c0.9,0.6,2.7,1.2,4.4,1.8c0.9,0.3,2.7,0.4,3.5,0.4c0.6,0,0.7-0.6,0.3-0.9c-5.8-3.9-11.6-7.8-17.4-11.7
						C389.2,576.7,389.1,576.8,391.9,578.7z M306.2,521.1c4.5,3,9.1,6.1,13.8,9.3c2.2,0,3.8,0,5.7,0c-5.5-3.7-10.8-7.2-16.1-10.8
						C304.2,519.3,303.9,519.5,306.2,521.1z M909.5,580c-9.9-4.8-19.5-9.4-29.3-14.1c-1.2,0-2.5-0.1-3.9-0.1
						c9.8,4.7,19.5,9.4,29.6,14.3C907.3,580,908.3,580,909.5,580z M206,394.9c6,0,11.9,0.1,17.7,0.1c0.8,0,1.2-0.5,0.8-0.8
						c-0.4-0.3-2.5-0.8-3.2-0.8c-5.9-0.1-11.7-0.1-17.8-0.2C204.3,393.8,205.1,394.3,206,394.9z M526.2,506.4
						c-14.9-8.3-29.1-16.3-43-24.1C482.9,483,521.8,505,526.2,506.4z M487.3,480.5c4.6,0.8,46.3,0.8,47.4,0
						C518.8,480.6,503.3,480.6,487.3,480.5z M741.5,505.2c0.2,0,0.4,0,0.6,0c-15.4-7.5-30.6-14.9-45.5-22.1c-0.2,0-0.4,0-0.6,0
						C710.9,490.3,726.1,497.7,741.5,505.2z M968.9,595c2.1,1,4.1,2,6.4,3c4.5,0,9-0.1,13.8-0.1c-2.1-1-4.1-2-6.4-3
						C977.9,595,973.5,595,968.9,595z M595.8,507.3c-8.4-4.5-16.7-9-25.3-13.6c-0.8,0.2-1.7,0.3-1.5,0.4c8.4,4.5,17,9.1,25.6,13.8
						c0.4,0,0.9,0.1,1.3,0.1C595.9,507.7,596.3,507.5,595.8,507.3z M789.2,509.6c4.2,0,8.3,0,12.8,0c-1.5-0.7-3-1.4-4.7-2.2
						c-4.2,0-8.4,0-12.7,0C786.1,508.1,787.6,508.8,789.2,509.6z M870.4,563.7c0.1,0,0.2,0,0.3,0c-28.7-13.9-56.5-27.4-83.5-40.4
						c-0.1,0-0.2,0-0.3,0C813.9,536.4,841.7,549.8,870.4,563.7z M911.7,579.3c-9.3-4.5-18.6-8.9-27.8-13.4c-0.1-0.1-0.6-0.1-0.9-0.2
						c-1.1,0.5,19.9,11.1,29.2,14.6C911.9,579.9,912.2,579.6,911.7,579.3z M756.3,586.1c-0.9-0.5-1.7-1-2.5-1.4
						c-0.7-0.1-1.3-0.2-1.7-0.2c-4.8,0-9.5,0.1-14.4,0c-3.7-0.1-4.9,0.3-0.8,1.8C743.5,586.2,749.8,586.2,756.3,586.1z M547.6,481.7
						c0.1,0,0.2,0.1,0.2,0.1c30.2,0,60.2,0,90,0c-0.1,0-0.3-0.1-0.4-0.1C607.7,481.8,577.7,481.7,547.6,481.7z M689.5,507.6
						c0.1-0.1,0.1-0.2,0.2-0.3c-1.2-0.2-2.8-0.6-3.6-0.6c-5.9,0-11.7,0-17.4,0c-0.7,0-0.6,0.4-0.9,0.7c0.5,0.1,0.9,0.2,1.4,0.2
						C675.9,507.6,682.7,507.6,689.5,507.6z M544.8,481.8c-0.2,0-0.5,0-0.7,0c7.7,4.1,15.4,8.3,23.2,12.5c0.2,0,0.5,0,0.7,0
						C560.2,490,552.5,485.9,544.8,481.8z M876.3,562.5c0.1,0,0.2,0,0.4,0c-17.6-8.5-34.8-16.8-51.7-24.9c-0.1,0-0.2,0-0.3,0
						C841.5,545.7,858.7,554.1,876.3,562.5z M481.9,433.6c-0.1-0.1-0.3-0.1-0.4-0.2c-9.6,0-19.2-0.1-28.8-0.1
						c0.1,0.1,0.3,0.1,0.4,0.2C462.8,433.5,472.4,433.5,481.9,433.6z M614.9,506.8c-6.6,0-6.6,0-4.9,1c3.4,0,6.8,0,10.7,0
						C618.8,506.4,616.6,506.8,614.9,506.8z M317.2,487.4c-0.1,0-0.2,0-0.4,0c7.4,4.7,14.8,9.5,22.4,14.3c0.1,0,0.2,0,0.4,0
						C332.1,496.8,324.6,492.1,317.2,487.4z M632.6,507.8c0-0.1,0-0.2,0-0.3c-1.2-0.2-3-0.6-3.6-0.6c-2.7,0.1-8-0.6-7.8,1
						C625.6,507.8,629.1,507.8,632.6,507.8z M608.5,507.8c0.1-0.1,0.1-0.2,0.2-0.3c-1.2-0.2-3-0.7-3.5-0.7c-2.6,0.2-8.6-0.7-7.9,1
						C601.5,507.8,605,507.8,608.5,507.8z M655.5,507.7c-2.1-1-2.3-1.1-5.2-1c-2.3,0.1-7.4-0.7-5.9,1
						C648.8,507.7,652.1,507.7,655.5,507.7z M657.2,506.7c-0.9,0-1.1,0.4-1.6,0.6c0.4,0.1,0.9,0.2,1.3,0.4c3.5,0,7,0,10.8,0
						C664.5,506.6,662.9,506.5,657.2,506.7z M903.8,594.6c0.2,0,0.5,0,0.7,0c-5.9-2.9-11.7-5.8-17.5-8.6c-0.3,0-0.5,0-0.8,0
						C892,588.8,897.9,591.7,903.8,594.6z M634.7,506.8c-1,0-1.4,0.4-2,0.6c0.4,0.1,0.8,0.2,1.3,0.4c3.2,0,6.5,0,10.5,0
						C639.6,506.2,637.5,506.9,634.7,506.8z M861.2,594.8c0.2,0.1,0.4,0.2,0.6,0.3c6.4-0.1,12.9-0.1,19.3-0.2
						c-0.2-0.1-0.4-0.2-0.6-0.3C874.1,594.6,867.7,594.7,861.2,594.8z M882.6,594.5c0.2,0.1,0.4,0.2,0.6,0.3
						c6.4-0.1,12.8-0.1,19.2-0.2c-0.2-0.1-0.4-0.2-0.6-0.3C895.4,594.4,889,594.5,882.6,594.5z M905.7,594.3
						c0.2,0.1,0.4,0.2,0.6,0.3c6.4-0.1,12.8-0.1,19.1-0.2c-0.2-0.1-0.4-0.2-0.6-0.3C918.5,594.2,912.1,594.2,905.7,594.3z
						 M547.9,482.5c-0.1,0-0.2,0-0.4,0c6.6,3.5,13.3,7.1,20,10.7c0.1,0,0.2,0,0.4,0C561.1,489.6,554.5,486,547.9,482.5z
						 M907.8,585.8c-0.2,0-0.5,0-0.7,0c5,2.5,10.1,4.9,15.2,7.4c0.2,0,0.5,0,0.7,0C917.9,590.8,912.8,588.3,907.8,585.8z M220.2,393
						c-0.1-0.1-0.2-0.1-0.3-0.2c-4.8,0-9.5-0.1-14.3-0.1c0.1,0.1,0.2,0.1,0.3,0.2C210.6,393,215.4,393,220.2,393z M489,437.7
						c-0.1,0-0.1-0.1-0.2-0.1c-9.3,0-18.7-0.1-28-0.1c0,0,0,0.1,0,0.1C470.2,437.6,479.6,437.6,489,437.7z M589.4,424.1
						c0.1,0,0.2,0,0.3,0c-5.5-2.7-11-5.3-16.4-7.9c-0.1,0-0.2,0-0.3,0C578.4,418.8,583.9,421.5,589.4,424.1z M472.3,473.3
						c0.1,0,0.2,0,0.3,0c-5.4-3-10.8-6-16.1-9c-0.1,0-0.2,0-0.3,0C461.5,467.2,466.8,470.2,472.3,473.3z M662,459
						c-0.1,0-0.2,0-0.3,0c5.9,2.8,11.8,5.7,17.8,8.6c0.1,0,0.3,0,0.4,0.1C673.9,464.7,667.9,461.8,662,459z M553.5,406.7
						c-0.1,0-0.2,0-0.3,0c5,2.4,10.1,4.8,15.1,7.3c0.1,0,0.2,0,0.3,0C563.5,411.5,558.5,409.1,553.5,406.7z M817.7,534.3
						c0.1,0,0.2,0,0.4,0c-6.7-3.2-13.3-6.4-19.9-9.6c-0.2,0-0.3,0-0.5-0.1C804.3,527.8,811,531,817.7,534.3z M639.7,448.3
						c-0.1,0-0.2,0-0.3,0c5.5,2.6,10.9,5.3,16.5,7.9c0.1,0,0.2,0,0.3,0C650.6,453.5,645.2,450.9,639.7,448.3z M338.4,543.8
						c0.1,0,0.3,0,0.4,0c-5.2-3.5-10.3-6.9-15.4-10.4c-0.1,0-0.3,0-0.4,0C328.1,536.8,333.2,540.3,338.4,543.8z M693.8,597.3
						c-1.1,0.3-2.3,0.5-2.7,0.9c-0.2,0.2,1,0.9,1.6,1c1.9,0.3,3.8,0.5,5.9,0.7C696.9,599,695.7,598.4,693.8,597.3z M382.6,573.5
						c0.1,0,0.3,0,0.4,0c-5.4-3.6-10.7-7.2-16-10.8c-0.1,0-0.3,0-0.4,0C371.9,566.3,377.2,569.9,382.6,573.5z M359.8,558.2
						c0.1,0,0.3,0,0.4,0c-5.1-3.5-10.2-6.9-15.3-10.3c-0.1,0-0.3,0-0.4,0C349.5,551.3,354.6,554.7,359.8,558.2z M317.6,529.8
						c0.1,0,0.3,0,0.4,0c-4.7-3.2-9.4-6.3-14-9.4c-0.1,0-0.3,0-0.4,0C308.2,523.5,312.9,526.6,317.6,529.8z M405.2,588.7
						c0.1,0,0.3,0,0.4,0c-5.4-3.6-10.8-7.3-16.1-10.8c-0.1,0-0.3,0-0.4,0C394.4,581.5,399.7,585.1,405.2,588.7z M433.3,601.3
						c0.5,0.4,3,0.8,5.4,1.4c-1.1-1.2-1.7-1.9-2.4-2.7C431.9,599.5,432.2,600.4,433.3,601.3z M355.2,508.2c-1,0.6-1.6,1-2.2,1.3
						c1.8,0.4,3.6,0.8,5.4,1.2c0-0.1,0-0.3,0-0.4C357.7,509.8,356.8,509.3,355.2,508.2z M753.3,587.4c-0.1,0-0.2,0-0.4,0
						c5.1,2.7,10.3,5.5,15.5,8.3c0.1,0,0.3,0,0.5,0C763.7,592.9,758.5,590.1,753.3,587.4z M859.6,594.8c0.1,0,0.3,0,0.4,0
						c-5.4-2.7-10.8-5.5-16.2-8.2c-0.2,0-0.3,0-0.5-0.1C848.7,589.3,854.1,592.1,859.6,594.8z M798.1,586.9c-0.1,0-0.3,0-0.4,0
						c5.4,2.8,10.8,5.6,16.2,8.4c0.1,0,0.3,0,0.4,0C808.8,592.5,803.4,589.7,798.1,586.9z M745.8,595.9c0.1,0,0.3,0,0.4,0
						c-5.3-2.8-10.5-5.7-15.7-8.5c-0.1,0-0.3,0-0.4,0C735.3,590.3,740.5,593.1,745.8,595.9z M700,596.3c0.1,0,0.3,0,0.4,0
						c-5.1-2.8-10.2-5.7-15.3-8.5c-0.1,0-0.3,0-0.4,0C689.8,590.7,694.8,593.5,700,596.3z M836.2,595c0.1,0,0.2,0,0.3,0
						c-5.4-2.8-10.8-5.5-16.1-8.3c-0.1,0-0.2,0-0.3,0C825.4,589.5,830.8,592.2,836.2,595z"/>
				</g>
				<g>
					<path class="st12" d="M429,605.4c-1.9,0.5-2.9,1.1-4.8,1.1c-5.4,0.2-11.1,0.2-16.8,0.2c-1,0-2.2-0.1-3.4-0.1
						c1.2-0.4,2.2-0.8,3.2-1.1c-0.6-0.2-1.1-0.3-1.7-0.5c-1,0.3-2.1,0.5-3.9,1C402.2,604.4,421.2,604.1,429,605.4z M411.8,606.3
						c4.2,0.1,8.2,0,12.1-0.1c1,0,1.3-0.5,1.9-0.8c-1.3-0.2-2.8-0.6-3.8-0.6c-4.7,0-9.3,0.1-13.9,0.1c-0.1,0.2-0.2,0.4-0.4,0.5
						C409.1,605.8,410.8,606.3,411.8,606.3z"/>
				</g>
				<g>
					<path class="st12" d="M352.2,418.9c5.8,0.6,5.8,0.6,12.5,3.4c-0.2-0.5-0.3-0.8-0.3-0.9c2.7,0.1,5.2,0.1,7.7,0.2
						c-0.2-0.1-0.3-0.2-0.5-0.4c-2.7-0.3-5.5,0.6-7.9-0.8c-1.7-1-5.9-2.2-3.4-3c-3.1-0.4-3-0.3-3.2,0.3c-0.3,0.6,0.4,1.4-3.8,1
						C353,418.8,352.6,418.9,352.2,418.9z"/>
				</g>
				<g>
					<path class="st12" d="M296.8,447.1c0.1,0.2-0.1,0.4,0.2,0.6c11.8,7.3,23.8,14.7,36.3,22.4c8.6,0,17.1,0,25.9,0
						c-13.1-7.9-25.9-15.7-38.4-23.2c-7.1,0-14.3-0.1-21.5-0.1C298.4,446.9,297.6,447,296.8,447.1c7.9,0.1,15.8,0.1,23.6,0.1
						c12.4,7.5,24.8,15,37.4,22.7c-8.1,0-16,0-24.2,0C321.1,462,308.8,454.5,296.8,447.1z"/>
				</g>
				<g>
					<path class="st12" d="M227.4,423.6c2.8,0.7,5.6,1.3,8.4,2c-0.5,1.2-6.4,1.4-13.4,0.5c0.9,0.4,1.8,0.8,2.7,1.1
						c4.2-0.4,6.8-0.2,12.7,0.8c-0.1-0.6-0.3-1.2-0.3-1.8C237.4,425.1,231.6,423.6,227.4,423.6z"/>
				</g>
				<g>
					<path class="st12" d="M195.2,424.6c0.5,0.4,1.4,0.8,1.5,1.1c0.1,0.3-0.2,0.6-0.8,0.6c-3.7,0-7.6-0.2-11.4-0.3
						c1,0.6,1.9,1.2,2.9,1.9c1.6-0.5,2-1.3,5.9-1c1.8,0.1,3.7,0.4,5.5,0.6c-0.2-0.5,0-1-0.7-1.5C197.7,425.5,196.3,425,195.2,424.6z
						"/>
				</g>
				<g>
					<path class="st12" d="M182.8,423.9c3.3,0,6.6,0,9.9,0.1C187.6,422.7,182.7,422.7,182.8,423.9z"/>
				</g>
				<g>
					<path class="st12" d="M124.3,422.2c-2.1-1.4-4.1-2.9-6.2-4.3c0.4,0.1,0.8,0.1,1.2,0.2c0.7-0.3,1.3-0.6,2-0.9
						c-0.4-0.1-0.7-0.2-1.1-0.3c-1,0-1.9,0.1-3,0.1c-0.4-0.3-0.7-0.5-0.9-0.6c2,0.2,3.9,0.3,5.9,0.4c0.4,0.3,1,0.7,1.5,1
						c-2.1-1.8,3.9-0.9,6.9-1.2c-0.4-0.3-0.8-0.6-1.1-0.9c-3.7-0.6-7.7,0.7-10.7-1.4c0.4,0.3,0.7,0.7,1.1,1.1
						c-1.4,0.1-2.9,0.1-4.3,0.2c-0.3-0.1-0.5-0.2-0.8-0.3c1,0,2-0.1,3.5-0.2c-0.9-0.4-1.9-0.8-3-1.3c-0.6,0.2-1,0.3-1.8,0.5
						c-2.2-1.5-4.1-2.8-6-4.2c-0.2,0-0.4,0-0.7,0c5.6,3.9,11.3,7.8,17,11.8C124,422.2,124.2,422.2,124.3,422.2z"/>
				</g>
				<g>
					<path class="st12" d="M159.3,422.8c-6.4-4.3-12.8-8.6-19.1-12.8c-0.1,0-0.3,0-0.4,0c6.3,4.2,12.6,8.5,19,12.8
						C159,422.8,159.1,422.8,159.3,422.8z"/>
				</g>
				<g>
					<path class="st12" d="M160.9,422c-5.6-3.7-11.1-7.5-16.6-11.1c-0.1,0-0.2,0-0.4,0c5.5,3.7,11,7.4,16.6,11.1
						C160.7,422,160.8,422,160.9,422z"/>
				</g>
			</g>
			<g>
				<g>
					<path class="st13" d="M343.9,518.5l-36,0.1l0.9,0.6l34.2-0.1c2.4,1.8,12.5,10.4-17.9,11.3l1.1,0.6c18.3-0.6,22.3-3.9,22.4-6.6
						c0.1-2.9-4-5.6-4.1-5.7L343.9,518.5z"/>
				</g>
			</g>
			<g>
				<g>
					<path class="st13" d="M370.2,436.6l31.8,0.1l0.9,0.5l-30.1-0.1c2.8,1.4,17.4,8.3,46.4,9l0.8,0.5c-17.4-0.4-30-3.1-37.4-5.2
						c-8-2.3-11.8-4.5-11.9-4.5L370.2,436.6z"/>
				</g>
			</g>
			<g>
				<g>
					<path class="st13" d="M258.2,411.6l-31.3-0.2l0.8,0.5l29.7,0.2c1.9,1.3,9.8,7.7-16.7,8.2l0.9,0.5c15.9-0.3,19.7-2.7,20.1-4.7
						c0.4-2.1-2.9-4.1-3-4.2L258.2,411.6z"/>
				</g>
			</g>
			<g>
				<g>
					<path class="st13" d="M489.9,437.2l-31.3-0.1l0.9,0.5l29.7,0.1c2.4,1.4,12.6,8.2-13.6,8.7l1.1,0.5c15.8-0.3,18.7-2.9,18.3-5
						c-0.4-2.3-4.4-4.4-4.6-4.5L489.9,437.2z"/>
				</g>
			</g>
			<g>
				<g>
					<path class="st13" d="M462.9,423.8l-30.8-0.2l0.9,0.5l29.2,0.1c2.3,1.4,12.1,7.9-13.8,8.4l1,0.5c15.6-0.3,18.5-2.8,18.2-4.8
						c-0.3-2.2-4.2-4.2-4.3-4.3L462.9,423.8z"/>
				</g>
			</g>
		</g>
		<g>
			<g>
				<path d="M108.3,382.7l-1.7,0l-4.4-2.9c-0.2,0.1-0.6,0.2-1.1,0.3c-0.5,0.1-1,0.2-1.4,0.2l-0.7-0.4c0.8-0.1,1.3-0.2,1.8-0.4
					c0.4-0.2,0.7-0.3,0.7-0.5l1.1,0L108.3,382.7z"/>
			</g>
			<g>
				<path d="M113.5,382.8l-0.8-0.5l1.9,0l0.8,0.5L113.5,382.8z"/>
			</g>
			<g>
				<path d="M115.1,381c-0.7-0.4-1-0.8-1.1-1.1c-0.1-0.3,0.1-0.5,0.5-0.6c0.4-0.1,1.1-0.2,2.1-0.2c0.7,0,1.4,0.1,2.1,0.1
					c0.7,0.1,1.3,0.2,1.9,0.4c0.6,0.2,1.1,0.3,1.7,0.6c0.5,0.2,1.1,0.5,1.6,0.9c0.7,0.4,1,0.8,1.1,1.1c0.1,0.3-0.1,0.5-0.5,0.6
					c-0.4,0.1-1.1,0.2-2.1,0.2c-1.3,0-2.5-0.1-3.7-0.4C117.3,382.2,116.1,381.7,115.1,381z M116.8,381c0.9,0.6,1.8,1,2.6,1.2
					c0.8,0.2,1.6,0.3,2.4,0.3c0.8,0,1.3-0.1,1.5-0.3c0.2-0.2-0.1-0.6-1.1-1.2c-0.9-0.6-1.8-1-2.6-1.2c-0.8-0.2-1.6-0.3-2.4-0.3
					c-0.8,0-1.2,0.1-1.4,0.2C115.5,380,115.8,380.4,116.8,381z"/>
			</g>
			<g>
				<path d="M125.6,381.1c-0.7-0.4-1-0.8-1.1-1.1c-0.1-0.3,0.1-0.5,0.5-0.6c0.4-0.1,1.1-0.2,2.1-0.2c0.7,0,1.4,0.1,2.1,0.1
					c0.7,0.1,1.3,0.2,1.9,0.4c0.6,0.2,1.1,0.3,1.7,0.6c0.5,0.2,1.1,0.5,1.7,0.9c0.7,0.4,1,0.8,1.1,1.1c0.1,0.3-0.1,0.5-0.5,0.6
					c-0.4,0.1-1.1,0.2-2.1,0.2c-1.3,0-2.5-0.1-3.7-0.4C127.8,382.3,126.6,381.8,125.6,381.1z M127.3,381.1c0.9,0.6,1.8,1,2.6,1.2
					c0.8,0.2,1.6,0.3,2.4,0.3c0.8,0,1.2-0.1,1.5-0.3c0.2-0.2-0.2-0.6-1.1-1.2c-0.9-0.6-1.8-1-2.6-1.2c-0.8-0.2-1.6-0.3-2.4-0.3
					c-0.8,0-1.2,0.1-1.4,0.2C126,380.1,126.3,380.5,127.3,381.1z"/>
			</g>
		</g>
		<g>
			<g>
				<path d="M324.2,383.6l1.5,0c0.6,0.3,1.3,0.4,1.9,0.6c0.6,0.1,1.3,0.2,1.9,0.2c0.8,0,1.3-0.1,1.5-0.2c0.3-0.1,0.2-0.3-0.2-0.5
					c-0.4-0.2-0.9-0.4-1.7-0.5c-0.7-0.1-1.5-0.2-2.2-0.2c-0.3,0-0.7,0-1,0l-0.5-0.4c0.1,0,0.2,0,0.3,0c0.7,0,1.2,0,1.6-0.1
					c0.4-0.1,0.4-0.2,0-0.5c-0.3-0.2-0.7-0.3-1.3-0.4c-0.6-0.1-1.2-0.2-1.8-0.2c-0.6,0-1,0-1.3,0.2c-0.2,0.1-0.2,0.3,0.1,0.5
					l-1.7-0.1c-0.3-0.3-0.3-0.5,0.1-0.7c0.4-0.2,1.1-0.2,2.1-0.2c0.7,0,1.4,0.1,2.2,0.1c0.8,0.1,1.4,0.2,2,0.4
					c0.6,0.2,1,0.3,1.3,0.5c0.3,0.2,0.4,0.3,0.3,0.4c-0.1,0.1-0.3,0.2-0.8,0.3c0.9,0.1,1.7,0.2,2.4,0.3c0.7,0.2,1.3,0.4,1.7,0.6
					c0.6,0.3,0.7,0.6,0.2,0.8c-0.4,0.2-1.3,0.3-2.6,0.3c-1.2,0-2.3-0.1-3.4-0.3C325.7,384.1,324.8,383.9,324.2,383.6z"/>
			</g>
			<g>
				<path d="M337,384.6l-0.9-0.5l1.8,0l0.9,0.5L337,384.6z"/>
			</g>
			<g>
				<path d="M337.9,382.8c-0.8-0.4-1.3-0.8-1.4-1c-0.2-0.3-0.1-0.5,0.3-0.6c0.4-0.1,1-0.2,2-0.2c0.7,0,1.4,0.1,2.1,0.1
					c0.7,0.1,1.3,0.2,1.9,0.4c0.6,0.2,1.2,0.3,1.8,0.5c0.6,0.2,1.2,0.5,1.9,0.9c0.8,0.4,1.3,0.8,1.4,1c0.2,0.3,0.1,0.5-0.3,0.6
					c-0.4,0.1-1,0.2-2,0.2c-1.3,0-2.5-0.1-3.7-0.4C340.5,384,339.1,383.5,337.9,382.8z M339.5,382.9c1.1,0.6,2.1,1,3,1.2
					c0.9,0.2,1.7,0.3,2.4,0.3c0.7,0,1.2-0.1,1.3-0.3c0.1-0.2-0.4-0.6-1.5-1.2c-1.1-0.6-2.1-1-3-1.2c-0.9-0.2-1.7-0.3-2.4-0.3
					c-0.7,0-1.2,0.1-1.3,0.2C337.9,381.8,338.4,382.3,339.5,382.9z"/>
			</g>
			<g>
				<path d="M348,382.9c-0.8-0.4-1.3-0.8-1.4-1c-0.2-0.3-0.1-0.5,0.3-0.6c0.4-0.1,1-0.2,2-0.2c0.7,0,1.4,0.1,2.1,0.1
					c0.7,0.1,1.3,0.2,1.9,0.4c0.6,0.2,1.2,0.3,1.8,0.5c0.6,0.2,1.2,0.5,1.9,0.9c0.8,0.4,1.3,0.8,1.5,1c0.2,0.3,0.1,0.5-0.3,0.6
					c-0.4,0.1-1,0.2-2,0.2c-1.3,0-2.5-0.1-3.7-0.4C350.6,384.1,349.3,383.6,348,382.9z M349.7,382.9c1.1,0.6,2.1,1,3,1.2
					c0.9,0.2,1.7,0.3,2.4,0.3c0.7,0,1.2-0.1,1.3-0.3c0.1-0.2-0.4-0.6-1.5-1.2c-1.1-0.6-2.1-1-3-1.2c-0.9-0.2-1.7-0.3-2.4-0.3
					c-0.7,0-1.2,0.1-1.3,0.2C348.1,381.9,348.6,382.3,349.7,382.9z"/>
			</g>
		</g>
		<g>
			<path d="M495.6,380.5c-1-0.5-0.4-0.9,1.3-0.9c1.7,0,3.9,0.4,4.9,0.9c1,0.5,0.4,0.9-1.3,0.9C498.9,381.4,496.6,381,495.6,380.5z
				 M501.7,380.6c-0.9-0.5-3-0.8-4.6-0.8c-1.6,0-2.1,0.3-1.2,0.8c0.9,0.5,3,0.8,4.6,0.8C502.1,381.4,502.6,381,501.7,380.6z"/>
		</g>
		<g>
			<path d="M172.7,377.7c-0.8-0.5,0-0.9,1.8-0.9c1.8,0,3.9,0.4,4.7,0.9c0.8,0.5,0,0.9-1.8,0.9C175.6,378.6,173.5,378.1,172.7,377.7z
				 M179,377.7c-0.7-0.5-2.7-0.9-4.4-0.9c-1.7,0-2.5,0.3-1.7,0.8c0.7,0.5,2.7,0.9,4.4,0.9C179,378.5,179.8,378.2,179,377.7z"/>
		</g>
		<g>
			<path d="M510.5,387.8c-1.2-0.6-0.5-1,1.5-1c2,0,4.5,0.5,5.7,1c1.2,0.6,0.5,1-1.4,1C514.2,388.8,511.6,388.4,510.5,387.8z
				 M517.4,387.8c-1.1-0.5-3.5-1-5.3-1c-1.8,0-2.4,0.4-1.4,0.9c1.1,0.5,3.5,1,5.3,1C517.8,388.8,518.5,388.4,517.4,387.8z"/>
		</g>
		<g>
			<path d="M41.6,376.5c-0.7-0.5,0.2-0.9,2.1-0.9c1.8,0,3.9,0.4,4.6,0.9c0.7,0.5-0.2,0.9-2.1,0.9C44.4,377.4,42.3,377,41.6,376.5z
				 M48.1,376.6c-0.7-0.5-2.6-0.9-4.3-0.9c-1.7,0-2.6,0.4-1.9,0.8c0.7,0.5,2.6,0.9,4.3,0.9C47.9,377.4,48.8,377,48.1,376.6z"/>
		</g>
		<g>
			<path d="M52,384.1c-0.8-0.6,0.2-1,2.3-1c2.1,0,4.5,0.5,5.3,1.1c0.8,0.6-0.2,1-2.3,1C55.2,385.2,52.8,384.7,52,384.1z M59.4,384.2
				c-0.8-0.5-3-1-5-1c-2,0-3,0.4-2.2,1c0.8,0.5,3,1,5,1C59.2,385.2,60.2,384.7,59.4,384.2z"/>
		</g>
		<g>
			<polygon points="28.1,376.4 28,376.4 511.9,380.6 512,380.6 			"/>
		</g>
		<g>
			<polygon points="37.7,384 37.6,384 528,387.9 528.1,388 			"/>
		</g>
		<g>
			<polygon points="514.2,388 491.9,377.2 492.1,377.2 514.5,388 			"/>
		</g>
		<g>
			<polygon points="55.8,384.3 40,373.1 40.3,373.1 56.1,384.3 			"/>
		</g>
		<g>
			<polygon points="181.6,381.3 164,370.4 164.3,370.4 181.8,381.3 			"/>
		</g>
	</g>
</g>
<rect x="585.4" y="170.9" transform="matrix(0.1673 -0.9859 0.9859 0.1673 343.1983 757.3651)" class="st0" width="69.2" height="9.3"/>
<polygon class="st14" points="641.2,415.9 643.2,430.5 644.9,415.3 "/>
<polygon class="st4" points="575.7,407.8 575.7,416.8 577.8,424.6 579.2,424.6 581,416.2 581.9,406 "/>
<path class="st14" d="M600.7,208.4l-14,88.4c0,0-20.6,94.2-12.8,112.8h9.9l29.6-180.8L600.7,208.4z"/>
<path class="st14" d="M636.1,197.4l10.7,88.8c0,0,7.8,113.1-0.7,131.4h-8.4l-15.1-200.4L636.1,197.4z"/>
<path class="st0" d="M599.4,176.1c1.5-5,6.1-8.3,11.3-8.2c8.6,0.2,21.9,1.8,28.9,8.9c10.8,11-7.3,48.3-7.3,48.3s-16.9,31.1-32.3-8.4
	C600,216.7,593.6,195.5,599.4,176.1z"/>
<path class="st1" d="M599.4,176.1c1.5-5,6.1-8.3,11.3-8.2c8.6,0.2,21.9,1.8,28.9,8.9c10.8,11-7.3,48.3-7.3,48.3s-16.9,31.1-32.3-8.4
	C600,216.7,593.6,195.5,599.4,176.1z"/>
<path class="st7" d="M605.4,183.6c1.1-3.5,4.4-5.9,8-5.8c6.1,0.2,15.6,1.3,20.5,6.3c7.7,7.9-5.2,34.4-5.2,34.4s-12,22.1-23-6
	C605.8,212.5,601.2,197.5,605.4,183.6z"/>
</svg>
