<?xml version="1.0" encoding="utf-8"?>
<!-- Generator: Adobe Illustrator 21.0.2, SVG Export Plug-In . SVG Version: 6.00 Build 0)  -->
<svg version="1.1" xmlns="http://www.w3.org/2000/svg" xmlns:xlink="http://www.w3.org/1999/xlink" x="0px" y="0px"
	 viewBox="0 0 1060 664" style="enable-background:new 0 0 1060 664;" xml:space="preserve">
<style type="text/css">
	.st0{opacity:5.000000e-02;fill:#6C63FF;enable-background:new    ;}
	.st1{opacity:0.3;fill:#31BF97;enable-background:new    ;}
	.st2{fill:#3F3D56;}
	.st3{display:none;}
	.st4{display:inline;}
	.st5{opacity:0.7;}
	.st6{fill:url(#SVGID_1_);}
	.st7{fill:#6C63FF;}
	.st8{opacity:0.1;enable-background:new    ;}
	.st9{fill:#EEEEEE;}
	.st10{fill:none;stroke:#E0E0E0;stroke-width:8;stroke-miterlimit:10;}
	.st11{fill:url(#SVGID_2_);}
	.st12{fill:none;stroke:#BDBDBD;stroke-width:5;stroke-miterlimit:10;}
	.st13{fill:#B84733;}
	.st14{fill:#F55F44;}
	.st15{fill:#39447A;}
	.st16{opacity:5.000000e-02;enable-background:new    ;}
	.st17{fill:#FDA57D;}
	.st18{fill:#333333;}
	.st19{fill:url(#SVGID_3_);}
	.st20{fill:#4DB6AC;}
	.st21{opacity:0.6;fill:none;stroke:#535461;stroke-miterlimit:10;enable-background:new    ;}
	.st22{fill:url(#SVGID_4_);}
	.st23{fill:#E0E0E0;}
	.st24{fill:#535461;}
	.st25{fill:url(#SVGID_5_);}
	.st26{fill:#3E3F49;}
	.st27{fill:#C4C4C4;}
	.st28{fill:#F2F2F2;}
	.st29{fill:#47465A;}
	.st30{fill:#7A799C;}
	.st31{fill:#9493B6;}
	.st32{opacity:0.8;fill:#6B3D8E;}
	.st33{font-family:'Gotham-Light';}
	.st34{font-size:95.5942px;}
	.st35{fill:none;stroke:#3F3D56;stroke-miterlimit:10;}
	.st36{fill:#A1616A;}
	.st37{fill:#2F2E41;}
	.st38{opacity:0.8;}
	.st39{fill:#6B3D8E;}
	.st40{fill:none;stroke:#000000;stroke-width:0.6;stroke-miterlimit:10;}
	.st41{fill:#FFFFFF;}
	.st42{fill:#735191;}
	.st43{opacity:0.7;fill:#6C63FF;enable-background:new    ;}
	.st44{opacity:0.15;fill:#FFFFFF;enable-background:new    ;}
	.st45{fill:none;stroke:#535461;stroke-width:2;stroke-miterlimit:10;}
	.st46{opacity:0.2;fill:#FFFFFF;enable-background:new    ;}
	.st47{fill:#5D291B;}
	.st48{fill:url(#SVGID_6_);}
</style>
<g id="Layer_4">
	<path class="st0" d="M527,159c-51.3,5.2-87.7-4.3-111.8-14.2c-32.8-13.5-42.7-24.8-90.4-49.1C299.8,83,273,74.6,245.3,70.6
		c-38.8-5.4-82.1,1.2-109.2,38.9c-30.1,42-27.8,117.7,4.8,156.2c16.6,19.6,38.2,29.2,57.2,44.5s36.4,40.7,34.8,70.2
		c-1.5,27.3-18.8,48.3-36.8,61.5c-13.9,10.2-30.9,21.3-32.6,42.4c-1.6,20.4,12.7,36.4,26.5,45.5c44.7,29.6,99.8,29.4,144.4-0.7
		c15.9-10.7,30.5-25,47.2-33.4c46.6-23.4,103.1-4.4,138.4,8.2c72.6,26,68.3,52.6,121.1,63.1c9.6,1.9,77.8,14.3,136-30
		c8.7-6.6,51.3-40.5,60-96c7.2-46.1-15.1-68.5-24-108c-27.3-121.1,112.9-218.9,88-258c-12.9-20.3-69.2-23.4-258,50
		C604.3,136.3,565.7,147.7,527,159z"/>
	<g>
		<path class="st1" d="M136,436.3c0,47-26.6,63.4-59.4,63.4s-59.4-16.4-59.4-63.4s59.4-106.8,59.4-106.8S136,389.3,136,436.3z"/>
		<polygon class="st2" points="74.4,492.5 75.1,453.1 100.4,404.5 75.2,447 75.4,429.3 92.9,394.1 75.5,424.6 75.5,424.6 76,392.8 
			94.7,364.8 76.1,387.8 76.4,329.5 74.4,406.7 74.6,403.5 55.6,373 74.3,409.6 72.5,445.1 72.5,444.2 50.6,412.1 72.4,447.5 
			72.2,452 72.1,452 72.2,452.4 67.7,542.5 73.7,542.5 74.4,496 96.2,460.6 		"/>
	</g>
</g>
<g id="Layer_2" class="st3">
	<g class="st4">
		<g class="st5">
			
				<linearGradient id="SVGID_1_" gradientUnits="userSpaceOnUse" x1="710.9803" y1="221.0137" x2="710.9803" y2="249.0808" gradientTransform="matrix(1 0 0 -1 -146.88 590.11)">
				<stop  offset="0" style="stop-color:#808080;stop-opacity:0.25"/>
				<stop  offset="0.54" style="stop-color:#808080;stop-opacity:0.12"/>
				<stop  offset="1" style="stop-color:#808080;stop-opacity:0.1"/>
			</linearGradient>
			<path class="st6" d="M573.4,346v-5h-25.1v23.2c0,2.7,2.2,4.9,4.9,4.9h15.3c2.7,0,4.9-2.2,4.9-4.9v-5.1c3.6,0,6.5-2.9,6.5-6.5
				S577,346,573.4,346L573.4,346z M573.4,356.6v-8c2.2-0.1,4.1,1.7,4.1,3.9c0.1,2.2-1.7,4.1-3.9,4.1
				C573.6,356.6,573.5,356.6,573.4,356.6L573.4,356.6z"/>
		</g>
		<path class="st7" d="M572.6,346.8c-3.3,0-5.9,2.7-5.9,5.9c0,3.3,2.7,5.9,5.9,5.9c3.3,0,5.9-2.7,5.9-5.9l0,0
			C578.5,349.5,575.9,346.8,572.6,346.8z M572.6,356.4c-2,0-3.7-1.6-3.7-3.7c0-2,1.6-3.7,3.7-3.7s3.7,1.6,3.7,3.7
			C576.3,354.8,574.6,356.4,572.6,356.4C572.6,356.4,572.6,356.4,572.6,356.4L572.6,356.4z"/>
		<path class="st8" d="M572.6,346.8c-3.3,0-5.9,2.7-5.9,5.9c0,3.3,2.7,5.9,5.9,5.9c3.3,0,5.9-2.7,5.9-5.9l0,0
			C578.5,349.5,575.9,346.8,572.6,346.8z M572.6,356.4c-2,0-3.7-1.6-3.7-3.7c0-2,1.6-3.7,3.7-3.7s3.7,1.6,3.7,3.7
			C576.3,354.8,574.6,356.4,572.6,356.4C572.6,356.4,572.6,356.4,572.6,356.4L572.6,356.4z"/>
		<path class="st7" d="M549.7,342.2h22.9l0,0v21.2c0,2.5-2,4.5-4.5,4.5l0,0h-13.9c-2.5,0-4.5-2-4.5-4.5l0,0V342.2L549.7,342.2z"/>
		<path class="st8" d="M568.4,342.2v21.2c0,2.5-2,4.5-4.5,4.5l0,0h2.3c2.5,0,4.5-2,4.5-4.5v0v-21.2H568.4z"/>
		<path class="st9" d="M554.2,325.2c-0.4,0-0.8,0.2-1,0.5c-0.3,0.5,0.2,1.2,0.7,1.5c0.9,0.7,1.9,1.4,2.5,2.3c0.6,1,0.8,2.3,0.1,3.2
			c-0.9,1.2-3,1.5-3.2,2.9c-0.1,1,0.7,1.8,1.5,2.2c2.1,1.2,4.7,1.5,6.2,3.3c0.6-1.3,2-2,3.4-2.3s2.8-0.3,4.2-0.5
			c0.5,0,0.9-0.2,1.2-0.6c0.4-0.8-0.7-1.7-0.3-2.5c0.3-0.6,1.2-0.6,1.8-0.8c1-0.4,1.4-1.7,1.2-2.8c-0.3-1.1-1.1-1.9-2-2.6
			c-2.3-1.8-5.1-2.9-7.9-3.7c-1.3-0.4-2.9-0.9-4.2-1S555.5,325,554.2,325.2z"/>
		<line class="st10" x1="393.6" y1="373.3" x2="345.8" y2="522.3"/>
		<g class="st5">
			
				<linearGradient id="SVGID_2_" gradientUnits="userSpaceOnUse" x1="504.1655" y1="30.8692" x2="504.1655" y2="375.11" gradientTransform="matrix(1 0 0 -1 -146.88 590.11)">
				<stop  offset="0" style="stop-color:#808080;stop-opacity:0.25"/>
				<stop  offset="0.54" style="stop-color:#808080;stop-opacity:0.12"/>
				<stop  offset="1" style="stop-color:#808080;stop-opacity:0.1"/>
			</linearGradient>
			<path class="st11" d="M430.7,539.1c-5.9,0.3-11.1,5.3-11.1,5.3l-2.5-6.3l-0.2,0.1c1.2-5.4,26.4-117.2,1.2-126.8
				c-19.4-7.4-39.9-16.6-56.1-16.2v-26.4h22.6v-0.9h17.9c3.4-2.4-1.6-4.1-7.1-5.2c0.2-0.3,0.4-0.5,0.6-0.8l28.6-51.4
				c0,0,6.6-10.8,2.4-16c-4.2-5.2-10.4,13.2-10.4,13.2L393,341.5c0,0-23.8-24.8-38.8-37.1c-1.7-1.7-3.6-3.1-5.6-4.3
				c-2.8-1.9-4.8-2.8-5.9-2.5h0c-2.3-0.6-4.7-1-7-1h-1.9v-3.9c8.5-2.8,15.4-9.3,18.6-17.7c5.4-8.9,6.4-19.8,2.7-29.5
				c0.3,0,0.6-0.1,0.8-0.3c0.9-0.5,0.9-1.7,0.9-2.8c-0.6-6.9-4.6-13-10.6-16.4c-2.4-1.3-5.1-2.2-6.9-4.3c-1.5-1.8-2.1-4.3-4-5.7
				c-2.2-1.7-5.3-1.4-8-0.7c-3,0.9-5.8,2.2-8.3,3.9c-2.9,2-5.5,4.5-8.8,5.6c-2.4,0.8-4.9,0.8-7.3,1.5c-3.7,1.2-6.6,4-7.9,7.7
				c-0.6,1.9-0.8,4-0.7,6c-1.4,2.4-2.6,5-3.4,7.7l-0.5,0.3l0.5-0.2c-3.7,12.4,0,25.8,9.5,34.5c3.7,4.8,8.7,8.4,14.5,10.3v4.7
				c-4.1,0.9-8,2.5-11.5,4.7l0,0c0,0-0.3,0.2-0.8,0.5l-0.2,0.1c-3.5,2.4-15.1,11-14.8,20.3c0,0.4,0,0.7,0,1.1c-0.6,2.7-1,5.5-1,8.2
				v67.7c0,7.5,2.5,14.7,7.1,20.6c-9.8,2.2-16.1,5.5-16.1,9.3c0,0.3,0,0.6,0,0.9c0,6.6,19.8,12,44.2,12c3,0,5.8-0.1,8.6-0.2
				l27.6,22.3L314,536.2c0,0-14.6,11.3-3.3,15.1c11.3,3.8,34.3,6.6,34.3,6.6s3.8-6.6-1.4-9.4c-5.2-2.8-12.2-1.4-12.2-1.4l0.9-5.6
				c0,0,76.7-65.9,60.7-88.4c-3.1-4.3-6.1-8.8-9.2-13.2l12.1,1.1l2.8,103.4l0.3-0.1c-0.7,2-5.6,17.4,5.2,14.8
				c11.6-2.8,32.6-12.6,32.6-12.6S436.6,538.8,430.7,539.1z M384.5,361.2l-22.6-6.6v-19.3l24.5,26
				C385.3,361.3,384.5,361.2,384.5,361.2z"/>
		</g>
		<circle cx="324.1" cy="260.6" r="33.1"/>
		<path class="st7" d="M361.9,336.5l25.3,26.8c1.9,2,5,2.1,7,0.2c0.4-0.3,0.7-0.8,0.9-1.2l28-50.2l-7.8-2.8l-23,33.1
			c0,0-43.2-45-49.2-42.8C337,301.9,361.9,336.5,361.9,336.5z"/>
		<line class="st12" x1="313.6" y1="429.4" x2="276.3" y2="526"/>
		<line class="st12" x1="332" y1="429.4" x2="369.2" y2="526"/>
		<ellipse class="st13" cx="322.8" cy="430.1" rx="43.2" ry="11.7"/>
		<ellipse class="st14" cx="322.8" cy="429.2" rx="43.2" ry="11.7"/>
		<line class="st12" x1="304.6" y1="450.6" x2="345.4" y2="463.2"/>
		<line class="st12" x1="340.9" y1="450.6" x2="300.1" y2="463.2"/>
		<path class="st7" d="M323.3,298.7h12.8c14.2,0,25.8,11.5,25.8,25.8v68.1l0,0h-73.6l0,0v-58.8C288.2,314.4,303.9,298.8,323.3,298.7
			C323.3,298.7,323.3,298.7,323.3,298.7z"/>
		<path class="st15" d="M288.3,392.6h73.6l0,0v40l0,0h-40.9c-18,0-32.7-14.6-32.7-32.7l0,0V392.6L288.3,392.6z"/>
		<path class="st16" d="M289.2,326.4l45,42.8h49.7v-6.4l-42.8-12.4l-36.6-45.2C304.6,305.1,287.9,315.4,289.2,326.4z"/>
		<path class="st7" d="M289.2,325.5l45,42.8h49.7v-6.4l-42.8-12.4l-36.6-45.2C304.6,304.2,287.9,314.4,289.2,325.5z"/>
		<path class="st17" d="M383.9,361.8c0,0,23.9,1.8,17.5,6.4h-17.5V361.8z"/>
		<path class="st17" d="M415.2,309.3c0,0,6-17.9,10.1-12.9c4.1,5.1-2.3,15.6-2.3,15.6L415.2,309.3z"/>
		<polygon class="st16" points="288.3,392.6 288.3,394.7 361.9,394.9 361.9,392.6 		"/>
		<path class="st15" d="M345.5,435.2l49.5,4.5l2.7,101.1l17.7-5.8c0,0,26.5-114.6,1.2-124.2c-25.3-9.7-52.6-22.4-68.9-12
			C331.4,409.2,345.5,435.2,345.5,435.2z"/>
		<path class="st8" d="M348.5,404.1c0,0,27.1,13.8,30.8,29.4"/>
		<path class="st15" d="M319.5,432.2l38.6,31.3l-43.2,69.5l17.9,5.1c0,0,75-64.4,59.3-86.5c-15.6-22.1-31.3-47.8-50.6-48.3
			C322.3,402.7,319.5,432.2,319.5,432.2z"/>
		<polygon class="st16" points="380.3,330.5 389.9,347.1 392.2,342.5 		"/>
		<path class="st18" d="M314.9,532.9c0,0-14.3,11-3.2,14.7c11,3.7,33.6,6.4,33.6,6.4s3.7-6.4-1.4-9.2c-5.1-2.8-12-1.4-12-1.4
			l0.9-5.5L314.9,532.9z"/>
		<path class="st18" d="M398.1,540.5c0,0-6.3,17.4,5.1,14.7c11.3-2.7,31.9-12.3,31.9-12.3s-0.3-7.4-6-7.1
			c-5.8,0.3-10.9,5.2-10.9,5.2l-2.5-6.2L398.1,540.5z"/>
		<path class="st17" d="M325.1,282.7L325.1,282.7c5.1,0,9.2,4.1,9.2,9.2v9.2c0,5.1-4.1,9.2-9.2,9.2l0,0c-5.1,0-9.2-4.1-9.2-9.2v-9.2
			C315.9,286.8,320,282.7,325.1,282.7z"/>
		<path class="st16" d="M325.1,283.6c-5.1,0-9.2,4.1-9.2,9.2v3.1c6,2,12.4,2,18.4,0v-3.1C334.3,287.7,330.1,283.6,325.1,283.6z"/>
		<circle class="st17" cx="325.1" cy="267" r="29.4"/>
		<path class="st16" d="M295.6,265.7c0,0,7.4,1.9,11.5-6.5c4.1-8.4,7.4-12.9,24.4-8s20.4,5.5,21.3,0.9c0.6-3.2-5.5-11-9.4-15.5
			c-1.9-2.2-5-3.6-8.3-3.6h-19.2l-11.5,5.3l-8.7,7.6l-1.8,10.3L295.6,265.7z"/>
		<path d="M295.6,264.8c0,0,7.4,1.9,11.5-6.5c4.1-8.4,7.4-12.9,24.4-8s20.4,5.5,21.3,0.9c0.6-3.2-5.5-11-9.4-15.5
			c-1.9-2.2-5-3.6-8.3-3.6h-19.2l-11.5,5.3l-8.7,7.6l-1.8,10.3L295.6,264.8z"/>
		<ellipse class="st17" cx="298.6" cy="264.7" rx="3" ry="6"/>
		<path d="M296.5,249.3c-0.7-3.9-1.4-7.9-0.1-11.6c1.2-3.6,4.1-6.4,7.7-7.5c2.3-0.7,4.8-0.7,7.1-1.5c3.2-1.1,5.8-3.5,8.6-5.5
			c2.5-1.7,5.2-3,8.1-3.8c2.6-0.8,5.7-1,7.8,0.6c1.8,1.4,2.4,3.9,3.9,5.6c1.7,2,4.4,2.9,6.7,4.2c5.9,3.3,9.8,9.3,10.4,16
			c0.1,1,0,2.2-0.8,2.7c-0.5,0.3-1.1,0.4-1.7,0.3c-11.8-0.2-23.5-0.3-35.3-1.4c-3.6-0.3-7.3-0.8-10.9-0.6
			c-5.7,0.2-11.2,1.8-16.1,4.5"/>
		<g class="st5">
			
				<linearGradient id="SVGID_3_" gradientUnits="userSpaceOnUse" x1="333.9081" y1="116.8414" x2="414.4016" y2="116.8414" gradientTransform="matrix(1 0 0 -1 -146.88 590.11)">
				<stop  offset="0" style="stop-color:#808080;stop-opacity:0.25"/>
				<stop  offset="0.54" style="stop-color:#808080;stop-opacity:0.12"/>
				<stop  offset="1" style="stop-color:#808080;stop-opacity:0.1"/>
			</linearGradient>
			<path class="st19" d="M267.1,453.4c1.6-6.3-0.9-12.9-6.2-16.6c-1.4-0.9-2.9-1.6-4.1-2.7c-2.1-1.8-3.3-4.4-4.2-7
				c-2.1-6.2-2.7-13.3-6.4-18.9c-3.3-5.1-9.8-6.6-15.5-7.2c-2.1-0.2-4.3-0.3-6.2,0.6c-3.2,1.4-4.7,5.2-4.9,8.7
				c-0.1,3.5,0.8,7,1,10.5c0.2,3.5-0.4,7.4-3,9.7s-6.3,2.7-9.7,3.1c-4.5,0.6-8.9,1.7-13.2,3.3c-3.6,1.3-7.6,3.6-7.7,7.4
				c-0.1,3.1,2.4,5.6,4.3,8.1c3.5,4.6,5.3,10.7,4.1,16.4c-1.2,5.8-5.3,10.7-6,16.6c-0.2,1.5-0.1,3.1,0.6,4.4
				c0.6,0.9,1.3,1.7,2.2,2.4c2.2,1.7,4.7,3.1,6.8,4.9c4.4,3.9,6.7,9.5,8.5,15c0.2,0.5,0.3,1.1,0.5,1.6h-4.3
				c-8.7,0-15.8,7.1-15.8,15.8l0,0c0,8.7,7.1,15.8,15.8,15.8h42.8c8.7,0,15.8-7.1,15.8-15.8l0,0c0-8.8-7.1-15.9-15.9-15.9h-11.7
				c2.8-3.7,5.7-7.2,9.9-8.6c4.3-1.4,9.5-0.6,12.8-3.6c1.6-1.5,2.5-3.6,2.9-5.8c0.7-3.9,0-7.9-1.9-11.4c-1.3-2.4-3.3-4.6-3.7-7.3
				c-0.4-2.3,0.5-4.7,1.6-6.8C259.6,464.5,265.3,459.9,267.1,453.4z"/>
		</g>
		<path class="st20" d="M230.5,404.6c-2-0.2-4.1-0.3-5.9,0.6c-3,1.4-4.5,5-4.6,8.3s0.7,6.6,0.9,10s-0.4,7-2.8,9.3s-6,2.5-9.2,3
			c-4.3,0.6-8.5,1.6-12.5,3.1c-3.4,1.2-7.2,3.5-7.4,7.1c-0.1,3,2.3,5.3,4,7.7c3.4,4.4,5,10.2,3.9,15.6c-1.2,5.5-5,10.2-5.7,15.8
			c-0.2,1.4-0.1,2.9,0.6,4.2c0.5,0.9,1.3,1.6,2.1,2.2c2.1,1.6,4.4,2.9,6.4,4.7c4.1,3.7,6.4,9,8.1,14.3c1.7,5.2,3,10.5,4,15.8
			c3.6-2.3,8.2-2.3,12-4.1c8.1-4,10.9-15.5,19.4-18.4c4.1-1.4,9-0.6,12.2-3.4c1.6-1.4,2.4-3.4,2.8-5.5c0.7-3.7,0-7.5-1.8-10.8
			c-1.3-2.3-3.2-4.4-3.6-7c-0.3-2.2,0.5-4.5,1.5-6.4c3.1-5.6,8.5-10,10.2-16.1c1.5-6-0.9-12.3-5.9-15.8c-1.3-0.9-2.8-1.5-4-2.6
			c-2-1.7-3.1-4.2-4-6.6c-2-5.9-2.6-12.6-6.1-18C242.1,406.5,235.9,405.1,230.5,404.6z"/>
		<path class="st21" d="M230.4,404.8c0,0,7.5,101-12.1,118.4"/>
		<path class="st7" d="M204.8,511.9h40.7c8.3,0,15.1,6.8,15.1,15.1v0c0,8.3-6.8,15.1-15.1,15.1h-40.7c-8.3,0-15.1-6.8-15.1-15.1v0
			C189.7,518.6,196.5,511.9,204.8,511.9z"/>
		<path class="st21" d="M189,444c0,0,19.3-2.2,42.8,12.1"/>
		<path class="st21" d="M231.4,468.1c0,0,10.7-17.7,33.7-21.1"/>
		<path class="st21" d="M190.8,485.1c0,0,26.7-4.5,39,3"/>
		<path class="st21" d="M228.3,498.5c0,0,14-6.3,29.7-1.2"/>
		
			<linearGradient id="SVGID_4_" gradientUnits="userSpaceOnUse" x1="601.5102" y1="185.9264" x2="601.5102" y2="187.3065" gradientTransform="matrix(1 0 0 -1 -146.88 590.11)">
			<stop  offset="0" style="stop-color:#808080;stop-opacity:0.25"/>
			<stop  offset="0.54" style="stop-color:#808080;stop-opacity:0.12"/>
			<stop  offset="1" style="stop-color:#808080;stop-opacity:0.1"/>
		</linearGradient>
		<path class="st22" d="M454.6,404.2c0.4,0,0.7-0.3,0.7-0.7c0-0.4-0.3-0.7-0.7-0.7c-0.4,0-0.7,0.3-0.7,0.7
			C453.9,403.9,454.2,404.2,454.6,404.2z"/>
		<line class="st10" x1="555.9" y1="373.3" x2="603.7" y2="543.5"/>
		<rect x="345.6" y="368.3" class="st23" width="258.4" height="10.1"/>
		<path class="st24" d="M412.2,365.9h36.3c1.7,0,3,1.3,3,3l0,0c0,1.7-1.3,3-3,3h-36.3c-1.7,0-3-1.3-3-3l0,0
			C409.2,367.3,410.6,365.9,412.2,365.9z"/>
		<g class="st5">
			
				<linearGradient id="SVGID_5_" gradientUnits="userSpaceOnUse" x1="487.6013" y1="294.0238" x2="487.6013" y2="366.7563" gradientTransform="matrix(1 0 0 -1 0 666)">
				<stop  offset="0" style="stop-color:#808080;stop-opacity:0.25"/>
				<stop  offset="0.54" style="stop-color:#808080;stop-opacity:0.12"/>
				<stop  offset="1" style="stop-color:#808080;stop-opacity:0.1"/>
			</linearGradient>
			<path class="st25" d="M448,299.2h79.2c7.2,0,13,5.8,13,13V359c0,7.2-5.8,13-13,13H448c-7.2,0-13-5.8-13-13v-46.8
				C435,305.1,440.8,299.2,448,299.2z"/>
		</g>
		<path class="st26" d="M449.2,300.6h75c6.8,0,12.3,5.5,12.3,12.3v46.7c0,6.8-5.5,12.3-12.3,12.3h-75c-6.8,0-12.3-5.5-12.3-12.3
			v-46.7C436.9,306.1,442.4,300.6,449.2,300.6z"/>
		<path class="st24" d="M450.6,300.6h75c6.8,0,12.3,5.5,12.3,12.3v46.7c0,6.8-5.5,12.3-12.3,12.3h-75c-6.8,0-12.3-5.5-12.3-12.3
			v-46.7C438.3,306.1,443.8,300.6,450.6,300.6z"/>
		<circle class="st23" cx="492.7" cy="335.8" r="3.2"/>
	</g>
</g>
<g id="Layer_3">
	<g>
		<polygon class="st27" points="466.3,464.4 463,560.6 459.1,561.5 458.8,561.5 457.8,559.5 459.9,465.4 462,465.1 		"/>
		<polygon class="st8" points="463.3,462.4 460.5,558.8 460.2,558.8 459.1,556.8 461.3,462.6 		"/>
		<ellipse class="st28" cx="557.2" cy="572.4" rx="151.8" ry="33.8"/>
		<polygon class="st27" points="627.6,453 612.7,527.1 609.5,527.1 609.2,526.6 608.2,525 621,455.7 622.9,454.9 		"/>
		<polygon class="st8" points="622.9,454.9 609.2,526.6 608.2,525 621,455.7 		"/>
		<polygon class="st27" points="649.8,554 646,555.2 645.1,555.5 643.9,552.8 622.9,457.2 625.1,456.7 629.7,455.7 		"/>
		<polygon class="st8" points="646,555.2 645.1,555.5 643.9,552.8 622.9,457.2 625.1,456.7 		"/>
		<polygon class="st27" points="488.3,591.3 484.4,592 483.9,592 482.7,589.4 463.3,463.8 463.9,463.6 466.8,462.7 		"/>
		<polygon class="st8" points="484.4,592 483.9,592 482.7,589.4 463.3,463.8 463.9,463.6 		"/>
		<path class="st29" d="M622.5,452.3h4.1l0,0v5.9c0,0.8-0.7,1.5-1.5,1.5l0,0H624c-0.8,0-1.5-0.7-1.5-1.5l0,0L622.5,452.3
			L622.5,452.3z"/>
		<path class="st27" d="M480.3,472.9l181-21.1c1.5-0.2,2.5-1.5,2.3-3c-0.1-0.9-0.6-1.7-1.4-2.1l-32.4-16.3
			c-6.4-3.2-13.5-4.5-20.6-3.8l-160.8,16.4c-1.7,0.2-2.9,1.7-2.7,3.4c0.1,0.7,0.4,1.3,0.9,1.8l18.7,19.2
			C469.2,471.6,474.7,473.5,480.3,472.9z"/>
		<path class="st29" d="M681.2,451l-1.9-1.1c0,0-2.1,1.5-3.8,8c-1.7,6.5,3.2,0.1,3.2,0.1l2.1-4.4L681.2,451z"/>
		<path class="st29" d="M660.5,510.4c0,0-2,9.3-2.9,11.9c-0.4,1.3-2.6,2.4-5,3.3c-2.1,0.8-4.3,1.4-6.6,1.7
			c-2.6,0.3-35.9-4.9-52.1-8.4c-10.9-2.4-12.3-5.1-12.1-6.6c0.1-0.5,0.3-0.9,0.6-1.2c0,0,16-10.8,21.7-16c5.6-5.2,16.8-1.1,29,1.1
			C645.4,498.3,660.5,510.4,660.5,510.4z"/>
		<path class="st29" d="M679.3,449.9c0,0,7.5,4.9-17.7,15c0,0-13.7,7.7-11.9,39.5c0.1,1.4,0.5,2.8,1.3,4c2.6,4.3,8.2,15.1-1.1,16.4
			v2.4c0,0,16.8-8.4,18.6-15.6c1.8-7.2,7.9-47,11-50.7S684.5,451.6,679.3,449.9z"/>
		<path class="st8" d="M652.6,525.6c-2.1,0.8-4.3,1.4-6.6,1.7c-2.6,0.3-35.9-4.9-52.1-8.4c-10.9-2.4-12.3-5.1-12.1-6.6
			c7.2,2.4,30.4,10.2,38.8,10.9c9.9,0.8,28.9,2.9,30.3,1.4C651.5,524.1,652.1,524.7,652.6,525.6z"/>
		<path class="st29" d="M565.4,589.1l14.5-66.2c0,0,2.6-7,8.5-6.7l5.5,2.7c0,0-9.2-2.1-11.1,4.9c-2,7-14.7,65.3-14.7,65.3H565.4z"/>
		<polygon class="st29" points="600.2,558.9 606,518.5 608.6,518.5 602.7,558.9 		"/>
		<path class="st29" d="M655.8,598.4l-5.5-63.2c0,0,0-5.3,2.7-7.9c2.7-2.6,11.6-10,11.6-10s2.3-0.5,4.1,4.7
			c1.8,5.2,14.5,57.1,14.5,57.1l-2.4,1.1l-15.7-59.8l-10.8,10.2c0,0-2.1,3.8-1.1,7.3c1.1,3.5,5,60.6,5,60.6H655.8z"/>
		<polygon class="st29" points="638.8,525.8 652.6,529.8 655.6,526.8 647.7,525.8 		"/>
		<path class="st30" d="M516.7,414.4l2.2,33.4l48.7-4.7l-1.9-32.7c-0.1-1.8-1.7-3.2-3.5-3.1c0,0-0.1,0-0.1,0l-42.4,3.6
			C517.9,411,516.6,412.6,516.7,414.4z"/>
		<polygon class="st30" points="584,452.7 535.4,458 533.6,458.2 519.4,449 519.4,447 567.6,442.7 		"/>
		<polygon class="st8" points="535.4,458 533.6,458.2 519.4,449 519.4,447.2 		"/>
		<polygon class="st31" points="520,414 521.7,443.8 564.4,439.8 562.9,410.8 		"/>
		<polygon class="st8" points="545.5,452.1 550.7,455.6 566.4,454 561.1,450.7 		"/>
		<polygon class="st31" points="524.3,447.8 530.8,452.7 572.8,448.7 565.3,443.8 		"/>
	</g>
	<text transform="matrix(1 0 0 1 168.583 328.4902)" class="st32 st33 st34">?</text>
	<g>
		<ellipse class="st28" cx="225.8" cy="587.6" rx="58.3" ry="9.4"/>
		<ellipse class="st35" cx="230.4" cy="582.2" rx="58.3" ry="9.4"/>
		<path class="st36" d="M264.4,419.8c0,0,0.9,6.5-1.3,9.1c-2.2,2.6-5.7,20-5.7,20v10.4c0,0,13.5-19.6,16.1-27.4
			c2.6-7.8,0-13.9,0-13.9L264.4,419.8z"/>
		<path class="st2" d="M263.1,387.6l0.2,0.2c2.2,2.5,4,5.4,5.2,8.6c2.9,7.6,9,26.3,6.8,28.2c-3,2.6-11.8,4.4-12.2,3.9
			c-0.4-0.4-9.1-27.4-9.1-27.4L263.1,387.6z"/>
		<path class="st2" d="M248.9,572.6c0,0,10.4,2.2,10.9,0c0.3-1.4,0.7-2.7,1.3-3.9c0,0,9.5,0.4,7,8.7c-0.2,0.8-0.8,1.5-1.5,2
			c-2.3,1.4-7.6,4.6-10.3,6.3c-2,1.3-4.9,0.3-7-0.7c-1.5-0.8-2.4-2.4-2-4.1L248.9,572.6z"/>
		<path class="st2" d="M218.9,573.9c0,0-10.4,2.2-10.9,0c-0.3-1.4-0.7-2.7-1.3-3.9c0,0-9.5,0.4-7,8.7c0.3,0.8,0.8,1.5,1.5,2
			c2.3,1.4,7.6,4.6,10.2,6.3c2.2,1.4,5.5,0.1,7.6-1c1.2-0.6,1.8-2,1.6-3.3L218.9,573.9z"/>
		<path class="st36" d="M205.8,425.5c0,0-0.9,6.5,1.3,9.1s5.7,12.6,5.7,12.6v10.4c0,0-13.5-12.2-16.1-20s0-13.9,0-13.9L205.8,425.5z
			"/>
		<circle class="st36" cx="236.3" cy="361" r="10.9"/>
		<path class="st36" d="M245,365.4c0,0-3,13.9,0,15.7c3,1.7-18.3,0-18.3,0s4.8-11.8,2.6-15.7C227.1,361.5,245,365.4,245,365.4z"/>
		<path class="st37" d="M255.4,458.1c0,0,3.9,5.7,2.6,23.1c-1.3,17.4-2.6,35.7-2.6,35.7s9.6,54.9,6.5,56.2s-13.1,2.6-14.4,1.3
			c-1.3-1.3-7.4-52.2-7.4-52.2l-5.7-41.8l-8.7,47.9c0,0-4.8,46.6-8.3,48.8c-2.5,1.6-7.4,0.4-10-0.3c-1-0.3-1.7-1.2-1.6-2.3
			c0.3-7.3,1.8-36.2,5.2-54c3.9-20.5-3.9-61.4,3-62.3S255.4,458.1,255.4,458.1z"/>
		<path class="st2" d="M225,379.3c0,0,1.7-7.8,8.3-7c6.5,0.9,10.9,0.4,12.2,4.8c1.3,4.4,15.2,7.8,15.2,7.8s3.5,0.4,3,6.1
			c-0.4,5.7-9.1,26.6-9.1,26.6s0.4,17.4,2.6,25.3c2.2,7.8,2.2,17.4-2.6,19.6s-34.8,10-41.8,0.4c0,0-3.9-13.9-1.3-19.6
			c2.6-5.7-0.4-27.9-0.4-27.9l-8.3-18.3c0,0,2.6-8.7,10-11.3C217.2,384.3,221.3,382.1,225,379.3z"/>
		<path class="st2" d="M206.2,393.3l-3.5,3.9c0,0-10.4,25.7-7.4,28.3s11.8,4.4,12.2,3.9c0.4-0.4,7.8-22.6,7.8-22.6L206.2,393.3z"/>
		<path class="st37" d="M248.9,354.5c0,0-1.7,1.3-2.2,4.4s-3.1-1.7-3.7,4.6s-11.1,10.7-15,7.6s-10.4-22.2-1.3-25.3
			c9.1-3,18.3-2.6,20,0.4C248.5,349.3,248.9,354.5,248.9,354.5z"/>
		<path class="st8" d="M240.4,363.4c0.6-6.3,3.3-1.5,3.7-4.6s2.2-4.4,2.2-4.4s-0.4-5.2-2.2-8.3c-0.8-1.5-3.4-2.3-6.8-2.5
			c4.7-0.2,8.4,0.7,9.4,2.5c1.7,3,2.2,8.3,2.2,8.3s-1.7,1.3-2.2,4.4s-3.1-1.7-3.7,4.6c-0.5,5.3-8.1,9.3-12.8,8.5
			C234.7,371.3,240,367.9,240.4,363.4z"/>
	</g>
	<g class="st38">
		<path class="st39" d="M275.8,249.7H318c1.5,0,2.7,1.2,2.7,2.7v22.9c0,1.5-1.2,2.7-2.7,2.7h-42.1c-1.5,0-2.7-1.2-2.7-2.7v-22.9
			C273.2,250.9,274.4,249.7,275.8,249.7z"/>
		<path class="st35" d="M272.2,246.5h42.1c1.5,0,2.7,1.2,2.7,2.7v22.9c0,1.5-1.2,2.7-2.7,2.7h-42.1c-1.5,0-2.7-1.2-2.7-2.7v-22.9
			C269.5,247.7,270.7,246.5,272.2,246.5z"/>
	</g>
	<g class="st38">
		<path class="st39" d="M273.8,324.7H316c1.5,0,2.7,1.2,2.7,2.7v22.9c0,1.5-1.2,2.7-2.7,2.7h-42.1c-1.5,0-2.7-1.2-2.7-2.7v-22.9
			C271.2,325.9,272.4,324.7,273.8,324.7z"/>
		<path class="st35" d="M270.2,321.5h42.1c1.5,0,2.7,1.2,2.7,2.7v22.9c0,1.5-1.2,2.7-2.7,2.7h-42.1c-1.5,0-2.7-1.2-2.7-2.7v-22.9
			C267.5,322.7,268.7,321.5,270.2,321.5z"/>
	</g>
	<g class="st38">
		<path class="st39" d="M553.8,278.7H596c1.5,0,2.7,1.2,2.7,2.7v22.9c0,1.5-1.2,2.7-2.7,2.7h-42.1c-1.5,0-2.7-1.2-2.7-2.7v-22.9
			C551.2,279.9,552.4,278.7,553.8,278.7z"/>
		<path class="st35" d="M550.2,275.5h42.1c1.5,0,2.7,1.2,2.7,2.7v22.9c0,1.5-1.2,2.7-2.7,2.7h-42.1c-1.5,0-2.7-1.2-2.7-2.7v-22.9
			C547.5,276.7,548.7,275.5,550.2,275.5z"/>
	</g>
	<g class="st38">
		<path class="st39" d="M557.8,337.7H600c1.5,0,2.7,1.2,2.7,2.7v22.9c0,1.5-1.2,2.7-2.7,2.7h-42.1c-1.5,0-2.7-1.2-2.7-2.7v-22.9
			C555.2,338.9,556.4,337.7,557.8,337.7z"/>
		<path class="st35" d="M554.2,334.5h42.1c1.5,0,2.7,1.2,2.7,2.7v22.9c0,1.5-1.2,2.7-2.7,2.7h-42.1c-1.5,0-2.7-1.2-2.7-2.7v-22.9
			C551.5,335.7,552.7,334.5,554.2,334.5z"/>
	</g>
	<g class="st38">
		<path class="st39" d="M362.8,296.7H405c1.5,0,2.7,1.2,2.7,2.7v22.9c0,1.5-1.2,2.7-2.7,2.7h-42.1c-1.5,0-2.7-1.2-2.7-2.7v-22.9
			C360.2,297.9,361.4,296.7,362.8,296.7z"/>
		<path class="st35" d="M359.2,293.5h42.1c1.5,0,2.7,1.2,2.7,2.7v22.9c0,1.5-1.2,2.7-2.7,2.7h-42.1c-1.5,0-2.7-1.2-2.7-2.7v-22.9
			C356.5,294.7,357.7,293.5,359.2,293.5z"/>
	</g>
	<g class="st38">
		<path class="st28" d="M448.2,345.7h42.1c1.5,0,2.7,1.2,2.7,2.7v22.9c0,1.5-1.2,2.7-2.7,2.7h-42.1c-1.5,0-2.7-1.2-2.7-2.7v-22.9
			C445.5,346.9,446.7,345.7,448.2,345.7z"/>
		<path class="st35" d="M444.6,342.5h42.1c1.5,0,2.7,1.2,2.7,2.7v22.9c0,1.5-1.2,2.7-2.7,2.7h-42.1c-1.5,0-2.7-1.2-2.7-2.7v-22.9
			C441.9,343.7,443.1,342.5,444.6,342.5z"/>
	</g>
	<g class="st38">
		<path class="st28" d="M655.2,308.7h42.1c1.5,0,2.7,1.2,2.7,2.7v22.9c0,1.5-1.2,2.7-2.7,2.7h-42.1c-1.5,0-2.7-1.2-2.7-2.7v-22.9
			C652.5,309.9,653.7,308.7,655.2,308.7z"/>
		<path class="st35" d="M651.6,305.5h42.1c1.5,0,2.7,1.2,2.7,2.7v22.9c0,1.5-1.2,2.7-2.7,2.7h-42.1c-1.5,0-2.7-1.2-2.7-2.7v-22.9
			C648.9,306.7,650.1,305.5,651.6,305.5z"/>
	</g>
	<g>
		<line class="st40" x1="322.5" y1="276.5" x2="351.5" y2="293.5"/>
	</g>
	<g>
		<line class="st40" x1="410.5" y1="326.5" x2="439.5" y2="343.5"/>
	</g>
	<g>
		<line class="st40" x1="322.5" y1="337.5" x2="351.5" y2="320.5"/>
	</g>
	<g>
		<line class="st40" x1="610.5" y1="292.5" x2="639.5" y2="309.5"/>
	</g>
	<g>
		<line class="st40" x1="610.5" y1="353.5" x2="639.5" y2="336.5"/>
	</g>
	<g>
		<line class="st40" x1="526.5" y1="310.5" x2="497.5" y2="327.5"/>
	</g>
	<g>
		<line class="st40" x1="537.8" y1="350" x2="504.2" y2="350"/>
	</g>
</g>
<g id="Layer_1">
	<g>
		<circle class="st1" cx="852.4" cy="312.6" r="123.6"/>
		<rect x="864.4" y="315.2" class="st23" width="93.3" height="68.1"/>
		<polygon class="st8" points="950.9,383.2 950.9,290.4 949.1,291.5 949.1,383.2 		"/>
		<polygon class="st8" points="956,383.2 956,290.4 954.2,291.5 954.2,383.2 		"/>
		<rect x="864.4" y="316.6" class="st8" width="93.3" height="7.7"/>
		<polygon class="st7" points="966.7,322.9 824.6,322.9 824.6,257.8 943.5,257.8 		"/>
		<polygon class="st39" points="966.7,322.9 824.6,322.9 824.6,257.8 943.5,257.8 		"/>
		<rect x="865.3" y="315.2" class="st8" width="7.7" height="68.1"/>
		<polygon class="st9" points="872.2,295 872.2,383.2 752.1,383.2 752.1,295 762.2,288.7 771.7,282.9 812.3,258 		"/>
		<rect x="798.8" y="342.1" class="st7" width="26.7" height="41"/>
		<circle class="st24" cx="821.5" cy="362.6" r="1.2"/>
		<rect x="752.1" y="315.8" class="st8" width="120.1" height="2.4"/>
		<rect x="752.1" y="315.5" class="st41" width="120.1" height="2.4"/>
		<polygon class="st8" points="869.2,291.4 869.2,383.2 859.7,383.2 859.7,288.7 		"/>
		<polygon class="st8" points="769,282.9 769,383.2 759.5,383.2 759.5,288.7 		"/>
		<polygon class="st8" points="756.9,383.2 756.9,290.4 755.1,291.5 755.1,383.2 		"/>
		<polygon class="st8" points="812.3,248.2 740.7,300.2 745.4,307.9 812.3,262.4 879.1,307.9 883.9,300.2 		"/>
		<polygon class="st42" points="812.3,247.6 740.7,299.6 745.4,307.3 812.3,261.8 879.1,307.3 883.9,299.6 		"/>
		<rect x="762.1" y="332" class="st43" width="25" height="25"/>
		<rect x="761" y="356.2" class="st8" width="26.7" height="3"/>
		<rect x="761" y="355.6" class="st24" width="26.7" height="3"/>
		<polygon class="st44" points="772.5,332.1 762.2,346.3 762.2,339.1 768,332.1 		"/>
		<polygon class="st44" points="781.3,332.1 762.2,352.2 762.2,348.6 776.5,332.1 		"/>
		<line class="st45" x1="762.1" y1="344.4" x2="787" y2="344.4"/>
		<line class="st45" x1="762.2" y1="332.1" x2="787.2" y2="332.1"/>
		<line class="st45" x1="774.5" y1="332" x2="774.5" y2="356.9"/>
		<line class="st45" x1="786.9" y1="332.1" x2="786.9" y2="357.1"/>
		<line class="st45" x1="762.2" y1="331.8" x2="762.2" y2="356.8"/>
		<rect x="837.2" y="331.9" class="st43" width="25" height="25"/>
		<rect x="836.5" y="356.2" class="st8" width="26.7" height="3"/>
		<rect x="836.5" y="355.6" class="st24" width="26.7" height="3"/>
		<polygon class="st44" points="851.8,332.1 862.1,346.3 862.1,339.1 856.3,332.1 		"/>
		<polygon class="st44" points="842.9,332.1 862.1,352.2 862.1,348.6 847.8,332.1 		"/>
		<line class="st45" x1="862.2" y1="344.4" x2="837.2" y2="344.4"/>
		<line class="st45" x1="862.1" y1="332.1" x2="837.1" y2="332.1"/>
		<line class="st45" x1="849.7" y1="332" x2="849.7" y2="356.9"/>
		<line class="st45" x1="837.4" y1="332.1" x2="837.4" y2="357.1"/>
		<line class="st45" x1="862.1" y1="331.8" x2="862.1" y2="356.8"/>
		<rect x="799.5" y="281.1" class="st43" width="25" height="25"/>
		<rect x="798.8" y="305.4" class="st8" width="26.7" height="3"/>
		<rect x="798.8" y="304.8" class="st24" width="26.7" height="3"/>
		<polygon class="st44" points="814,281.3 824.3,295.5 824.3,288.2 818.5,281.3 		"/>
		<polygon class="st44" points="805.2,281.3 824.3,301.4 824.3,297.8 810.1,281.3 		"/>
		<line class="st45" x1="824.5" y1="293.6" x2="799.5" y2="293.6"/>
		<line class="st45" x1="824.3" y1="281.3" x2="799.4" y2="281.3"/>
		<line class="st45" x1="812" y1="281.1" x2="812" y2="306.1"/>
		<line class="st45" x1="799.7" y1="281.3" x2="799.7" y2="306.2"/>
		<line class="st45" x1="824.3" y1="281" x2="824.3" y2="306"/>
		<rect x="798.8" y="377.3" class="st24" width="26.7" height="5.9"/>
		<rect x="879.3" y="336.9" class="st43" width="67.8" height="30.9"/>
		<rect x="878.4" y="366.9" class="st8" width="69.5" height="3"/>
		<rect x="878.4" y="366.3" class="st24" width="69.5" height="3"/>
		<polygon class="st46" points="888.7,336.9 879.3,344.6 879.3,348.6 893.9,336.9 		"/>
		<rect x="912" y="337.3" class="st24" width="2.4" height="30.9"/>
		<rect x="879.5" y="337.3" class="st24" width="2.4" height="30.9"/>
		<rect x="944.5" y="337.3" class="st24" width="2.4" height="30.9"/>
		<rect x="879.3" y="351.1" class="st24" width="67.8" height="2.4"/>
		<rect x="879.3" y="337" class="st24" width="67.8" height="2.4"/>
		<polygon class="st46" points="897.9,336.9 879.3,354.5 879.3,359 901.9,336.8 		"/>
		<path class="st20" d="M764.3,344.9c0-3.9-1.1-7.6-3.4-10.8c2.4-5,0.3-11.1-4.7-13.5c-5-2.4-11.1-0.3-13.5,4.7
			c-1.3,2.8-1.3,6,0,8.8c-4.5,6.5-4.5,15.1,0,21.5c-2.4,5-0.3,11.1,4.7,13.5c5,2.4,11.1,0.3,13.5-4.7c1.3-2.8,1.3-6,0-8.8
			C763.1,352.5,764.3,348.7,764.3,344.9z"/>
		<path class="st8" d="M764.3,344.9c0-3.9-1.1-7.6-3.4-10.8c2.4-5,0.3-11.1-4.7-13.5c-5-2.4-11.1-0.3-13.5,4.7c-1.3,2.8-1.3,6,0,8.8
			c-4.5,6.5-4.5,15.1,0,21.5c-2.4,5-0.3,11.1,4.7,13.5c5,2.4,11.1,0.3,13.5-4.7c1.3-2.8,1.3-6,0-8.8
			C763.1,352.5,764.3,348.7,764.3,344.9z"/>
		<path class="st20" d="M764.9,344.9c0-3.9-1.1-7.6-3.4-10.8c2.4-5,0.3-11.1-4.7-13.5c-5-2.4-11.1-0.3-13.5,4.7
			c-1.3,2.8-1.3,6,0,8.8c-4.5,6.5-4.5,15.1,0,21.5c-2.4,5-0.3,11.1,4.7,13.5c5,2.4,11.1,0.3,13.5-4.7c1.3-2.8,1.3-6,0-8.8
			C763.7,352.5,764.9,348.7,764.9,344.9z"/>
		<polygon class="st47" points="753.6,383.2 751.2,383.2 752.4,344 		"/>
		<polygon class="st47" points="752.7,353.8 760.4,350.5 752.7,354.7 		"/>
		<polygon class="st47" points="752,357.4 749.7,354.7 752,358.8 		"/>
		
			<linearGradient id="SVGID_6_" gradientUnits="userSpaceOnUse" x1="904.7296" y1="53.8657" x2="904.7296" y2="59.1859" gradientTransform="matrix(1 0 0 -1 -144.58 406.79)">
			<stop  offset="0" style="stop-color:#808080;stop-opacity:0.25"/>
			<stop  offset="0.54" style="stop-color:#808080;stop-opacity:0.12"/>
			<stop  offset="1" style="stop-color:#808080;stop-opacity:0.1"/>
		</linearGradient>
		<path class="st48" d="M760.1,352.5v0.4l1.8-1.1l-0.2-0.2l-0.1,0.1l-1.4-2v-1.2l-0.5,0v-0.2c-1.4-1.6-1.5,0.2-1.2,0.7
			c0.2,0.3,0.5,0.7,0.8,0.9C759.6,350.1,760.1,352,760.1,352.5L760.1,352.5z"/>
		<path class="st8" d="M766,355.9c0,0-2.2-0.7-3.1-0.7s-0.8,0.4-0.8,0.4C763.4,356,764.7,356.1,766,355.9z"/>
		<g>
			<path class="st20" d="M976.4,344.4c0-3.9-1.1-7.6-3.4-10.8c2.4-5,0.3-11.1-4.7-13.5c-5-2.4-11.1-0.3-13.5,4.7
				c-1.3,2.8-1.3,6,0,8.8c-4.5,6.5-4.5,15.1,0,21.5c-2.4,5-0.3,11.1,4.7,13.5s11.1,0.3,13.5-4.7c1.3-2.8,1.3-6,0-8.8
				C975.3,352,976.5,348.3,976.4,344.4z"/>
			<path class="st8" d="M976.4,344.4c0-3.9-1.1-7.6-3.4-10.8c2.4-5,0.3-11.1-4.7-13.5c-5-2.4-11.1-0.3-13.5,4.7
				c-1.3,2.8-1.3,6,0,8.8c-4.5,6.5-4.5,15.1,0,21.5c-2.4,5-0.3,11.1,4.7,13.5s11.1,0.3,13.5-4.7c1.3-2.8,1.3-6,0-8.8
				C975.3,352,976.5,348.3,976.4,344.4z"/>
			<path class="st20" d="M977,344.4c0-3.9-1.1-7.6-3.4-10.8c2.4-5,0.3-11.1-4.7-13.5s-11.1-0.3-13.5,4.7c-1.3,2.8-1.3,6,0,8.8
				c-4.5,6.5-4.5,15.1,0,21.5c-2.4,5-0.3,11.1,4.7,13.5c5,2.4,11.1,0.3,13.5-4.7c1.3-2.8,1.3-6,0-8.8C975.9,352,977,348.3,977,344.4
				z"/>
			<polygon class="st47" points="965.7,382.7 963.3,382.7 964.5,343.5 			"/>
			<polygon class="st47" points="964.8,353.3 972.5,350 964.8,354.2 			"/>
			<polygon class="st47" points="964.1,356.9 961.8,354.2 964.1,358.4 			"/>
		</g>
	</g>
</g>
</svg>
