<?xml version="1.0" encoding="utf-8"?>
<!-- Generator: Adobe Illustrator 21.0.2, SVG Export Plug-In . SVG Version: 6.00 Build 0)  -->
<svg version="1.1" xmlns="http://www.w3.org/2000/svg" xmlns:xlink="http://www.w3.org/1999/xlink" x="0px" y="0px"
	 viewBox="0 0 1060 664" style="enable-background:new 0 0 1060 664;" xml:space="preserve">
<style type="text/css">
	.st0{opacity:5.000000e-02;fill:#6C63FF;enable-background:new    ;}
	.st1{opacity:0.3;fill:#31BF97;enable-background:new    ;}
	.st2{fill:#3F3D56;}
	.st3{display:none;}
	.st4{display:inline;}
	.st5{opacity:0.7;}
	.st6{fill:url(#SVGID_1_);}
	.st7{fill:#6C63FF;}
	.st8{opacity:0.1;enable-background:new    ;}
	.st9{fill:#EEEEEE;}
	.st10{fill:none;stroke:#E0E0E0;stroke-width:8;stroke-miterlimit:10;}
	.st11{fill:url(#SVGID_2_);}
	.st12{fill:none;stroke:#BDBDBD;stroke-width:5;stroke-miterlimit:10;}
	.st13{fill:#B84733;}
	.st14{fill:#F55F44;}
	.st15{fill:#39447A;}
	.st16{opacity:5.000000e-02;enable-background:new    ;}
	.st17{fill:#FDA57D;}
	.st18{fill:#333333;}
	.st19{fill:url(#SVGID_3_);}
	.st20{fill:#4DB6AC;}
	.st21{opacity:0.6;fill:none;stroke:#535461;stroke-miterlimit:10;enable-background:new    ;}
	.st22{fill:url(#SVGID_4_);}
	.st23{fill:#E0E0E0;}
	.st24{fill:#535461;}
	.st25{fill:url(#SVGID_5_);}
	.st26{fill:#3E3F49;}
	.st27{fill:#C4C4C4;}
	.st28{fill:#5D291B;}
	.st29{opacity:0.1;}
	.st30{opacity:0.9;fill:#F86463;enable-background:new    ;}
	.st31{opacity:0.9;fill:#B08EB6;enable-background:new    ;}
	.st32{opacity:0.9;fill:#33D43C;enable-background:new    ;}
	.st33{opacity:0.9;fill:#FFCE14;enable-background:new    ;}
	.st34{fill:#FFFFFF;}
	.st35{fill:none;stroke:#FFFFFF;stroke-width:2;stroke-miterlimit:10;}
	.st36{fill:none;stroke:#FFFFFF;stroke-miterlimit:10;}
	.st37{opacity:0.9;fill:#25C6BD;enable-background:new    ;}
	.st38{fill:#E2E2E0;}
	.st39{fill:none;stroke:#FFFFFF;stroke-width:0.25;stroke-miterlimit:10;}
	.st40{fill:#6B3D8E;}
	.st41{fill:#F2F2F2;}
	.st42{opacity:3.000000e-02;enable-background:new    ;}
	.st43{opacity:0.4;fill:#6C63FF;enable-background:new    ;}
	.st44{fill:#9B9B9B;}
	.st45{fill:#808080;}
</style>
<g id="Layer_4">
	<path class="st0" d="M469,185c-10.2-9.6-24.5-22.1-42.8-35.2c-8.9-6.4-42.3-24.6-90.4-49.1C310.8,88,284,79.6,256.3,75.6
		c-38.8-5.4-82.1,1.2-109.2,38.9c-30.1,42-27.8,117.7,4.8,156.2c20.7,24.5,47.2,19.6,57.2,44.5c7.7,19.4-3.3,31.5-12.1,71.7
		c-6.9,31.4-16.7,76.4,0,112c15.5,33,48.8,47.2,74.7,57.9c44.5,18.3,77,16.6,171.3,14.1c167.2-4.5,187.5-2.5,209,1
		c70.5,11.4,71.6,25.6,121,25c26.8-0.3,108.2-1.3,164-64c7.8-8.7,49.7-55.9,46-122c-4.6-81.4-76.4-153.7-148-164
		c-87.9-12.6-128.1,75.1-214,66C550.4,305.5,499.8,238,469,185z"/>
	<g>
		<path class="st1" d="M207,431.8c0,26.4-14.9,35.6-33.4,35.6s-33.4-9.2-33.4-35.6c0-26.4,33.4-60,33.4-60S207,405.4,207,431.8z"/>
		<polygon class="st2" points="172.4,463.4 172.7,441.3 187,413.9 172.8,437.8 172.9,427.9 182.8,408.1 173,425.2 173,425.2 
			173.3,407.3 183.8,391.6 173.3,404.5 173.5,371.8 172.4,415.2 172.5,413.4 161.8,396.2 172.3,416.8 171.3,436.8 171.3,436.2 
			159,418.2 171.2,438.1 171.1,440.6 171.1,440.6 171.1,440.8 168.6,491.5 172,491.5 172.4,465.3 184.6,445.4 		"/>
	</g>
	<g>
		<path class="st1" d="M721,467.8c0,26.4-14.9,35.6-33.4,35.6c-18.4,0-33.4-9.2-33.4-35.6c0-26.4,33.4-60,33.4-60
			S721,441.4,721,467.8z"/>
		<polygon class="st2" points="686.4,499.4 686.7,477.3 701,449.9 686.8,473.8 686.9,463.9 696.8,444.1 687,461.2 687,461.2 
			687.3,443.3 697.8,427.6 687.3,440.5 687.5,407.8 686.4,451.2 686.5,449.4 675.8,432.2 686.3,452.8 685.3,472.8 685.3,472.2 
			673,454.2 685.2,474.1 685.1,476.6 685.1,476.6 685.1,476.8 682.6,527.5 686,527.5 686.4,501.3 698.6,481.4 		"/>
	</g>
	<g>
		<path class="st1" d="M773,425.2c0,16.9-9.6,22.8-21.4,22.8c-11.8,0-21.4-5.9-21.4-22.8c0-16.9,21.4-38.5,21.4-38.5
			S773,408.3,773,425.2z"/>
		<polygon class="st2" points="750.8,445.5 751.1,431.3 760.2,413.8 751.1,429.1 751.2,422.7 757.5,410.1 751.2,421 751.2,421 
			751.4,409.6 758.1,399.5 751.4,407.8 751.5,386.8 750.8,414.6 750.9,413.4 744,402.4 750.8,415.6 750.1,428.4 750.1,428.1 
			742.2,416.5 750.1,429.3 750,430.9 750,430.9 750,431.1 748.4,463.5 750.6,463.5 750.8,446.7 758.7,434 		"/>
	</g>
</g>
<g id="Layer_2" class="st3">
	<g class="st4">
		<g class="st5">
			
				<linearGradient id="SVGID_1_" gradientUnits="userSpaceOnUse" x1="710.9803" y1="221.0137" x2="710.9803" y2="249.0808" gradientTransform="matrix(1 0 0 -1 -146.88 590.11)">
				<stop  offset="0" style="stop-color:#808080;stop-opacity:0.25"/>
				<stop  offset="0.54" style="stop-color:#808080;stop-opacity:0.12"/>
				<stop  offset="1" style="stop-color:#808080;stop-opacity:0.1"/>
			</linearGradient>
			<path class="st6" d="M573.4,346v-5h-25.1v23.2c0,2.7,2.2,4.9,4.9,4.9h15.3c2.7,0,4.9-2.2,4.9-4.9v-5.1c3.6,0,6.5-2.9,6.5-6.5
				S577,346,573.4,346L573.4,346z M573.4,356.6v-8c2.2-0.1,4.1,1.7,4.1,3.9c0.1,2.2-1.7,4.1-3.9,4.1
				C573.6,356.6,573.5,356.6,573.4,356.6L573.4,356.6z"/>
		</g>
		<path class="st7" d="M572.6,346.8c-3.3,0-5.9,2.7-5.9,5.9c0,3.3,2.7,5.9,5.9,5.9c3.3,0,5.9-2.7,5.9-5.9l0,0
			C578.5,349.5,575.9,346.8,572.6,346.8z M572.6,356.4c-2,0-3.7-1.6-3.7-3.7c0-2,1.6-3.7,3.7-3.7s3.7,1.6,3.7,3.7
			C576.3,354.8,574.6,356.4,572.6,356.4C572.6,356.4,572.6,356.4,572.6,356.4L572.6,356.4z"/>
		<path class="st8" d="M572.6,346.8c-3.3,0-5.9,2.7-5.9,5.9c0,3.3,2.7,5.9,5.9,5.9c3.3,0,5.9-2.7,5.9-5.9l0,0
			C578.5,349.5,575.9,346.8,572.6,346.8z M572.6,356.4c-2,0-3.7-1.6-3.7-3.7c0-2,1.6-3.7,3.7-3.7s3.7,1.6,3.7,3.7
			C576.3,354.8,574.6,356.4,572.6,356.4C572.6,356.4,572.6,356.4,572.6,356.4L572.6,356.4z"/>
		<path class="st7" d="M549.7,342.2h22.9l0,0v21.2c0,2.5-2,4.5-4.5,4.5l0,0h-13.9c-2.5,0-4.5-2-4.5-4.5l0,0V342.2L549.7,342.2z"/>
		<path class="st8" d="M568.4,342.2v21.2c0,2.5-2,4.5-4.5,4.5l0,0h2.3c2.5,0,4.5-2,4.5-4.5v0v-21.2H568.4z"/>
		<path class="st9" d="M554.2,325.2c-0.4,0-0.8,0.2-1,0.5c-0.3,0.5,0.2,1.2,0.7,1.5c0.9,0.7,1.9,1.4,2.5,2.3c0.6,1,0.8,2.3,0.1,3.2
			c-0.9,1.2-3,1.5-3.2,2.9c-0.1,1,0.7,1.8,1.5,2.2c2.1,1.2,4.7,1.5,6.2,3.3c0.6-1.3,2-2,3.4-2.3s2.8-0.3,4.2-0.5
			c0.5,0,0.9-0.2,1.2-0.6c0.4-0.8-0.7-1.7-0.3-2.5c0.3-0.6,1.2-0.6,1.8-0.8c1-0.4,1.4-1.7,1.2-2.8c-0.3-1.1-1.1-1.9-2-2.6
			c-2.3-1.8-5.1-2.9-7.9-3.7c-1.3-0.4-2.9-0.9-4.2-1S555.5,325,554.2,325.2z"/>
		<line class="st10" x1="393.6" y1="373.3" x2="345.8" y2="522.3"/>
		<g class="st5">
			
				<linearGradient id="SVGID_2_" gradientUnits="userSpaceOnUse" x1="504.1655" y1="30.8692" x2="504.1655" y2="375.11" gradientTransform="matrix(1 0 0 -1 -146.88 590.11)">
				<stop  offset="0" style="stop-color:#808080;stop-opacity:0.25"/>
				<stop  offset="0.54" style="stop-color:#808080;stop-opacity:0.12"/>
				<stop  offset="1" style="stop-color:#808080;stop-opacity:0.1"/>
			</linearGradient>
			<path class="st11" d="M430.7,539.1c-5.9,0.3-11.1,5.3-11.1,5.3l-2.5-6.3l-0.2,0.1c1.2-5.4,26.4-117.2,1.2-126.8
				c-19.4-7.4-39.9-16.6-56.1-16.2v-26.4h22.6v-0.9h17.9c3.4-2.4-1.6-4.1-7.1-5.2c0.2-0.3,0.4-0.5,0.6-0.8l28.6-51.4
				c0,0,6.6-10.8,2.4-16c-4.2-5.2-10.4,13.2-10.4,13.2L393,341.5c0,0-23.8-24.8-38.8-37.1c-1.7-1.7-3.6-3.1-5.6-4.3
				c-2.8-1.9-4.8-2.8-5.9-2.5h0c-2.3-0.6-4.7-1-7-1h-1.9v-3.9c8.5-2.8,15.4-9.3,18.6-17.7c5.4-8.9,6.4-19.8,2.7-29.5
				c0.3,0,0.6-0.1,0.8-0.3c0.9-0.5,0.9-1.7,0.9-2.8c-0.6-6.9-4.6-13-10.6-16.4c-2.4-1.3-5.1-2.2-6.9-4.3c-1.5-1.8-2.1-4.3-4-5.7
				c-2.2-1.7-5.3-1.4-8-0.7c-3,0.9-5.8,2.2-8.3,3.9c-2.9,2-5.5,4.5-8.8,5.6c-2.4,0.8-4.9,0.8-7.3,1.5c-3.7,1.2-6.6,4-7.9,7.7
				c-0.6,1.9-0.8,4-0.7,6c-1.4,2.4-2.6,5-3.4,7.7l-0.5,0.3l0.5-0.2c-3.7,12.4,0,25.8,9.5,34.5c3.7,4.8,8.7,8.4,14.5,10.3v4.7
				c-4.1,0.9-8,2.5-11.5,4.7l0,0c0,0-0.3,0.2-0.8,0.5l-0.2,0.1c-3.5,2.4-15.1,11-14.8,20.3c0,0.4,0,0.7,0,1.1c-0.6,2.7-1,5.5-1,8.2
				v67.7c0,7.5,2.5,14.7,7.1,20.6c-9.8,2.2-16.1,5.5-16.1,9.3c0,0.3,0,0.6,0,0.9c0,6.6,19.8,12,44.2,12c3,0,5.8-0.1,8.6-0.2
				l27.6,22.3L314,536.2c0,0-14.6,11.3-3.3,15.1c11.3,3.8,34.3,6.6,34.3,6.6s3.8-6.6-1.4-9.4c-5.2-2.8-12.2-1.4-12.2-1.4l0.9-5.6
				c0,0,76.7-65.9,60.7-88.4c-3.1-4.3-6.1-8.8-9.2-13.2l12.1,1.1l2.8,103.4l0.3-0.1c-0.7,2-5.6,17.4,5.2,14.8
				c11.6-2.8,32.6-12.6,32.6-12.6S436.6,538.8,430.7,539.1z M384.5,361.2l-22.6-6.6v-19.3l24.5,26
				C385.3,361.3,384.5,361.2,384.5,361.2z"/>
		</g>
		<circle cx="324.1" cy="260.6" r="33.1"/>
		<path class="st7" d="M361.9,336.5l25.3,26.8c1.9,2,5,2.1,7,0.2c0.4-0.3,0.7-0.8,0.9-1.2l28-50.2l-7.8-2.8l-23,33.1
			c0,0-43.2-45-49.2-42.8C337,301.9,361.9,336.5,361.9,336.5z"/>
		<line class="st12" x1="313.6" y1="429.4" x2="276.3" y2="526"/>
		<line class="st12" x1="332" y1="429.4" x2="369.2" y2="526"/>
		<ellipse class="st13" cx="322.8" cy="430.1" rx="43.2" ry="11.7"/>
		<ellipse class="st14" cx="322.8" cy="429.2" rx="43.2" ry="11.7"/>
		<line class="st12" x1="304.6" y1="450.6" x2="345.4" y2="463.2"/>
		<line class="st12" x1="340.9" y1="450.6" x2="300.1" y2="463.2"/>
		<path class="st7" d="M323.3,298.7h12.8c14.2,0,25.8,11.5,25.8,25.8v68.1l0,0h-73.6l0,0v-58.8C288.2,314.4,303.9,298.8,323.3,298.7
			C323.3,298.7,323.3,298.7,323.3,298.7z"/>
		<path class="st15" d="M288.3,392.6h73.6l0,0v40l0,0h-40.9c-18,0-32.7-14.6-32.7-32.7l0,0V392.6L288.3,392.6z"/>
		<path class="st16" d="M289.2,326.4l45,42.8h49.7v-6.4l-42.8-12.4l-36.6-45.2C304.6,305.1,287.9,315.4,289.2,326.4z"/>
		<path class="st7" d="M289.2,325.5l45,42.8h49.7v-6.4l-42.8-12.4l-36.6-45.2C304.6,304.2,287.9,314.4,289.2,325.5z"/>
		<path class="st17" d="M383.9,361.8c0,0,23.9,1.8,17.5,6.4h-17.5V361.8z"/>
		<path class="st17" d="M415.2,309.3c0,0,6-17.9,10.1-12.9c4.1,5.1-2.3,15.6-2.3,15.6L415.2,309.3z"/>
		<polygon class="st16" points="288.3,392.6 288.3,394.7 361.9,394.9 361.9,392.6 		"/>
		<path class="st15" d="M345.5,435.2l49.5,4.5l2.7,101.1l17.7-5.8c0,0,26.5-114.6,1.2-124.2c-25.3-9.7-52.6-22.4-68.9-12
			C331.4,409.2,345.5,435.2,345.5,435.2z"/>
		<path class="st8" d="M348.5,404.1c0,0,27.1,13.8,30.8,29.4"/>
		<path class="st15" d="M319.5,432.2l38.6,31.3l-43.2,69.5l17.9,5.1c0,0,75-64.4,59.3-86.5c-15.6-22.1-31.3-47.8-50.6-48.3
			C322.3,402.7,319.5,432.2,319.5,432.2z"/>
		<polygon class="st16" points="380.3,330.5 389.9,347.1 392.2,342.5 		"/>
		<path class="st18" d="M314.9,532.9c0,0-14.3,11-3.2,14.7c11,3.7,33.6,6.4,33.6,6.4s3.7-6.4-1.4-9.2c-5.1-2.8-12-1.4-12-1.4
			l0.9-5.5L314.9,532.9z"/>
		<path class="st18" d="M398.1,540.5c0,0-6.3,17.4,5.1,14.7c11.3-2.7,31.9-12.3,31.9-12.3s-0.3-7.4-6-7.1
			c-5.8,0.3-10.9,5.2-10.9,5.2l-2.5-6.2L398.1,540.5z"/>
		<path class="st17" d="M325.1,282.7L325.1,282.7c5.1,0,9.2,4.1,9.2,9.2v9.2c0,5.1-4.1,9.2-9.2,9.2l0,0c-5.1,0-9.2-4.1-9.2-9.2v-9.2
			C315.9,286.8,320,282.7,325.1,282.7z"/>
		<path class="st16" d="M325.1,283.6c-5.1,0-9.2,4.1-9.2,9.2v3.1c6,2,12.4,2,18.4,0v-3.1C334.3,287.7,330.1,283.6,325.1,283.6z"/>
		<circle class="st17" cx="325.1" cy="267" r="29.4"/>
		<path class="st16" d="M295.6,265.7c0,0,7.4,1.9,11.5-6.5c4.1-8.4,7.4-12.9,24.4-8s20.4,5.5,21.3,0.9c0.6-3.2-5.5-11-9.4-15.5
			c-1.9-2.2-5-3.6-8.3-3.6h-19.2l-11.5,5.3l-8.7,7.6l-1.8,10.3L295.6,265.7z"/>
		<path d="M295.6,264.8c0,0,7.4,1.9,11.5-6.5c4.1-8.4,7.4-12.9,24.4-8s20.4,5.5,21.3,0.9c0.6-3.2-5.5-11-9.4-15.5
			c-1.9-2.2-5-3.6-8.3-3.6h-19.2l-11.5,5.3l-8.7,7.6l-1.8,10.3L295.6,264.8z"/>
		<ellipse class="st17" cx="298.6" cy="264.7" rx="3" ry="6"/>
		<path d="M296.5,249.3c-0.7-3.9-1.4-7.9-0.1-11.6c1.2-3.6,4.1-6.4,7.7-7.5c2.3-0.7,4.8-0.7,7.1-1.5c3.2-1.1,5.8-3.5,8.6-5.5
			c2.5-1.7,5.2-3,8.1-3.8c2.6-0.8,5.7-1,7.8,0.6c1.8,1.4,2.4,3.9,3.9,5.6c1.7,2,4.4,2.9,6.7,4.2c5.9,3.3,9.8,9.3,10.4,16
			c0.1,1,0,2.2-0.8,2.7c-0.5,0.3-1.1,0.4-1.7,0.3c-11.8-0.2-23.5-0.3-35.3-1.4c-3.6-0.3-7.3-0.8-10.9-0.6
			c-5.7,0.2-11.2,1.8-16.1,4.5"/>
		<g class="st5">
			
				<linearGradient id="SVGID_3_" gradientUnits="userSpaceOnUse" x1="333.9081" y1="116.8414" x2="414.4016" y2="116.8414" gradientTransform="matrix(1 0 0 -1 -146.88 590.11)">
				<stop  offset="0" style="stop-color:#808080;stop-opacity:0.25"/>
				<stop  offset="0.54" style="stop-color:#808080;stop-opacity:0.12"/>
				<stop  offset="1" style="stop-color:#808080;stop-opacity:0.1"/>
			</linearGradient>
			<path class="st19" d="M267.1,453.4c1.6-6.3-0.9-12.9-6.2-16.6c-1.4-0.9-2.9-1.6-4.1-2.7c-2.1-1.8-3.3-4.4-4.2-7
				c-2.1-6.2-2.7-13.3-6.4-18.9c-3.3-5.1-9.8-6.6-15.5-7.2c-2.1-0.2-4.3-0.3-6.2,0.6c-3.2,1.4-4.7,5.2-4.9,8.7
				c-0.1,3.5,0.8,7,1,10.5c0.2,3.5-0.4,7.4-3,9.7s-6.3,2.7-9.7,3.1c-4.5,0.6-8.9,1.7-13.2,3.3c-3.6,1.3-7.6,3.6-7.7,7.4
				c-0.1,3.1,2.4,5.6,4.3,8.1c3.5,4.6,5.3,10.7,4.1,16.4c-1.2,5.8-5.3,10.7-6,16.6c-0.2,1.5-0.1,3.1,0.6,4.4
				c0.6,0.9,1.3,1.7,2.2,2.4c2.2,1.7,4.7,3.1,6.8,4.9c4.4,3.9,6.7,9.5,8.5,15c0.2,0.5,0.3,1.1,0.5,1.6h-4.3
				c-8.7,0-15.8,7.1-15.8,15.8l0,0c0,8.7,7.1,15.8,15.8,15.8h42.8c8.7,0,15.8-7.1,15.8-15.8l0,0c0-8.8-7.1-15.9-15.9-15.9h-11.7
				c2.8-3.7,5.7-7.2,9.9-8.6c4.3-1.4,9.5-0.6,12.8-3.6c1.6-1.5,2.5-3.6,2.9-5.8c0.7-3.9,0-7.9-1.9-11.4c-1.3-2.4-3.3-4.6-3.7-7.3
				c-0.4-2.3,0.5-4.7,1.6-6.8C259.6,464.5,265.3,459.9,267.1,453.4z"/>
		</g>
		<path class="st20" d="M230.5,404.6c-2-0.2-4.1-0.3-5.9,0.6c-3,1.4-4.5,5-4.6,8.3s0.7,6.6,0.9,10s-0.4,7-2.8,9.3s-6,2.5-9.2,3
			c-4.3,0.6-8.5,1.6-12.5,3.1c-3.4,1.2-7.2,3.5-7.4,7.1c-0.1,3,2.3,5.3,4,7.7c3.4,4.4,5,10.2,3.9,15.6c-1.2,5.5-5,10.2-5.7,15.8
			c-0.2,1.4-0.1,2.9,0.6,4.2c0.5,0.9,1.3,1.6,2.1,2.2c2.1,1.6,4.4,2.9,6.4,4.7c4.1,3.7,6.4,9,8.1,14.3c1.7,5.2,3,10.5,4,15.8
			c3.6-2.3,8.2-2.3,12-4.1c8.1-4,10.9-15.5,19.4-18.4c4.1-1.4,9-0.6,12.2-3.4c1.6-1.4,2.4-3.4,2.8-5.5c0.7-3.7,0-7.5-1.8-10.8
			c-1.3-2.3-3.2-4.4-3.6-7c-0.3-2.2,0.5-4.5,1.5-6.4c3.1-5.6,8.5-10,10.2-16.1c1.5-6-0.9-12.3-5.9-15.8c-1.3-0.9-2.8-1.5-4-2.6
			c-2-1.7-3.1-4.2-4-6.6c-2-5.9-2.6-12.6-6.1-18C242.1,406.5,235.9,405.1,230.5,404.6z"/>
		<path class="st21" d="M230.4,404.8c0,0,7.5,101-12.1,118.4"/>
		<path class="st7" d="M204.8,511.9h40.7c8.3,0,15.1,6.8,15.1,15.1v0c0,8.3-6.8,15.1-15.1,15.1h-40.7c-8.3,0-15.1-6.8-15.1-15.1v0
			C189.7,518.6,196.5,511.9,204.8,511.9z"/>
		<path class="st21" d="M189,444c0,0,19.3-2.2,42.8,12.1"/>
		<path class="st21" d="M231.4,468.1c0,0,10.7-17.7,33.7-21.1"/>
		<path class="st21" d="M190.8,485.1c0,0,26.7-4.5,39,3"/>
		<path class="st21" d="M228.3,498.5c0,0,14-6.3,29.7-1.2"/>
		
			<linearGradient id="SVGID_4_" gradientUnits="userSpaceOnUse" x1="601.5102" y1="185.9264" x2="601.5102" y2="187.3065" gradientTransform="matrix(1 0 0 -1 -146.88 590.11)">
			<stop  offset="0" style="stop-color:#808080;stop-opacity:0.25"/>
			<stop  offset="0.54" style="stop-color:#808080;stop-opacity:0.12"/>
			<stop  offset="1" style="stop-color:#808080;stop-opacity:0.1"/>
		</linearGradient>
		<path class="st22" d="M454.6,404.2c0.4,0,0.7-0.3,0.7-0.7c0-0.4-0.3-0.7-0.7-0.7c-0.4,0-0.7,0.3-0.7,0.7
			C453.9,403.9,454.2,404.2,454.6,404.2z"/>
		<line class="st10" x1="555.9" y1="373.3" x2="603.7" y2="543.5"/>
		<rect x="345.6" y="368.3" class="st23" width="258.4" height="10.1"/>
		<path class="st24" d="M412.2,365.9h36.3c1.7,0,3,1.3,3,3l0,0c0,1.7-1.3,3-3,3h-36.3c-1.7,0-3-1.3-3-3l0,0
			C409.2,367.3,410.6,365.9,412.2,365.9z"/>
		<g class="st5">
			
				<linearGradient id="SVGID_5_" gradientUnits="userSpaceOnUse" x1="487.6013" y1="294.0238" x2="487.6013" y2="366.7563" gradientTransform="matrix(1 0 0 -1 0 666)">
				<stop  offset="0" style="stop-color:#808080;stop-opacity:0.25"/>
				<stop  offset="0.54" style="stop-color:#808080;stop-opacity:0.12"/>
				<stop  offset="1" style="stop-color:#808080;stop-opacity:0.1"/>
			</linearGradient>
			<path class="st25" d="M448,299.2h79.2c7.2,0,13,5.8,13,13V359c0,7.2-5.8,13-13,13H448c-7.2,0-13-5.8-13-13v-46.8
				C435,305.1,440.8,299.2,448,299.2z"/>
		</g>
		<path class="st26" d="M449.2,300.6h75c6.8,0,12.3,5.5,12.3,12.3v46.7c0,6.8-5.5,12.3-12.3,12.3h-75c-6.8,0-12.3-5.5-12.3-12.3
			v-46.7C436.9,306.1,442.4,300.6,449.2,300.6z"/>
		<path class="st24" d="M450.6,300.6h75c6.8,0,12.3,5.5,12.3,12.3v46.7c0,6.8-5.5,12.3-12.3,12.3h-75c-6.8,0-12.3-5.5-12.3-12.3
			v-46.7C438.3,306.1,443.8,300.6,450.6,300.6z"/>
		<circle class="st23" cx="492.7" cy="335.8" r="3.2"/>
	</g>
</g>
<g id="Layer_3">
	<path class="st27" d="M417,545c61.4-3.6,106.1-0.8,184,4c57.5,3.6,190,11.8,190,22c0,8.1-83.9,21.1-170,16c-52.9-3.1-63-10.5-110-8
		c-57.8,3.1-105.5,17.5-108,10c-2-6.1,27.9-18.8,26-24c-2.5-6.7-53.1,11.3-118,18c-48.1,5-101.4,3.5-102-2
		c-0.7-6.6,65.7-18.8,78.8-21.3C348.7,548.5,396.7,546.2,417,545z"/>
</g>
<g id="Layer_1">
	<g>
		<path class="st20" d="M304.4,429.3c0.1-9.7-2.9-19.2-8.5-27.1c6.1-12.6,0.8-27.8-11.9-33.9c-12.6-6.1-27.8-0.8-33.9,11.9
			c-3.4,7-3.4,15.1,0,22c-11.3,16.3-11.3,37.9,0,54.1c-6.1,12.6-0.8,27.8,11.9,33.9c12.6,6.1,27.8,0.8,33.9-11.9
			c3.4-7,3.4-15.1,0-22C301.5,448.5,304.5,439,304.4,429.3z"/>
		<path class="st8" d="M304.4,429.3c0.1-9.7-2.9-19.2-8.5-27.1c6.1-12.6,0.8-27.8-11.9-33.9c-12.6-6.1-27.8-0.8-33.9,11.9
			c-3.4,7-3.4,15.1,0,22c-11.3,16.3-11.3,37.9,0,54.1c-6.1,12.6-0.8,27.8,11.9,33.9c12.6,6.1,27.8,0.8,33.9-11.9
			c3.4-7,3.4-15.1,0-22C301.5,448.5,304.5,439,304.4,429.3z"/>
		<path class="st20" d="M305.9,429.3c0.1-9.7-2.9-19.2-8.5-27.1c6.1-12.6,0.8-27.8-11.9-33.9c-12.6-6.1-27.8-0.8-33.9,11.9
			c-3.4,7-3.4,15.1,0,22c-11.3,16.3-11.3,37.9,0,54.1c-6.1,12.6-0.8,27.8,11.9,33.9c12.6,6.1,27.8,0.8,33.9-11.9
			c3.4-7,3.4-15.1,0-22C303,448.5,306,439,305.9,429.3z"/>
		<polygon class="st28" points="277.5,525.7 271.5,525.7 274.5,427.1 		"/>
		<polygon class="st28" points="275.3,451.7 294.7,443.5 275.3,454 		"/>
		<polygon class="st28" points="273.5,460.7 267.8,454 273.4,464.4 		"/>
	</g>
	<g class="st29">
		<circle cx="393.9" cy="92.9" r="50.1"/>
	</g>
	<circle class="st30" cx="389.6" cy="91.2" r="50.1"/>
	<g class="st29">
		<circle cx="793.9" cy="102.9" r="50.1"/>
	</g>
	<g class="st29">
		<circle cx="899.9" cy="273.9" r="50.1"/>
	</g>
	<circle class="st31" cx="789.6" cy="101.2" r="50.1"/>
	<circle class="st32" cx="894.6" cy="273.2" r="50.1"/>
	<g class="st29">
		<circle cx="923.9" cy="467.9" r="50.1"/>
	</g>
	<circle class="st33" cx="918.6" cy="467.2" r="50.1"/>
	<g>
		<g>
			<g>
				<path class="st34" d="M827.8,89.7c0-0.4,0-0.7,0-1c0-1.2-0.3-2-0.9-2.6c-0.6-0.6-1.4-0.9-2.5-0.9c-1.3,0-3.7,0-3.7,0l0,1.4
					c0,0,2.4,0,3.7,0c0.7,0,1.1,0.1,1.4,0.4c0.3,0.3,0.5,0.9,0.5,1.6c0,0.3,0,0.6,0,1c0,1.4,0,3.3,0,4.5c-0.1,2-1.7,2.6-5.6,3.9
					l-0.1,0c-1.1,0.4-2.9,0.8-4.7,1.4c-3,0.8-6,1.7-7.5,2.3c-3,1.2-3,3.1-3,6v12.6h1.4v-12.6c0-3,0.1-3.9,2.1-4.7
					c1.4-0.6,4.6-1.5,7.4-2.2c1.9-0.5,3.6-1,4.8-1.4l0.1,0c3.9-1.3,6.4-2.1,6.5-5.2C827.8,93,827.8,91,827.8,89.7z"/>
			</g>
		</g>
		<g>
			<rect x="789.2" y="82.3" class="st34" width="34.5" height="7"/>
		</g>
		<g>
			<g>
				<rect x="790.1" y="80.8" class="st34" width="32.7" height="5"/>
			</g>
			<g>
				<rect x="790.1" y="85.8" class="st34" width="32.7" height="5.1"/>
			</g>
		</g>
		<g>
			<g>
				<path class="st34" d="M808,109.5c-0.1,1.1-0.6,3.6-2,3.6c-1.3,0-1.7-2.6-1.8-3.7l0,0c0,0-1.4,14.9-0.9,20.9c0.1,1,1,2.8,3,2.8
					c1.8,0,2.7-1.9,2.8-2.9C809.8,124.4,808,110.1,808,109.5z M806.2,130.7c-0.5,0-1-0.4-1-1s0.4-1,1-1c0.5,0,1,0.4,1,1
					S806.7,130.7,806.2,130.7z"/>
			</g>
			<g>
				<path class="st34" d="M805.9,113.1c1.5,0,1.9-2.5,2-3.6c0,0,0,0,0,0l-3.8,0C804.2,110.5,804.6,113.1,805.9,113.1z"/>
			</g>
		</g>
	</g>
	<ellipse class="st35" cx="775.2" cy="104.5" rx="16.7" ry="3"/>
	<path class="st34" d="M791,134.8c-3.5,1.2-9.1,2.7-16.2,2.6c-7.2-0.2-12.8-2-16.2-3.4c-0.3-10-0.6-20-0.9-29.9
		c0.5,0.4,1.4,1.1,2.6,1.7c3.7,2.1,7.4,2.3,14.5,2.6c2.6,0.1,8.9-0.4,11.1-0.9c3.2-0.6,4.2-1,5.1-1.7c0.8-0.6,1.4-1.3,1.7-1.7
		C792.1,114.3,791.6,124.5,791,134.8z"/>
	<path class="st36" d="M758.1,119.4c-1.4,0-2.6-1.2-2.6-2.6v-5.1c0-1.4,1.2-2.6,2.6-2.6"/>
	<path class="st36" d="M791.2,118.5c1.4,0.1,2.6-1,2.7-2.5l0.2-5.1c0.1-1.4-1-2.6-2.5-2.7"/>
	<g class="st29">
		<circle cx="592.9" cy="64.9" r="50.1"/>
	</g>
	<circle class="st37" cx="588.6" cy="63.2" r="50.1"/>
	<g>
		<g>
			<g>
				<path class="st34" d="M555.6,57.8c0,1,0,1.9,0,2.9c0.7,0,1.1,0,1.6,0c0,1,0,1.7,0,2.7c0,0,0.1,0,0.2,0c1.6,0,3.3,0,4.9,0
					c0.3,0,0.6,0,0.9-0.1c0.6-0.1,1.1-0.4,1.5-1c0.4-0.7,0.6-1.4,0.6-2.2c0-0.5,0-1,0-1.5c0,0,0-0.1,0-0.1c-0.1,0-0.1,0-0.2,0
					c-0.2,0-0.3-0.1-0.3-0.4c0-0.2,0-0.4,0-0.6c0-0.3,0.1-0.4,0.3-0.4c0.4,0,0.7,0,1.1,0c0.2,0,0.3,0,0.5,0c0-0.1-0.1-0.2-0.1-0.3
					c0-0.2,0.1-0.4,0.3-0.4c0.2-0.1,0.5,0,0.8-0.1c0.1,0,0.2,0,0.2-0.2c0-1.2,0-2.4,0-3.6c0-0.1,0-0.2-0.2-0.2c0,0-0.1,0.1-0.1,0.1
					c-0.2,0.2-0.4,0.1-0.5-0.1c-0.1-0.1-0.2-0.1-0.3-0.1c-0.8,0.1-1.6,0.2-2.4,0.3c-0.4,0.4-1,0.7-1.6,0.7c-1.3,0-2.3-1.1-2.3-2.4
					c0-1.3,1-2.4,2.3-2.4c0.6,0,1.1,0.2,1.5,0.6c0.8,0.1,1.7,0.2,2.5,0.3c0.1,0,0.2,0,0.2-0.1c0.1-0.2,0.4-0.2,0.5-0.1
					c0.1,0.1,0.2,0.1,0.3,0c0.3-0.1,0.6-0.2,0.9-0.3c0.7-0.1,1.4,0,2,0.3c0,0,0.1,0,0.2,0c0.3-0.2,0.4-0.2,0.6,0
					c0.1,0.1,0.1,0.1,0.2,0.1c0.2,0,0.5-0.1,0.7-0.1c0.7,0,1.3-0.1,1.9-0.3c0.4-0.4,0.9-0.6,1.5-0.6c1.3,0,2.3,1.1,2.3,2.4
					c0,1.3-1,2.4-2.3,2.4c-0.6,0-1.2-0.3-1.6-0.7c-0.8-0.1-1.7-0.2-2.5-0.3c-0.1,0-0.2,0-0.2,0.1c-0.2,0.2-0.4,0.3-0.6,0
					c0,0,0-0.1-0.1-0.1c-0.1,0.1-0.1,0.1-0.1,0.2c0,1.2,0.1,2.5,0.1,3.7c0,0,0,0.1,0,0.1c0,0,0,0,0,0c0.2,0,0.4,0,0.6,0
					c0.4,0,0.6,0.3,0.3,0.7c0,0,0,0,0,0c0,0,0.1,0,0.2,0c0.5,0,0.9,0,1.4,0c0.2,0,0.4,0.1,0.4,0.4c0,0.2,0,0.4,0,0.6
					c0,0.2-0.2,0.4-0.4,0.4c-0.1,0-0.1,0-0.2,0c0,0.4,0,0.7,0,1.1c0,0.5,0,1.1,0.1,1.6c0.1,0.7,0.4,1.2,0.9,1.5
					c0.3,0.2,0.7,0.3,1.1,0.4c0.4,0.1,0.9,0.1,1.3,0.2c0.5,0.1,0.9,0.3,1.4,0.4c0.6,0.2,1.1,0.5,1.6,0.8c0.2,0.1,0.3,0.2,0.5,0.4
					c0.3,0.3,0.6,0.5,0.9,0.8c0.3,0.3,0.5,0.6,0.8,0.9c0.3,0.4,0.6,0.8,0.9,1.2c0.2,0.4,0.4,0.8,0.6,1.2c0.2,0.4,0.4,0.9,0.5,1.3
					c0.3,0.7,0.5,1.5,0.7,2.3c0.1,0.3,0.1,0.6,0.2,0.9c-1.7,0.3-3.4,0.7-5,1c0-0.1,0-0.1,0-0.2c-0.1-0.3-0.1-0.6-0.2-0.9
					c-0.1-0.4-0.3-0.9-0.4-1.3c-0.2-0.5-0.4-1-0.7-1.5c-0.3-0.5-0.6-0.9-1-1.2c-0.3-0.3-0.6-0.5-1-0.6c-0.7-0.2-1.4-0.1-2.1,0.2
					c-0.4,0.1-0.8,0.4-1.2,0.5c-0.4,0.2-0.7,0.4-1.1,0.5c-0.6,0.3-1.2,0.5-1.8,0.6c-0.8,0.1-1.6,0.1-2.4-0.1
					c-0.6-0.1-1.1-0.4-1.7-0.6c-0.6-0.2-1.2-0.5-1.8-0.5c-0.6-0.1-1.3-0.2-1.9-0.2c-1.6,0-3.1,0-4.7,0c-0.1,0-0.1,0-0.3,0
					c0,0.8,0,1.6,0,2.3c-0.5,0-1,0-1.6,0c0,1,0,2.2,0,3.3c-0.8,0-1.6,0-2.6,0c0-6,0-11.5,0-17.1C554,57.8,554.8,57.8,555.6,57.8z"/>
			</g>
			<g>
				<path class="st34" d="M585,75.7c-1.7,0.3-3.4,0.7-5,1l-0.3-1.8c1.7-0.3,3.4-0.6,5-1L585,75.7z"/>
			</g>
		</g>
		<g>
			<g>
				<path class="st34" d="M582.7,78.2c0,0,2.4,2.3,2.3,4c0,0.9-0.7,2.2-2.3,2.2c-1.6,0-2.3-1.3-2.3-2.2
					C580.3,80.5,582.7,78.2,582.7,78.2z"/>
			</g>
			<g>
				<path class="st34" d="M584.7,81.9c0,0,0,0.1,0,0.1c0,0,0,0.1-0.1,0.2c0,0.1,0,0.1-0.1,0.2c0,0.1-0.1,0.1-0.1,0.2
					c0,0,0,0.1-0.1,0.1c0,0,0,0.1-0.1,0.1c0,0.1-0.1,0.2-0.1,0.2c-0.1,0.1-0.1,0.2-0.2,0.2c-0.1,0.1-0.1,0.1-0.2,0.2
					c0,0-0.1,0.1-0.1,0.1c0,0,0,0-0.1,0c0,0,0,0-0.1,0c0,0,0,0-0.1,0c0,0,0,0-0.1,0c0,0,0,0-0.1,0c0,0,0,0-0.1,0
					c-0.1,0-0.1,0.1-0.2,0.1c-0.1,0-0.1,0.1-0.2,0.1c-0.1,0-0.1,0-0.1,0.1c0,0-0.1,0-0.1,0c0,0,0,0,0,0h0c0,0,0,0,0,0c0,0,0,0,0,0
					c0,0,0,0,0,0c0,0,0.1,0,0.1,0c0,0,0.1,0,0.2,0c0,0,0,0,0,0c0,0,0,0,0,0c0,0,0.1,0,0.1,0c0.1,0,0.2,0,0.2-0.1c0,0,0,0,0.1,0
					c0,0,0,0,0.1,0c0,0,0,0,0.1,0c0,0,0,0,0.1,0c0,0,0,0,0.1,0c0,0,0,0,0.1,0c0,0,0.1-0.1,0.1-0.1c0.1-0.1,0.2-0.1,0.2-0.2
					c0.1-0.1,0.1-0.2,0.2-0.3c0,0,0.1-0.1,0.1-0.1c0,0,0-0.1,0.1-0.1c0-0.1,0.1-0.2,0.1-0.3c0-0.1,0-0.2,0.1-0.3c0-0.1,0-0.2,0-0.2
					c0-0.1,0-0.1,0-0.2C584.7,82,584.7,81.9,584.7,81.9C584.7,81.9,584.7,81.9,584.7,81.9C584.7,81.9,584.7,81.9,584.7,81.9z"/>
			</g>
		</g>
	</g>
	<g>
		<g>
			<g>
				<g>
					<path class="st34" d="M601.5,37.4c0,0-1-3.5,4.8-4.4c3.2-0.5,7.1-0.4,9.5,0.5c2.8,1.1,3.1,2.7,3.2,4.2c0,1.8-0.1,8.3-0.1,8.3
						l-5-0.1c0.1-3.6,0.1-4.6,0.1-6.8c0-0.8,0-1.2-0.6-1.4c-0.2-0.1-0.4-0.1-0.8-0.1c-3.5-0.1-7.2-0.1-9.6-0.1
						C602.5,37.4,601.5,37.4,601.5,37.4z"/>
				</g>
				<g>
					<path class="st34" d="M614.4,36.5c0,0.6-0.6,1.1-1.4,1.1l-9.4-0.1c-0.3,0-1.2,0-1.2,0s-0.2-0.5-0.2-1.1c0.1-0.8,0.7-1.1,1.4-1
						l9.4,0.1C613.8,35.4,614.4,35.9,614.4,36.5L614.4,36.5z"/>
				</g>
				<g>
					<g>
						<polygon class="st34" points="612.6,37.5 612.5,37.8 612.1,37.8 612,37.4 						"/>
					</g>
					<g>
						<polygon class="st34" points="611.6,37.4 611.4,37.8 611.1,37.8 610.9,37.4 						"/>
					</g>
					<g>
						<polygon class="st34" points="610.6,37.4 610.4,37.8 610.1,37.8 609.9,37.4 						"/>
					</g>
					<g>
						<polygon class="st34" points="609.6,37.4 609.4,37.8 609.1,37.8 608.9,37.4 						"/>
					</g>
					<g>
						<polygon class="st34" points="608.6,37.4 608.4,37.8 608,37.8 607.9,37.4 						"/>
					</g>
					<g>
						<polygon class="st34" points="607.5,37.4 607.3,37.7 607,37.7 606.8,37.4 						"/>
					</g>
					<g>
						<polygon class="st34" points="606.4,37.4 606.3,37.7 605.9,37.7 605.8,37.3 						"/>
					</g>
					<g>
						<polygon class="st34" points="605.3,37.3 605.1,37.7 604.8,37.7 604.6,37.3 						"/>
					</g>
					<g>
						<polygon class="st34" points="604.2,37.3 604,37.7 603.7,37.7 603.5,37.3 						"/>
					</g>
					<g>
						<polygon class="st34" points="603.1,37.3 602.9,37.7 602.6,37.7 602.4,37.3 						"/>
					</g>
				</g>
				<g>
					<g>
						<g>
							<polygon class="st34" points="613.1,41 613,40.6 612.6,40.6 612.4,41 							"/>
						</g>
						<g>
							<polygon class="st34" points="612.1,41 611.9,40.6 611.6,40.6 611.4,41 							"/>
						</g>
						<g>
							<polygon class="st34" points="611.1,41 610.9,40.6 610.6,40.6 610.4,41 							"/>
						</g>
						<g>
							<polygon class="st34" points="610.1,41 609.9,40.6 609.6,40.6 609.4,41 							"/>
						</g>
						<g>
							<polygon class="st34" points="609,41 608.9,40.6 608.5,40.6 608.4,41 							"/>
						</g>
						<g>
							<polygon class="st34" points="608,40.9 607.8,40.6 607.5,40.6 607.3,40.9 							"/>
						</g>
						<g>
							<polygon class="st34" points="606.9,40.9 606.8,40.5 606.4,40.5 606.2,40.9 							"/>
						</g>
						<g>
							<polygon class="st34" points="605.8,40.9 605.6,40.5 605.3,40.5 605.1,40.9 							"/>
						</g>
						<g>
							<polygon class="st34" points="604.7,40.9 604.5,40.5 604.1,40.5 604,40.9 							"/>
						</g>
						<g>
							<polygon class="st34" points="603.6,40.9 603.4,40.5 603.1,40.5 602.9,40.9 							"/>
						</g>
					</g>
					<g>
						
							<rect x="606.9" y="36.9" transform="matrix(1.578755e-02 -0.9999 0.9999 1.578755e-02 556.4095 649.2397)" class="st34" width="2.1" height="10.2"/>
					</g>
				</g>
				<g>
					<path class="st34" d="M618.3,44.6c0,0.8-0.8,1.4-1.8,1.4l0,0c-1,0-1.8-0.7-1.8-1.5l0-2.9c0-0.8,0.8-1.4,1.8-1.4l0,0
						c1,0,1.8,0.7,1.8,1.5L618.3,44.6z"/>
				</g>
				<g>
					<path class="st34" d="M617.6,43.6c0,0.5-0.5,0.9-1.1,0.9l0,0c-0.6,0-1.1-0.4-1.1-0.9l0-1.7c0-0.5,0.5-0.9,1.1-0.9l0,0
						c0.6,0,1.1,0.4,1.1,0.9L617.6,43.6z"/>
				</g>
			</g>
			<g>
				<path class="st34" d="M618.6,62.3c0,1.1-1.1,2-2.5,2l0,0c-1.4,0-2.5-0.9-2.5-2l0.2-12.8c0-1.1,1.1-2,2.5-2c0,0,2.5,0.9,2.5,2
					L618.6,62.3z"/>
			</g>
			<g>
				<path class="st34" d="M614.6,48.7l-0.2,13.1c0,0.8,0.8,1.5,1.8,1.5c1,0,1.8-0.6,1.8-1.4l0.2-13.1L614.6,48.7z"/>
			</g>
			<g>
				<path class="st34" d="M615.3,48.8l-0.2,12.9c0,0.5,0.5,0.9,1.1,0.9c0.6,0,1.2-0.4,1.2-0.9l0.2-12.9L615.3,48.8z"/>
			</g>
			<g>
				<path class="st34" d="M618.4,51.2c1.3,0,1.9-0.2,1.9-0.8c0.1-1.3,0.1-3.3,0-5.6c0-1.1,0.4-1.8-1.7-1.9c-0.3,0-0.8,0-1.2,0
					c-1.4,0-3.3-0.1-3.3-0.1s-10.5-0.2-11-0.2c-0.7,0-1.2,0.1-1.1,1.1c0.1,0.8,0.2,3.3,0.2,3.3l0.5,13.4l0.3,39.2
					c0,1.5,1.4,2.8,3.1,2.8l1.6,0c1.7,0,3.2-1.2,3.2-2.7l1.4-38c0.1-1.7,0.6-3.1,2.7-3.9c1.8-0.6,1.7-2.2,0.9-2.2
					c-0.8,0-2.1,0-2.9,0c-0.7,0-0.9-0.4-0.9-0.8c0-0.8,0-1.3,0.1-2.9c0-0.5,0.3-0.8,0.8-0.8C614,51,617.8,51.2,618.4,51.2z"/>
			</g>
			<g>
				<path class="st34" d="M602.9,43.5l0.1,3.5l7.8,0.1l7.3,2.7c0,0,1.2-1,0.7-2.5c-0.5-1.5-1.6-1.7-3.1-2.2
					c-1.5-0.5-4.1-1.4-4.1-1.4L602.9,43.5z"/>
			</g>
			<g>
				<path class="st34" d="M618.1,47.3c-0.3-1-1.2-1.2-1.2-1.2l-5.2-1.9l-8.2-0.1l0,2.4l7.4,0.1l6.9,2.5
					C617.9,49,618.5,48.5,618.1,47.3z"/>
			</g>
			<g>
				
					<ellipse transform="matrix(1.573148e-02 -0.9999 0.9999 1.573148e-02 550.3494 649.3936)" class="st34" cx="605" cy="45.2" rx="0.5" ry="0.6"/>
			</g>
			<g>
				<path class="st34" d="M607.4,100.1c0,0.5-0.5,1-1.1,1.1c-0.1,0-0.6,0-0.8,0c-0.6-0.2-1-0.6-1-1.1l0.3-49.7
					c0-0.6,1.1-1.1,1.9-1.1l0,0c0.8,0,1.7,0.6,1.7,1.2L607.4,100.1z"/>
			</g>
		</g>
		<g>
			<g>
				<path class="st34" d="M619.7,52.3c0-0.3-0.3-0.6-0.7-0.6l-5.4-0.1c-0.4,0-0.7,0.2-0.7,0.5l0,0.5l6.8,0.1L619.7,52.3z"/>
			</g>
			<g>
				<path class="st34" d="M612.8,54.6c0,0.3,0.3,0.6,0.7,0.6l5.4,0.1c0.4,0,0.7-0.2,0.7-0.5l0-0.7l-6.8-0.1L612.8,54.6z"/>
			</g>
			<g>
				
					<rect x="615.7" y="50" transform="matrix(1.564694e-02 -0.9999 0.9999 1.564694e-02 553.219 668.7371)" class="st34" width="1.1" height="6.8"/>
			</g>
		</g>
	</g>
	<g>
		<g>
			
				<ellipse transform="matrix(0.9988 -4.837327e-02 4.837327e-02 0.9988 -11.5217 43.97)" class="st34" cx="902.7" cy="260" rx="0.5" ry="0.5"/>
		</g>
		<g>
			
				<rect x="908.8" y="272.3" transform="matrix(0.9373 -0.3486 0.3486 0.9373 -38.1176 334.7265)" class="st34" width="4.4" height="1.9"/>
		</g>
		<g>
			
				<rect x="911.7" y="273.7" transform="matrix(0.9373 -0.3486 0.3486 0.9373 -40.6447 336.2212)" class="st34" width="4.4" height="14.6"/>
		</g>
		<g>
			
				<rect x="907.9" y="273.6" transform="matrix(0.9373 -0.3486 0.3486 0.9373 -38.6078 333.8978)" class="st34" width="1" height="1.2"/>
		</g>
		<g>
			<path class="st34" d="M906.9,273.7c-0.5,0.2-0.8,0.7-0.6,1.3c0.2,0.5,0.7,0.8,1.3,0.6l0.7-0.3l-0.7-1.8L906.9,273.7z"/>
		</g>
		<g>
			
				<rect x="914.4" y="287.9" transform="matrix(0.9373 -0.3486 0.3486 0.9373 -43.0329 337.6338)" class="st34" width="4.4" height="1"/>
		</g>
		<g>
			<path class="st34" d="M914.4,289.8l7,18.7c0.3,0.7,1.1,1.1,1.8,0.8l2.2-0.8c0.7-0.3,1.1-1.1,0.8-1.8l-7-18.7L914.4,289.8z"/>
		</g>
		<g>
			
				<rect x="897.4" y="271.7" transform="matrix(0.2564 -0.9666 0.9666 0.2564 403.3265 1072.0367)" class="st34" width="1.9" height="4.4"/>
		</g>
		<g>
			
				<rect x="889" y="279.7" transform="matrix(0.2564 -0.9666 0.9666 0.2564 394.002 1075.9399)" class="st34" width="14.6" height="4.4"/>
		</g>
		<g>
			
				<rect x="900.4" y="274.1" transform="matrix(0.2564 -0.9666 0.9666 0.2564 404.6064 1075.0944)" class="st34" width="1.2" height="1"/>
		</g>
		<g>
			<path class="st34" d="M902.5,274c0.5,0.1,0.8,0.7,0.7,1.2c-0.1,0.5-0.7,0.8-1.2,0.7l-0.7-0.2l0.5-1.9L902.5,274z"/>
		</g>
		<g>
			
				<rect x="893.8" y="287.3" transform="matrix(0.2564 -0.9666 0.9666 0.2564 385.1903 1079.6285)" class="st34" width="1" height="4.4"/>
		</g>
		<g>
			<path class="st34" d="M896.6,290.6l-5.1,19.3c-0.2,0.7-1,1.2-1.7,1l-2.2-0.6c-0.7-0.2-1.2-1-1-1.7l5.1-19.3L896.6,290.6z"/>
		</g>
		<g>
			<path class="st34" d="M905.8,227.7c0-0.3,0.3-0.5,0.6-0.5c0.2,0,0.4,0.1,0.5,0.3c0.5,1.2,2,5.6,2,12.2c0,5.2-1.7,25.6-1.7,25.6
				l-4.8-5.4L905.8,227.7z"/>
		</g>
		<g>
			<path class="st34" d="M901.4,227.8c0-0.3-0.3-0.5-0.6-0.5c-0.2,0-0.4,0.2-0.5,0.4c-0.4,1.2-1.8,5.7-1.6,12.3
				c0.1,5.2,2.5,25.5,2.5,25.5l4.6-5.6L901.4,227.8z"/>
		</g>
		<g>
			<path class="st34" d="M905.8,259.9l-4.4-32.1c0-0.3-0.3-0.5-0.6-0.5c-0.2,0-0.3,0.1-0.4,0.3c0.1,0.1,0.1,0.2,0.1,0.3l4.4,32.1
				L905.8,259.9z"/>
		</g>
		<g>
			<path class="st34" d="M898.2,270.3l3.4-7.9l2.7-3.1c0.4-0.5,1.1-0.7,1.7-0.4c0.6,0.2,0.9,0.8,0.9,1.4l0.1,4l-6.6,7.1l-0.6,1.9
				l-2.1-0.6L898.2,270.3z"/>
		</g>
		<g>
			<path class="st34" d="M910.9,269.7l-4.1-7.6l-2.9-2.8c-0.5-0.5-1.2-0.5-1.8-0.2c-0.5,0.3-0.8,0.9-0.8,1.5l0.3,4l7.3,6.4l0.7,1.8
				l2-0.8L910.9,269.7z"/>
		</g>
		<g>
			
				<ellipse transform="matrix(0.9988 -4.837327e-02 4.837327e-02 0.9988 -11.68 44.0476)" class="st34" cx="904.2" cy="263.3" rx="2" ry="2"/>
		</g>
		<g>
			
				<ellipse transform="matrix(0.9988 -4.837327e-02 4.837327e-02 0.9988 -11.68 44.0476)" class="st34" cx="904.2" cy="263.3" rx="1.1" ry="1.1"/>
		</g>
	</g>
	<g>
		<path class="st34" d="M871.5,271.7c0.2,9.4,1.2,15.3,1,15.3c-0.2,0-1.8-6.5-2-14.6c-0.2-8.1,1.1-14.7,1.4-14.7
			C872,257.7,871.3,263.1,871.5,271.7z"/>
	</g>
	<g>
		<path class="st34" d="M855.1,262.8c3.9,0,9,0.8,12.7,4.2c0.3,0.3,3.4,3.2,2.6,4.6c-0.2,0.4-0.3,1.3-1.3,1.3c0,0,0,0,0,0
			c-1.9,0-8.1-6.2-8.1-6.2c-0.5-0.5-1.3-1.3-2.7-2.1c-0.7-0.4-1.3-0.7-1.7-0.9C856.1,263.4,855.6,263.1,855.1,262.8z"/>
	</g>
	<g>
		<path class="st34" d="M867.5,247.1c2.7,2.8,5.7,7.1,5.8,12.1c0,0.4,0.1,4.6-1.5,5.1c-0.5,0.1-1.1,0.7-1.9-0.1c0,0,0,0,0,0
			c-1.3-1.4-1.2-10.1-1.2-10.1c0-0.7,0-1.9-0.3-3.4c-0.2-0.8-0.4-1.4-0.5-1.8C867.8,248.3,867.6,247.7,867.5,247.1z"/>
	</g>
	<g>
		<path class="st34" d="M885.5,263.7c-0.4,0.2-1,0.5-1.7,0.9c-1.3,0.8-2.2,1.7-2.7,2.1c0,0,0,0,0,0c-2.5,3.8-3.2,5.6-5,6.2
			c-0.9,0.3-1.7,0.1-2.3,0c-0.6-0.1-2.1-0.4-2.4-1.2c-0.7-1.5,2.5-4.4,2.8-4.7c1.6-1.4,5.3-4.1,12.7-4.2
			C886.5,263.1,886,263.4,885.5,263.7z"/>
	</g>
	<path class="st34" d="M373.8,128L373.8,128c-0.8,0-1.5-0.7-1.5-1.5v-35c0-0.8,0.7-1.5,1.5-1.5l0,0c0.8,0,1.5,0.7,1.5,1.5v35
		C375.3,127.3,374.6,128,373.8,128z"/>
	<path class="st34" d="M384,77c0.6,10.2-5,17.5-9.6,17.8C369.8,95.1,362.9,88,363,77C370,77,377,77,384,77z"/>
	<path class="st34" d="M384.4,75.8h-21.8c-0.9,0-1.6-0.7-1.6-1.6l0,0c0-0.9,0.7-1.6,1.6-1.6h21.8c0.9,0,1.6,0.7,1.6,1.6l0,0
		C386,75.1,385.3,75.8,384.4,75.8z"/>
	<path class="st34" d="M367.9,71.1L367.9,71.1c-0.4,0-0.8-0.4-0.8-0.8v-9.5c0-0.4,0.4-0.8,0.8-0.8l0,0c0.4,0,0.8,0.4,0.8,0.8v9.5
		C368.7,70.7,368.3,71.1,367.9,71.1z"/>
	<path class="st34" d="M379,71.1L379,71.1c0.4,0,0.8-0.4,0.8-0.8v-9.5c0-0.4-0.4-0.8-0.8-0.8h0c-0.4,0-0.8,0.4-0.8,0.8v9.5
		C378.2,70.7,378.5,71.1,379,71.1z"/>
	<g>
		<path class="st34" d="M951.5,459h-68c-0.3,0-0.5-0.2-0.5-0.5v-22c0-0.3,0.2-0.5,0.5-0.5h68c0.3,0,0.5,0.2,0.5,0.5v22
			C952,458.8,951.8,459,951.5,459z"/>
		<path class="st38" d="M931.3,455.5c-1.7-1.7-4.2-3.6-7.2-4.5c-2-0.6-3.7-0.6-5.7-0.6c-1.8,0-3.7,0-5.9,0.6
			c-1.7,0.5-4.6,1.6-7.7,4.6C908.7,455.5,928.1,455.5,931.3,455.5z"/>
		<path class="st38" d="M888.7,439.4c1.8,0.8,4,4.1,7.3,4.5c4.6,0.1,36.4,0.1,41.8,0.1c1.8-0.2,3.9-3.1,7.3-4.6
			C936.8,439.4,895.6,439.4,888.7,439.4z"/>
		<path class="st38" d="M952,437.4c-0.7,1.2-1.4,2.9-1.8,5c-0.3,1.6-0.3,2.8-0.2,3.9c0,2.7,0.5,4.6,0.7,5.4c0.3,1.1,0.7,2.5,1.3,4
			C952,453.1,952,439.7,952,437.4z"/>
		<path class="st38" d="M883,455.8c0.7-1.2,1.4-2.9,1.8-5c0.3-1.6,0.3-2.8,0.2-3.9c0-2.7-0.5-4.6-0.7-5.4c-0.3-1.1-0.7-2.5-1.3-4
			C883,440.1,883,453.5,883,455.8z"/>
		<path class="st38" d="M883.4,457.9c-0.2,0-0.4-0.2-0.4-0.4l1.2-1.9h66.7l0.7,1.5c0.2,0.4-0.1,0.8-0.5,0.8H883.4z"/>
		<line class="st39" x1="884.7" y1="456.1" x2="950.3" y2="456.1"/>
		<line class="st39" x1="884.2" y1="456.7" x2="950.8" y2="456.7"/>
	</g>
	<g>
		<path class="st34" d="M904.5,468.6c0.5,1,0.9,2.1,1.3,3.1l0,0c0,0.1,0.3,0.7,0.5,1.4c2.9,8.7,6.1,18.6,2.2,24.9
			c-1.4,2.2-3.1,3.5-5,3.9c-0.4,0.1-0.9,0.1-1.3,0.1c-1.9,0-3.9-0.8-5.2-2.1c-3.9-3.7-3.4-12.3-0.4-17.8c0.6-1.1,1.7-2.8,2.8-4.6
			c1.4-2.2,2.9-4.6,4.1-6.7C903.5,470.6,904,469.8,904.5,468.6 M904.1,463.4c-0.1,0.6-0.4,1.6-0.8,2.8c-0.7,1.8-1.4,3.2-1.7,3.7
			c-2.1,3.7-5.6,8.8-6.9,11.3c-3.3,6.1-3.9,15.8,0.8,20.2c1.6,1.5,4.1,2.6,6.6,2.6c0.6,0,1.2-0.1,1.8-0.2c3.7-0.8,5.7-4,6.2-4.8
			c4.4-7,1-17.4-2-26.6c-0.2-0.7-0.5-1.4-0.5-1.4c-0.5-1.4-1.1-2.7-1.7-4.2C905.4,465.9,904.9,465,904.1,463.4L904.1,463.4z"/>
	</g>
	<g>
		<path class="st34" d="M906.1,501.3c-0.3,0.5-1.4,2.2-3.4,2.6c-1.7,0.4-3.5-0.3-4.6-1.3c-2.6-2.4-2.2-7.7-0.4-11
			c0.7-1.3,2.6-4.1,3.8-6.2c0.2-0.3,0.6-1,0.9-2c0.2-0.7,0.4-1.2,0.4-1.5c0.5,0.9,0.7,1.3,1,1.9c0.4,0.8,0.7,1.5,1,2.3
			c0,0,0.1,0.4,0.3,0.8C906.6,491.8,908.5,497.5,906.1,501.3z"/>
	</g>
	<g>
		<g>
			<path class="st34" d="M933.2,470.1C933.2,470.1,933.2,470.1,933.2,470.1L933.2,470.1L933.2,470.1c0-1.2-1-2.2-2.2-2.2
				s-2.2,1-2.2,2.2h0v8.7h4.4L933.2,470.1C933.2,470.1,933.2,470.1,933.2,470.1z"/>
		</g>
		<g>
			<path class="st34" d="M931,504.9c-4.7,0-8.4-3.8-8.4-8.4c0-2.7,1.3-5.2,3.4-6.8V470c0-2.8,2.3-5,5-5s5,2.3,5,5v19.7
				c2.1,1.6,3.4,4.1,3.4,6.8C939.5,501.1,935.7,504.9,931,504.9z M931,503.5c3.9,0,7-3.2,7-7c0-2.5-1.3-4.8-3.4-6V470
				c0-2-1.6-3.6-3.6-3.6s-3.6,1.6-3.6,3.6v20.4c-2.1,1.3-3.4,3.5-3.4,6C924,500.4,927.1,503.5,931,503.5z"/>
		</g>
		<g>
			<path class="st34" d="M933.2,491.3v-12.5h-4.4v12.5c-2,0.9-3.4,2.8-3.4,5.2c0,3.1,2.5,5.6,5.6,5.6c3.1,0,5.6-2.5,5.6-5.6
				C936.6,494.2,935.2,492.2,933.2,491.3z"/>
		</g>
		<ellipse class="st38" cx="928.1" cy="496.1" rx="1.3" ry="1.9"/>
		<rect x="931.4" y="487.3" class="st38" width="3.2" height="1"/>
		<rect x="933.3" y="484.5" class="st38" width="1.4" height="1"/>
		<rect x="931.4" y="481.7" class="st38" width="3.2" height="1"/>
		<rect x="933.3" y="478.9" class="st38" width="1.4" height="1"/>
		<rect x="931.4" y="476" class="st38" width="3.2" height="1"/>
		<rect x="933.3" y="473.2" class="st38" width="1.4" height="1"/>
		<rect x="931.4" y="470.4" class="st38" width="3.2" height="1"/>
		<path class="st38" d="M930.2,470.7c0-0.1-0.1-0.3-0.3-0.3c-0.1,0-0.3,0.1-0.3,0.3h0v20.5l0.6-0.1L930.2,470.7L930.2,470.7z"/>
	</g>
</g>
<g id="Layer_5">
	<g class="st29">
		<path d="M338.6,530.8c-0.3,0-0.5-0.2-0.5-0.5V254c0-0.3,0.2-0.5,0.5-0.5h92.2v-21.3c0-2.5,2-4.5,4.5-4.5H469v-22.7
			c0-1.4,1.2-2.6,2.6-2.6H508c1.5,0,2.6,1.2,2.6,2.6v22.7h28.8c1.2,0,2.3,0.5,3.2,1.3c0.8,0.8,1.3,2,1.3,3.2v21.3h96.7
			c0.3,0,0.5,0.2,0.5,0.5v276.2c0,0.3-0.2,0.5-0.5,0.5h-61c-0.3,0-0.5-0.2-0.5-0.5v-37.2c0-0.8-0.7-1.5-1.5-1.5h-25.8
			c-0.8,0-1.5,0.7-1.5,1.5v37.2c0,0.3-0.2,0.5-0.5,0.5H429.4c-0.3,0-0.5-0.2-0.5-0.5v-37.2c0-0.8-0.7-1.5-1.5-1.5h-25.8
			c-0.8,0-1.5,0.7-1.5,1.5v37.2c0,0.3-0.2,0.5-0.5,0.5H338.6z M501.3,464.8c-0.8,0-1.5,0.7-1.5,1.5v12.9c0,0.8,0.7,1.5,1.5,1.5h37.7
			c0.8,0,1.5-0.7,1.5-1.5l0-12.9c0-0.8-0.7-1.5-1.5-1.5H501.3z M440.3,464.8c-0.8,0-1.5,0.7-1.5,1.5v12.9c0,0.8,0.7,1.5,1.5,1.5
			h37.7c0.8,0,1.5-0.7,1.5-1.5v-12.9c0-0.8-0.7-1.5-1.5-1.5H440.3z M590.6,464.8c-0.8,0-1.5,0.7-1.5,1.5v12.9c0,0.8,0.7,1.5,1.5,1.5
			h37.7c0.8,0,1.5-0.7,1.5-1.5v-12.9c0-0.8-0.7-1.5-1.5-1.5H590.6z M351,464.8c-0.4,0-0.8,0.2-1.1,0.4c-0.3,0.3-0.4,0.7-0.4,1.1
			v12.9c0,0.8,0.7,1.5,1.5,1.5h37.7c0.8,0,1.5-0.7,1.5-1.5v-12.9c0-0.8-0.7-1.5-1.5-1.5H351z M501.3,431.6c-0.8,0-1.5,0.7-1.5,1.5
			V446c0,0.8,0.7,1.5,1.5,1.5h37.7c0.8,0,1.5-0.7,1.5-1.5l0-12.9c0-0.8-0.7-1.5-1.5-1.5H501.3z M440.3,431.6c-0.8,0-1.5,0.7-1.5,1.5
			V446c0,0.8,0.7,1.5,1.5,1.5h37.7c0.4,0,0.8-0.2,1.1-0.4c0.3-0.3,0.4-0.7,0.4-1.1v-12.9c0-0.8-0.7-1.5-1.5-1.5H440.3z M590.6,431.6
			c-0.8,0-1.5,0.7-1.5,1.5V446c0,0.8,0.7,1.5,1.5,1.5h37.7c0.8,0,1.5-0.7,1.5-1.5l0-12.9c0-0.8-0.7-1.5-1.5-1.5H590.6z M351,431.6
			c-0.8,0-1.5,0.7-1.5,1.5v12.8c0,0.8,0.7,1.5,1.5,1.5h37.7c0.8,0,1.5-0.7,1.5-1.5v-12.9c0-0.8-0.7-1.5-1.5-1.5H351z M501.3,398.4
			c-0.8,0-1.5,0.7-1.5,1.5v12.9c0,0.8,0.7,1.5,1.5,1.5h37.7c0.8,0,1.5-0.7,1.5-1.5l0-12.9c0-0.8-0.7-1.5-1.5-1.5H501.3z
			 M440.3,398.4c-0.8,0-1.5,0.7-1.5,1.5v12.9c0,0.8,0.7,1.5,1.5,1.5h37.7c0.8,0,1.5-0.7,1.5-1.5v-12.9c0-0.8-0.7-1.5-1.5-1.5H440.3z
			 M590.6,398.4c-0.8,0-1.5,0.7-1.5,1.5v12.9c0,0.8,0.7,1.5,1.5,1.5h37.7c0.8,0,1.5-0.7,1.5-1.5v-12.9c0-0.8-0.7-1.5-1.5-1.5H590.6z
			 M351,398.4c-0.8,0-1.5,0.7-1.5,1.5v12.9c0,0.8,0.7,1.5,1.5,1.5h37.7c0.8,0,1.5-0.7,1.5-1.5v-12.9c0-0.8-0.7-1.5-1.5-1.5H351z
			 M501.3,365.1c-0.8,0-1.5,0.7-1.5,1.5v12.9c0,0.8,0.7,1.5,1.5,1.5h37.7c0.8,0,1.5-0.7,1.5-1.5l0-12.9c0-0.8-0.7-1.5-1.5-1.5H501.3
			z M440.3,365.1c-0.8,0-1.5,0.7-1.5,1.5v12.9c0,0.8,0.7,1.5,1.5,1.5h37.7c0.4,0,0.8-0.2,1.1-0.4c0.3-0.3,0.4-0.7,0.4-1.1v-12.9
			c0-0.8-0.7-1.5-1.5-1.5H440.3z M590.6,365.1c-0.8,0-1.5,0.7-1.5,1.5v12.9c0,0.8,0.7,1.5,1.5,1.5h37.7c0.8,0,1.5-0.7,1.5-1.5
			l0-12.9c0-0.8-0.7-1.5-1.5-1.5H590.6z M351,365.1c-0.8,0-1.5,0.7-1.5,1.5v12.9c0,0.8,0.7,1.5,1.5,1.5h37.7c0.4,0,0.8-0.2,1.1-0.4
			c0.3-0.3,0.4-0.7,0.4-1.1v-12.9c0-0.8-0.7-1.5-1.5-1.5H351z M501.3,331.9c-0.8,0-1.5,0.7-1.5,1.5v12.9c0,0.8,0.7,1.5,1.5,1.5h37.7
			c0.8,0,1.5-0.7,1.5-1.5l0-12.9c0-0.8-0.7-1.5-1.5-1.5H501.3z M440.3,331.9c-0.8,0-1.5,0.7-1.5,1.5v12.9c0,0.8,0.7,1.5,1.5,1.5
			h37.7c0.8,0,1.5-0.7,1.5-1.5v-12.9c0-0.8-0.7-1.5-1.5-1.5H440.3z M590.6,331.9c-0.8,0-1.5,0.7-1.5,1.5v12.9c0,0.8,0.7,1.5,1.5,1.5
			h37.7c0.8,0,1.5-0.7,1.5-1.5l0-12.9c0-0.8-0.7-1.5-1.5-1.5H590.6z M351,331.9c-0.8,0-1.5,0.7-1.5,1.5v12.9c0,0.8,0.7,1.5,1.5,1.5
			h37.7c0.8,0,1.5-0.7,1.5-1.5v-12.9c0-0.8-0.7-1.5-1.5-1.5H351z M501.3,298.6c-0.8,0-1.5,0.7-1.5,1.5v12.9c0,0.8,0.7,1.5,1.5,1.5
			h37.7c0.8,0,1.5-0.7,1.5-1.5l0-12.9c0-0.8-0.7-1.5-1.5-1.5H501.3z M440.3,298.6c-0.8,0-1.5,0.7-1.5,1.5V313c0,0.8,0.7,1.5,1.5,1.5
			h37.7c0.8,0,1.5-0.7,1.5-1.5v-12.9c0-0.8-0.7-1.5-1.5-1.5H440.3z M590.6,298.6c-0.8,0-1.5,0.7-1.5,1.5V313c0,0.8,0.7,1.5,1.5,1.5
			h37.7c0.8,0,1.5-0.7,1.5-1.5v-12.9c0-0.8-0.7-1.5-1.5-1.5H590.6z M351,298.6c-0.8,0-1.5,0.7-1.5,1.5V313c0,0.8,0.7,1.5,1.5,1.5
			h37.7c0.8,0,1.5-0.7,1.5-1.5v-12.9c0-0.8-0.7-1.5-1.5-1.5H351z M501.3,265.4c-0.8,0-1.5,0.7-1.5,1.5v12.9c0,0.8,0.7,1.5,1.5,1.5
			h37.7c0.8,0,1.5-0.7,1.5-1.5l0-12.9c0-0.8-0.7-1.5-1.5-1.5H501.3z M440.3,265.4c-0.8,0-1.5,0.7-1.5,1.5v12.9
			c0,0.8,0.7,1.5,1.5,1.5h37.7c0.4,0,0.8-0.2,1.1-0.4c0.3-0.3,0.4-0.7,0.4-1.1v-12.9c0-0.8-0.7-1.5-1.5-1.5H440.3z M590.6,265.4
			c-0.4,0-0.8,0.2-1.1,0.4c-0.3,0.3-0.4,0.7-0.4,1.1v12.9c0,0.8,0.7,1.5,1.5,1.5h37.7c0.8,0,1.5-0.7,1.5-1.5l0-12.9
			c0-0.8-0.7-1.5-1.5-1.5H590.6z M351,265.4c-0.8,0-1.5,0.7-1.5,1.5v12.9c0,0.8,0.7,1.5,1.5,1.5h37.7c0.8,0,1.5-0.7,1.5-1.5v-12.9
			c0-0.8-0.7-1.5-1.5-1.5H351z"/>
		<path class="st34" d="M508,202.9c1.2,0,2.1,1,2.1,2.1v22.2v1h1h28.3c2.2,0,4,1.8,4,4V253v1h1l96.2,0l0,276.2l-61,0v-37.2
			c0-1.1-0.9-2-2-2l-25.8,0c-1.1,0-2,0.9-2,2l0,37.2l-120.5,0v-37.2c0-1.1-0.9-2-2-2h-25.8c-1.1,0-2,0.9-2,2l0,37.2l-61,0l0-276.3
			h91.7h1v-1v-20.8c0-2.2,1.8-4,4-4h33.2h1v-1v-22.2c0-1.2,1-2.1,2.1-2.1H508 M590.6,281.8L590.6,281.8h37.7c1.1,0,2-0.9,2-2l0-12.9
			c0-1.1-0.9-2-2-2h-37.7c-0.5,0-1,0.2-1.4,0.6c-0.4,0.4-0.6,0.9-0.6,1.4v12.9C588.6,280.9,589.5,281.8,590.6,281.8 M501.3,281.8
			L501.3,281.8L501.3,281.8H539c0.5,0,1-0.2,1.4-0.6c0.4-0.4,0.6-0.9,0.6-1.4l0-12.9c0-1.1-0.9-2-2-2h-37.7c-1.1,0-2,0.9-2,2v12.9
			C499.3,280.9,500.2,281.8,501.3,281.8 M440.3,281.8h37.7c0.5,0,1-0.2,1.4-0.6c0.4-0.4,0.6-0.9,0.6-1.4v-12.9c0-1.1-0.9-2-2-2
			h-37.7c-1.1,0-2,0.9-2,2v12.9C438.3,280.9,439.2,281.8,440.3,281.8 M351,281.8L351,281.8h37.7c0.5,0,1-0.2,1.4-0.6
			c0.4-0.4,0.6-0.9,0.6-1.4v-12.8c0-0.5-0.2-1-0.6-1.4s-0.9-0.6-1.4-0.6H351c-0.5,0-1,0.2-1.4,0.6c-0.4,0.4-0.6,0.9-0.6,1.4l0,12.9
			C349,280.9,349.9,281.8,351,281.8 M590.6,315L590.6,315h37.7c1.1,0,2-0.9,2-2l0-12.9c0-1.1-0.9-2-2-2h-37.7c-1.1,0-2,0.9-2,2V313
			C588.6,314.1,589.5,315,590.6,315 M501.3,315.1H539c1.1,0,2-0.9,2-2l0-12.9c0-1.1-0.9-2-2-2l-37.7,0c-1.1,0-2,0.9-2,2v12.9
			C499.3,314.2,500.2,315.1,501.3,315.1 M440.3,315h37.7c1.1,0,2-0.9,2-2v-12.9c0-1.1-0.9-2-2-2h-37.7c-1.1,0-2,0.9-2,2l0,12.9
			C438.3,314.1,439.2,315,440.3,315 M351,315L351,315h37.7c1.1,0,2-0.9,2-2v-12.9c0-1.1-0.9-2-2-2H351c-1.1,0-2,0.9-2,2V313
			C349,314.1,349.9,315,351,315 M590.6,348.3h37.7c1.1,0,2-0.9,2-2l0-12.9c0-1.1-0.9-2-2-2h-37.7c-1.1,0-2,0.9-2,2v12.9
			C588.5,347.4,589.5,348.3,590.6,348.3 M501.3,348.3L501.3,348.3L501.3,348.3h37.7c1.1,0,2-0.9,2-2l0-12.9c0-1.1-0.9-2-2-2h-37.7
			c-1.1,0-2,0.9-2,2v12.9C499.3,347.4,500.2,348.3,501.3,348.3 M440.3,348.3L440.3,348.3L440.3,348.3h37.7c0.5,0,1-0.2,1.4-0.6
			c0.4-0.4,0.6-0.9,0.6-1.4v-12.9c0-1.1-0.9-2-2-2h-37.7c-1.1,0-2,0.9-2,2v12.9C438.3,347.4,439.2,348.3,440.3,348.3 M351,348.3
			l37.7,0c1.1,0,2-0.9,2-2v-12.9c0-1.1-0.9-2-2-2H351c-1.1,0-2,0.9-2,2l0,12.9C349,347.4,349.9,348.3,351,348.3 M590.6,381.5
			L590.6,381.5h37.7c1.1,0,2-0.9,2-2l0-12.9c0-1.1-0.9-2-2-2l-37.7,0c-1.1,0-2,0.9-2,2v12.9C588.6,380.6,589.5,381.5,590.6,381.5
			 M440.3,381.5L440.3,381.5h37.7c0.5,0,1-0.2,1.4-0.6c0.4-0.4,0.6-0.9,0.6-1.4v-12.9c0-1.1-0.9-2-2-2l-37.7,0c-1.1,0-2,0.9-2,2
			v12.9C438.3,380.6,439.2,381.5,440.3,381.5 M501.3,381.5H539c1.1,0,2-0.9,2-2l0-12.9c0-1.1-0.9-2-2-2h-37.7c-1.1,0-2,0.9-2,2v12.9
			C499.3,380.6,500.2,381.5,501.3,381.5 M351,381.5L351,381.5h37.7c1.1,0,2-0.9,2-2v-12.9c0-1.1-0.9-2-2-2H351c-0.5,0-1,0.2-1.4,0.6
			c-0.4,0.4-0.6,0.9-0.6,1.4v12.9C349,380.6,349.9,381.5,351,381.5 M590.6,414.7h37.7c1.1,0,2-0.9,2-2l0-12.9c0-1.1-0.9-2-2-2
			c0,0,0,0,0,0h-37.7c-1.1,0-2,0.9-2,2v12.9C588.6,413.8,589.5,414.7,590.6,414.7 M501.3,414.8L501.3,414.8L501.3,414.8h37.7
			c1.1,0,2-0.9,2-2l0-12.9c0-1.1-0.9-2-2-2h-37.7c-1.1,0-2,0.9-2,2v12.9C499.3,413.9,500.2,414.8,501.3,414.8 M440.3,414.7h37.7
			c1.1,0,2-0.9,2-2v-12.9c0-1.1-0.9-2-2-2h-37.7c-1.1,0-2,0.9-2,2v12.9C438.3,413.8,439.2,414.7,440.3,414.7 M351,414.7h37.7
			c1.1,0,2-0.9,2-2v-12.9c0-1.1-0.9-2-2-2H351c-0.5,0-1,0.2-1.4,0.6c-0.4,0.4-0.6,0.9-0.6,1.4v12.9C349,413.8,349.9,414.7,351,414.7
			 M590.6,448L590.6,448h37.7c1.1,0,2-0.9,2-2l0-12.9c0-1.1-0.9-2-2-2h-37.7c-1.1,0-2,0.9-2,2V446C588.6,447.1,589.5,448,590.6,448
			 M501.3,448L501.3,448L501.3,448H539c0.5,0,1-0.2,1.4-0.6c0.4-0.4,0.6-0.9,0.6-1.4l0-12.9c0-1.1-0.9-2-2-2h-37.7c-1.1,0-2,0.9-2,2
			V446C499.3,447.1,500.2,448,501.3,448 M440.3,448h37.7c0.5,0,1-0.2,1.4-0.6c0.4-0.4,0.6-0.9,0.6-1.4v-12.9c0-1.1-0.9-2-2-2h-37.7
			c-1.1,0-2,0.9-2,2V446C438.3,447.1,439.2,448,440.3,448 M351,448h37.7c1.1,0,2-0.9,2-2v-12.8c0-0.5-0.2-1-0.6-1.4
			c-0.4-0.4-0.9-0.6-1.4-0.6H351c-1.1,0-2,0.9-2,2l0,12.9C349,447.1,349.9,448,351,448 M590.6,481.2L590.6,481.2h37.7
			c1.1,0,2-0.9,2-2l0-12.9c0-1.1-0.9-2-2-2c0,0,0,0,0,0h-37.7c-1.1,0-2,0.9-2,2v12.9C588.6,480.3,589.5,481.2,590.6,481.2
			 M501.3,481.2H539c1.1,0,2-0.9,2-2l0-12.9c0-1.1-0.9-2-2-2h-37.7c-1.1,0-2,0.9-2,2v12.9C499.3,480.3,500.2,481.2,501.3,481.2
			 M440.3,481.2L440.3,481.2h37.7c1.1,0,2-0.9,2-2v-12.9c0-1.1-0.9-2-2-2h-37.7c-1.1,0-2,0.9-2,2l0,12.9
			C438.3,480.3,439.2,481.2,440.3,481.2 M351,481.2L351,481.2h37.7c1.1,0,2-0.9,2-2v-12.9c0-1.1-0.9-2-2-2H351c-1.1,0-2,0.9-2,2
			v12.9C349,480.3,349.9,481.2,351,481.2 M508,201.9h-36.4c-1.7,0-3.1,1.4-3.1,3.1v22.2h-33.2c0,0,0,0,0,0c-2.7,0-5,2.2-5,5
			c0,0,0,0,0,0V253h-91.7c-0.6,0-1,0.5-1,1v276.3c0,0.6,0.5,1,1,1h61c0.6,0,1-0.5,1-1v-37.2c0-0.6,0.5-1,1-1h25.8c0.6,0,1,0.5,1,1
			v37.2c0,0.6,0.4,1,1,1h120.5c0.6,0,1-0.5,1-1v-37.2c0-0.6,0.4-1,1-1h25.8c0.6,0,1,0.5,1,1v37.2c0,0.6,0.5,1,1,1h61
			c0.6,0,1-0.5,1-1V254c0-0.6-0.5-1-1-1h-96.2v-20.8c0-2.7-2.2-5-5-5c0,0,0,0,0,0h-28.3v-22.2C511.2,203.3,509.8,201.9,508,201.9
			L508,201.9z M590.6,280.8c-0.6,0-1-0.4-1-1c0,0,0,0,0,0v-12.9c0-0.6,0.4-1,1-1c0,0,0,0,0,0c0,0,0,0,0,0h37.7c0.6,0,1,0.5,1,1
			l0,12.9c0,0.6-0.5,1-1,1H590.6C590.6,280.8,590.6,280.8,590.6,280.8L590.6,280.8z M501.3,280.8c-0.6,0-1-0.5-1-1v-12.9
			c0-0.6,0.5-1,1-1h37.7c0,0,0,0,0,0c0.6,0,1,0.4,1,1c0,0,0,0,0,0l0,12.9c0,0.6-0.4,1-1,1c0,0,0,0,0,0H501.3L501.3,280.8z
			 M440.3,280.8c-0.6,0-1-0.5-1-1v-12.9c0-0.6,0.5-1,1-1h37.7c0.6,0,1,0.5,1,1c0,0,0,0,0,0v12.9c0,0.6-0.4,1-1,1c0,0,0,0,0,0H440.3
			L440.3,280.8z M351,280.8c-0.6,0-1-0.5-1-1c0,0,0,0,0,0v-12.9c0-0.6,0.4-1,1-1c0,0,0,0,0,0h37.7c0.6,0,1,0.5,1,1v12.9
			c0,0.6-0.4,1-1,1H351L351,280.8z M590.6,314c-0.6,0-1-0.4-1-1v-12.9c0-0.6,0.5-1,1-1h37.7c0,0,0,0,0,0c0.6,0,1,0.4,1,1
			c0,0,0,0,0,0V313c0,0.6-0.5,1-1,1H590.6C590.6,314,590.6,314,590.6,314L590.6,314z M501.3,314.1c-0.6,0-1-0.4-1-1v-12.9
			c0-0.6,0.5-1,1-1h37.7c0.6,0,1,0.5,1,1l0,12.9c0,0.6-0.5,1-1,1c0,0,0,0,0,0H501.3L501.3,314.1z M440.3,314c-0.6,0-1-0.4-1-1v-12.9
			c0-0.6,0.5-1,1-1h37.7c0.6,0,1,0.5,1,1V313c0,0.6-0.4,1-1,1c0,0,0,0,0,0H440.3L440.3,314z M351,314c-0.6,0-1-0.4-1-1c0,0,0,0,0,0
			v-12.9c0-0.6,0.5-1,1-1h37.7c0.6,0,1,0.5,1,1V313c0,0.6-0.5,1-1,1H351C351,314,351,314,351,314L351,314z M440.3,347.3
			c-0.6,0-1-0.5-1-1v-12.9c0-0.6,0.5-1,1-1h37.7c0,0,0,0,0,0c0.6,0,1,0.4,1,1c0,0,0,0,0,0v12.9c0,0.6-0.4,1-1,1c0,0,0,0,0,0H440.3
			L440.3,347.3z M590.6,347.3c-0.6,0-1-0.5-1-1v-12.9c0-0.6,0.5-1,1-1c0,0,0,0,0,0h37.7c0.6,0,1,0.4,1,1l0,12.9c0,0.6-0.5,1-1,1
			H590.6L590.6,347.3z M501.3,347.3c-0.6,0-1-0.5-1-1v-12.9c0-0.6,0.5-1,1-1h37.7c0,0,0,0,0,0c0.6,0,1,0.4,1,1l0,12.9
			c0,0.6-0.5,1-1,1H501.3L501.3,347.3z M351,347.3c-0.6,0-1-0.5-1-1c0,0,0,0,0,0v-12.9c0-0.6,0.4-1,1-1c0,0,0,0,0,0h37.7
			c0.6,0,1,0.5,1,1v12.9c0,0.6-0.4,1-1,1H351L351,347.3z M590.6,380.5c-0.6,0-1-0.4-1-1c0,0,0,0,0,0v-12.9c0-0.6,0.5-1,1-1
			c0,0,0,0,0,0h37.7c0,0,0,0,0,0c0.6,0,1,0.4,1,1c0,0,0,0,0,0l0,12.9c0,0.6-0.5,1-1,1c0,0,0,0,0,0H590.6
			C590.6,380.5,590.6,380.5,590.6,380.5L590.6,380.5z M440.3,380.5c-0.6,0-1-0.4-1-1c0,0,0,0,0,0v-12.9c0-0.6,0.5-1,1-1c0,0,0,0,0,0
			h37.7c0,0,0,0,0,0c0.6,0,1,0.4,1,1c0,0,0,0,0,0v12.9c0,0.6-0.4,1-1,1c0,0,0,0,0,0s0,0,0,0L440.3,380.5
			C440.3,380.5,440.3,380.5,440.3,380.5L440.3,380.5z M351,380.5c-0.6,0-1-0.4-1-1c0,0,0,0,0,0v-12.9c0-0.6,0.4-1,1-1c0,0,0,0,0,0
			c0,0,0,0,0,0h37.7c0.6,0,1,0.4,1,1c0,0,0,0,0,0v12.9c0,0.6-0.4,1-1,1c0,0,0,0,0,0H351C351,380.5,351,380.5,351,380.5L351,380.5z
			 M501.3,380.5c-0.6,0-1-0.5-1-1v-12.9c0-0.6,0.5-1,1-1h37.7c0,0,0,0,0,0c0.6,0,1,0.4,1,1c0,0,0,0,0,0l0,12.9c0,0.6-0.5,1-1,1
			c0,0,0,0,0,0H501.3L501.3,380.5z M590.6,413.7c-0.6,0-1-0.5-1-1v-12.9c0-0.6,0.5-1,1-1h37.7c0,0,0,0,0,0c0.6,0,1,0.4,1,1
			c0,0,0,0,0,0v12.9c0,0.6-0.5,1-1,1H590.6L590.6,413.7z M501.3,413.8c-0.6,0-1-0.5-1-1v-12.9c0-0.6,0.5-1,1-1h37.7c0.6,0,1,0.5,1,1
			l0,12.9c0,0.6-0.5,1-1,1H501.3L501.3,413.8z M440.3,413.7c-0.6,0-1-0.5-1-1v-12.9c0-0.6,0.5-1,1-1h37.7c0.6,0,1,0.5,1,1
			c0,0,0,0,0,0v12.9c0,0.6-0.5,1-1,1H440.3L440.3,413.7z M351,413.7c-0.6,0-1-0.5-1-1v-12.9c0-0.6,0.4-1,1-1c0,0,0,0,0,0h37.7
			c0.6,0,1,0.5,1,1v12.9c0,0.6-0.4,1-1,1H351L351,413.7z M590.6,447c-0.6,0-1-0.4-1-1c0,0,0,0,0,0v-12.9c0-0.6,0.4-1,1-1
			c0,0,0,0,0,0c0,0,0,0,0,0h37.7c0.6,0,1,0.5,1,1l0,12.9c0,0.6-0.5,1-1,1L590.6,447C590.6,447,590.6,447,590.6,447L590.6,447z
			 M501.3,447c-0.6,0-1-0.5-1-1v-12.9c0-0.6,0.5-1,1-1h37.7c0,0,0,0,0,0c0.6,0,1,0.4,1,1c0,0,0,0,0,0l0,12.9c0,0.6-0.4,1-1,1
			c0,0,0,0,0,0c0,0,0,0,0,0H501.3L501.3,447z M440.3,447c-0.6,0-1-0.5-1-1v-12.9c0-0.6,0.5-1,1-1h37.7c0.6,0,1,0.5,1,1c0,0,0,0,0,0
			V446c0,0.6-0.4,1-1,1c0,0,0,0,0,0H440.3L440.3,447z M351,447c-0.6,0-1-0.5-1-1c0,0,0,0,0,0v-12.8c0-0.6,0.4-1,1-1c0,0,0,0,0,0
			h37.7c0.6,0,1,0.5,1,1V446c0,0.6-0.4,1-1,1H351L351,447z M590.6,480.2c-0.6,0-1-0.4-1-1v0v-12.9c0-0.6,0.5-1,1-1h37.7c0,0,0,0,0,0
			c0.6,0,1,0.4,1,1c0,0,0,0,0,0v12.9c0,0.6-0.5,1-1,1H590.6C590.6,480.2,590.6,480.2,590.6,480.2L590.6,480.2z M501.3,480.2
			c-0.6,0-1-0.4-1-1v-12.9c0-0.6,0.5-1,1-1h37.7c0.6,0,1,0.5,1,1l0,12.9c0,0.6-0.5,1-1,1c0,0,0,0,0,0h0H501.3L501.3,480.2z
			 M440.3,480.2c-0.6,0-1-0.4-1-1v-12.9c0-0.6,0.5-1,1-1h37.7c0.6,0,1,0.5,1,1c0,0,0,0,0,0v12.9c0,0.6-0.4,1-1,1c0,0,0,0,0,0H440.3
			L440.3,480.2z M351,480.2c-0.6,0-1-0.4-1-1c0,0,0,0,0,0v-12.9c0-0.6,0.4-1,1-1c0,0,0,0,0,0h37.7c0.6,0,1,0.5,1,1v12.9
			c0,0.6-0.5,1-1,1H351C351,480.2,351,480.2,351,480.2L351,480.2z"/>
	</g>
	<path class="st40" d="M633.3,251.7h-96.2v-20.8c0-2.7-2.2-5-5-5c0,0,0,0,0,0h-28.3v-22.2c0-1.7-1.4-3.1-3.1-3.1l0,0h-36.4
		c-1.7,0-3.1,1.4-3.1,3.1v22.2H428c-2.7,0-5,2.2-5,5c0,0,0,0,0,0v20.8l0,0h-91.7c-0.6,0-1,0.5-1,1V529c0,0.6,0.5,1,1,1h61
		c0.6,0,1-0.5,1-1v-37.2c0-0.6,0.5-1,1-1H420c0.6,0,1,0.5,1,1V529c0,0.6,0.4,1,1,1h120.5c0.6,0,1-0.5,1-1v-37.2c0-0.6,0.4-1,1-1
		h25.8c0.6,0,1,0.5,1,1V529c0,0.6,0.5,1,1,1h61c0.6,0,1-0.5,1-1V252.7C634.3,252.2,633.9,251.7,633.3,251.7z M382.3,477.9
		c0,0.6-0.5,1-1,1h-37.7c-0.6,0-1-0.4-1-1c0,0,0,0,0,0V465c0-0.6,0.4-1,1-1c0,0,0,0,0,0h37.7c0.6,0,1,0.5,1,1V477.9z M382.3,444.7
		c0,0.6-0.4,1-1,1h-37.7c-0.6,0-1-0.5-1-1c0,0,0,0,0,0v-12.8c0-0.6,0.4-1,1-1c0,0,0,0,0,0h37.7c0.6,0,1,0.5,1,1l0,0V444.7z
		 M382.3,411.4c0,0.6-0.4,1-1,1h-37.7c-0.6,0-1-0.5-1-1v-12.9c0-0.6,0.4-1,1-1c0,0,0,0,0,0h37.7c0.6,0,1,0.5,1,1V411.4z
		 M382.3,378.2c0,0.6-0.4,1-1,1c0,0,0,0,0,0h-37.7c-0.6,0-1-0.4-1-1c0,0,0,0,0,0v-12.9c0-0.6,0.4-1,1-1c0,0,0,0,0,0h37.7
		c0.6,0,1,0.4,1,1c0,0,0,0,0,0V378.2z M382.3,345c0,0.6-0.4,1-1,1h-37.7c-0.6,0-1-0.5-1-1c0,0,0,0,0,0v-12.9c0-0.6,0.4-1,1-1
		c0,0,0,0,0,0h37.7c0.6,0,1,0.5,1,1V345z M382.3,311.7c0,0.6-0.5,1-1,1h-37.7c-0.6,0-1-0.4-1-1c0,0,0,0,0,0v-12.9c0-0.6,0.5-1,1-1
		h37.7c0.6,0,1,0.5,1,1V311.7z M382.3,278.5c0,0.6-0.4,1-1,1h0h-37.7c-0.6,0-1-0.5-1-1c0,0,0,0,0,0v-12.9c0-0.6,0.4-1,1-1
		c0,0,0,0,0,0h37.7c0.6,0,1,0.5,1,1v0V278.5z M471.6,477.9c0,0.6-0.4,1-1,1c0,0,0,0,0,0h-37.7c-0.6,0-1-0.4-1-1V465c0-0.6,0.5-1,1-1
		h37.7c0.6,0,1,0.5,1,1c0,0,0,0,0,0V477.9z M471.6,444.7c0,0.6-0.4,1-1,1c0,0,0,0,0,0h-37.7c-0.6,0-1-0.5-1-1v-12.9c0-0.6,0.5-1,1-1
		h37.7c0.6,0,1,0.5,1,1c0,0,0,0,0,0V444.7z M471.6,411.4c0,0.6-0.5,1-1,1h-37.7c-0.6,0-1-0.5-1-1v-12.9c0-0.6,0.5-1,1-1h37.7
		c0.6,0,1,0.5,1,1c0,0,0,0,0,0V411.4z M471.6,378.2c0,0.6-0.4,1-1,1c0,0,0,0,0,0h-37.7c-0.6,0-1-0.4-1-1c0,0,0,0,0,0v-12.9
		c0-0.6,0.5-1,1-1c0,0,0,0,0,0h37.7c0.6,0,1,0.4,1,1c0,0,0,0,0,0V378.2z M471.6,345c0,0.6-0.4,1-1,1c0,0,0,0,0,0h-37.7
		c-0.6,0-1-0.5-1-1v-12.9c0-0.6,0.5-1,1-1h37.7c0.6,0,1,0.4,1,1c0,0,0,0,0,0V345z M471.6,311.7c0,0.6-0.4,1-1,1c0,0,0,0,0,0h-37.7
		c-0.6,0-1-0.4-1-1v-12.9c0-0.6,0.5-1,1-1h37.7c0.6,0,1,0.5,1,1V311.7z M471.6,278.5c0,0.6-0.4,1-1,1c0,0,0,0,0,0h-37.7
		c-0.6,0-1-0.5-1-1v-12.9c0-0.6,0.5-1,1-1h37.7c0.6,0,1,0.5,1,1c0,0,0,0,0,0V278.5z M532.6,477.9c0,0.6-0.5,1-1,1l0,0H494
		c-0.6,0-1-0.4-1-1V465c0-0.6,0.5-1,1-1h37.7c0.6,0,1,0.5,1,1L532.6,477.9z M532.6,444.7c0,0.6-0.4,1-1,1c0,0,0,0,0,0H494
		c-0.6,0-1-0.5-1-1v-12.9c0-0.6,0.5-1,1-1h37.7c0.6,0,1,0.4,1,1c0,0,0,0,0,0L532.6,444.7z M532.6,411.5c0,0.6-0.5,1-1,1H494
		c-0.6,0-1-0.5-1-1v-12.9c0-0.6,0.5-1,1-1h37.7c0.6,0,1,0.5,1,1L532.6,411.5z M532.6,378.2c0,0.6-0.5,1-1,1c0,0,0,0,0,0H494
		c-0.6,0-1-0.5-1-1v-12.9c0-0.6,0.5-1,1-1h37.7c0.6,0,1,0.4,1,1c0,0,0,0,0,0L532.6,378.2z M532.6,345c0,0.6-0.5,1-1,1H494
		c-0.6,0-1-0.5-1-1v-12.9c0-0.6,0.5-1,1-1h37.7c0.6,0,1,0.4,1,1l0,0L532.6,345z M532.6,311.8c0,0.6-0.5,1-1,1l0,0H494
		c-0.6,0-1-0.4-1-1v-12.9c0-0.6,0.5-1,1-1h37.7c0.6,0,1,0.5,1,1L532.6,311.8z M532.6,278.5c0,0.6-0.4,1-1,1c0,0,0,0,0,0H494
		c-0.6,0-1-0.5-1-1v-12.9c0-0.6,0.5-1,1-1h37.7c0.6,0,1,0.4,1,1c0,0,0,0,0,0L532.6,278.5z M621.9,477.9c0,0.6-0.5,1-1,1h-37.7
		c-0.6,0-1-0.4-1-1v0V465c0-0.6,0.5-1,1-1h37.7c0.6,0,1,0.4,1,1c0,0,0,0,0,0V477.9z M621.9,444.7c0,0.6-0.5,1-1,1h-37.7
		c-0.6,0-1-0.4-1-1c0,0,0,0,0,0v-12.9c0-0.6,0.4-1,1-1c0,0,0,0,0,0h37.7c0.6,0,1,0.5,1,1L621.9,444.7z M621.9,411.4c0,0.6-0.5,1-1,1
		h-37.7c-0.6,0-1-0.5-1-1v-12.9c0-0.6,0.5-1,1-1h37.7c0.6,0,1,0.4,1,1c0,0,0,0,0,0V411.4z M621.9,378.2c0,0.6-0.5,1-1,1c0,0,0,0,0,0
		h-37.7c-0.6,0-1-0.4-1-1c0,0,0,0,0,0v-12.9c0-0.6,0.5-1,1-1c0,0,0,0,0,0h37.7c0.6,0,1,0.4,1,1c0,0,0,0,0,0L621.9,378.2z M621.9,345
		c0,0.6-0.5,1-1,1h-37.7c-0.6,0-1-0.5-1-1v-12.9c0-0.6,0.5-1,1-1l0,0h37.7c0.6,0,1,0.4,1,1L621.9,345z M621.9,311.7c0,0.6-0.5,1-1,1
		h-37.7c-0.6,0-1-0.4-1-1l0,0v-12.9c0-0.6,0.5-1,1-1h37.7c0.6,0,1,0.4,1,1c0,0,0,0,0,0V311.7z M621.9,278.5c0,0.6-0.5,1-1,1h-37.7
		c-0.6,0-1-0.4-1-1c0,0,0,0,0,0v-12.9c0-0.6,0.4-1,1-1c0,0,0,0,0,0h37.7c0.6,0,1,0.5,1,1L621.9,278.5z"/>
	<path class="st41" d="M497.6,138l-7.7,4.9l4.7-8.5c-1.3-1.1-3-1.7-4.7-1.7h-0.1c-0.5,0-1.1,0-1.6-0.1l-2.6,1.7l1.1-2
		c-1.9-0.6-3.5-1.9-4.6-3.5l-4.7,3l3-5.4c-2.7-3.3-6.4-5.3-10.5-5.3c-4.9,0-9.2,2.9-12,7.4c-1.7,2.8-4.7,4.4-8,4.3h-0.3
		c-5.4,0-9.8,6.1-9.8,13.6s4.4,13.6,9.8,13.6c1.2,0,2.3-0.3,3.4-0.9c3.5-1.8,8.1-1.9,11.8-0.2c3.2,1.4,6.8,1.4,10,0
		c3.6-1.6,8.2-1.6,11.7,0.2c1,0.5,2.2,0.8,3.4,0.8c5.4,0,9.8-6.1,9.8-13.6C499.7,143.4,499,140.6,497.6,138z"/>
	<path class="st42" d="M424.3,146.4c-3.6-0.7-7.3-0.3-10.7,1.2c-4.1,1.8-8.8,1.8-12.9,0c-4.7-2.1-10.6-2-15.1,0.3
		c-1.3,0.7-2.8,1.1-4.4,1.1c-6.1,0-11.2-6.2-12.3-14.3c1.2-0.9,2.3-2,3.1-3.3c3.6-5.8,9.2-9.5,15.4-9.5c6.3,0,11.8,3.6,15.3,9.4
		c2.2,3.5,6,5.6,10.2,5.6h0.2C418.1,136.8,422.3,140.7,424.3,146.4z"/>
	<path class="st41" d="M783.4,164l-7,4.4l4.2-7.7c-1.2-1-2.7-1.5-4.2-1.5h-0.1c-0.5,0-1,0-1.5-0.1l-2.4,1.5l1-1.8
		c-1.7-0.6-3.1-1.7-4.1-3.1l-4.2,2.7l2.7-4.9c-2.5-3-5.8-4.8-9.5-4.8c-4.4,0-8.3,2.6-10.9,6.7c-1.5,2.5-4.3,4-7.2,3.9H740
		c-4.9,0-8.8,5.5-8.8,12.3c0,6.8,3.9,12.3,8.8,12.3c1.1,0,2.1-0.3,3.1-0.8c3.4-1.6,7.2-1.7,10.7-0.2c2.9,1.3,6.2,1.3,9.1,0
		c3.4-1.5,7.2-1.4,10.6,0.2c0.9,0.5,2,0.7,3,0.8c4.9,0,8.8-5.5,8.8-12.3C785.2,169,784.6,166.4,783.4,164z"/>
	<path class="st42" d="M770.2,182.1c-2.5-0.5-5.1-0.2-7.5,0.8c-2.9,1.3-6.2,1.3-9.1,0c-3.4-1.5-7.3-1.4-10.7,0.2
		c-0.9,0.5-2,0.8-3.1,0.8c-4.3,0-7.9-4.4-8.7-10.1c0.9-0.6,1.6-1.4,2.2-2.3c2.5-4.1,6.5-6.7,10.9-6.7c4.4,0,8.3,2.6,10.8,6.6
		c1.5,2.5,4.3,4,7.2,3.9h0.1C765.8,175.3,768.7,178,770.2,182.1z"/>
	<path class="st41" d="M696,122.5l-4.9,3.1l3-5.4c-0.8-0.7-1.9-1-3-1.1H691c-0.3,0-0.7,0-1-0.1l-1.7,1.1l0.7-1.3
		c-1.2-0.4-2.2-1.2-2.9-2.2l-3,1.9l1.9-3.4c-1.6-2.1-4-3.3-6.6-3.4c-3.1,0-5.8,1.8-7.6,4.7c-1.1,1.7-3,2.8-5,2.7h-0.2
		c-3.4,0-6.2,3.9-6.2,8.6s2.8,8.6,6.2,8.6c0.7,0,1.5-0.2,2.1-0.5c2.3-1.1,5.1-1.2,7.5-0.1c1,0.4,2.1,0.7,3.2,0.7
		c1.1,0,2.2-0.2,3.2-0.7c2.4-1,5.1-1,7.4,0.1c0.7,0.3,1.4,0.5,2.1,0.5c3.4,0,6.2-3.9,6.2-8.6C697.3,125.9,696.8,124.1,696,122.5z"/>
	<path class="st42" d="M686.8,135.1c-1.8-0.3-3.6-0.1-5.3,0.6c-2,0.9-4.3,0.9-6.4,0c-2.4-1-5.1-1-7.5,0.1c-0.7,0.4-1.4,0.5-2.1,0.5
		c-3,0-5.5-3-6.1-7.1c0.6-0.4,1.1-1,1.5-1.6c1.8-2.9,4.5-4.7,7.6-4.7c3.1,0,5.8,1.8,7.6,4.6c1.1,1.7,3,2.8,5,2.8h0.1
		C683.7,130.4,685.7,132.3,686.8,135.1z"/>
</g>
<g id="Layer_6">
	<circle class="st43" cx="223.4" cy="171.2" r="51.1"/>
	<g class="st29">
		<circle cx="226.9" cy="172.9" r="51.1"/>
	</g>
	<g>
		<g>
			<g>
				
					<rect x="207.4" y="151.5" transform="matrix(0.7121 -0.7021 0.7021 0.7121 -48.0564 191.6737)" class="st34" width="4.5" height="5.8"/>
			</g>
			<g>
				
					<rect x="224.1" y="168.9" transform="matrix(0.7121 -0.7021 0.7021 0.7121 -55.1262 208.2458)" class="st34" width="4.5" height="4.9"/>
			</g>
			<g>
				
					<rect x="213.1" y="159.4" transform="matrix(0.7121 -0.7021 0.7021 0.7121 -50.4367 197.2565)" class="st34" width="4.5" height="1.5"/>
			</g>
			<g>
				
					<rect x="211" y="155.9" transform="matrix(0.712 -0.7021 0.7021 0.712 -49.5674 195.2254)" class="st34" width="4.5" height="4.4"/>
			</g>
			<g>
				
					<rect x="218" y="158.8" transform="matrix(0.7121 -0.7021 0.7021 0.7121 -52.5282 202.1561)" class="st34" width="4.5" height="12.6"/>
			</g>
		</g>
		<g>
			<path class="st34" d="M226.6,171.8l-2.3,2.3c0,0,8.2,9.8,11.2,13.4c3,3.5,12.7,14.9,14.2,16.8c1.6,1.8,4.2-0.4,6.3-2.5
				L226.6,171.8z"/>
		</g>
		<g>
			<path class="st34" d="M226.5,171.8l2.3-2.3c0,0,9.7,8.3,13.2,11.4c3.5,3.1,14.7,12.9,16.6,14.5c1.8,1.6-0.5,4.2-2.6,6.3
				L226.5,171.8z"/>
		</g>
		<g>
			<g>
				<path class="st34" d="M206.7,141.1c-1.8,1.1-3.6,0.7-4.5,1.4c-1.5,1.1-4.8,4.4-4.8,8.6c0,3.3,0.4,11.7,1.5,13.8
					c1.1,2.1,1.8,0.7,2-1.7c0.1-2.4-0.9-8.1,0.8-9.6c1.1-1,4.1,1.4,5.7,1.6l3.2-3.1c-0.1-1.8-2.6-5-0.9-6.8c2.1-2.1,3.4-1.8,3.8-1.7
					l-4-6.1C209.4,137.5,208.7,139.8,206.7,141.1z"/>
			</g>
		</g>
		<g>
			
				<rect x="211" y="135.6" transform="matrix(0.8352 -0.5499 0.5499 0.8352 -41.3778 140.3044)" class="st34" width="4.8" height="7.3"/>
		</g>
		<g>
			<path class="st34" d="M207.1,154.2c0,0-7.1-3-8.2-5.3c-0.8-1.7,2.7-5.5,4.1-5.9c1.7-0.5,3.5,1.8,4.4,3.6c1.4,2.8,2.3,5,2.3,5
				L207.1,154.2z"/>
		</g>
	</g>
	<g>
		<g>
			<path class="st34" d="M221.5,166.4c-0.6,0.6-1.5,0.7-2.1,0.2c-0.5-0.5-0.4-1.4,0.2-2.1l26.2-25.9l1.9,1.9L221.5,166.4z"/>
		</g>
		<g>
			<path class="st34" d="M250.8,135.6c0.5,0.5,0.4,1.4-0.2,2.1l-2.9,2.8l-1.9-1.9l2.9-2.8C249.4,135.2,250.3,135.1,250.8,135.6z"/>
		</g>
		<g>
			<g>
				<path class="st34" d="M208.2,169.7c2.1-0.7,4.9-1.5,7.8-4.1c0.8-0.7,1.5-1.3,2.1-2.1c0.5-0.7,0.4-1.2,0.9-1.6
					c0.8-0.8,3.1-3,3.1-3c0.6-0.6,1.5-0.6,2,0l1.5,1.6L188,197.6c0,0,0,0,0,0c-3.5-3.5,0.1-12.1,7.6-19.5
					C199.9,173.8,203.4,171.4,208.2,169.7z"/>
			</g>
			<g>
				<path class="st34" d="M216.1,177.7c0.8-2.1,1.5-4.9,4.3-7.8c0.7-0.8,1.3-1.5,2.1-2.1c0.7-0.5,1.2-0.4,1.6-0.9
					c0.8-0.8,3.1-3,3.1-3c0.6-0.6,0.6-1.5,0-2l-1.5-1.6L188,197.5c0,0,0,0,0,0c3.5,3.5,12.1,0,19.6-7.4
					C211.9,186,214.4,182.5,216.1,177.7z"/>
			</g>
		</g>
		<g>
			<g>
				<path class="st34" d="M213,174.5c0.9,0.9,0.9,2.4,0,3.3l-17.6,17.4c-0.9,0.9-2.4,0.9-3.3,0l-0.9-0.9l20.9-20.6L213,174.5z"/>
			</g>
			<g>
				<path class="st34" d="M190.5,190.2l17.6-17.4c0.9-0.9,2.4-0.9,3.3,0l0.8,0.8l-20.9,20.6l-0.8-0.8
					C189.6,192.5,189.6,191.1,190.5,190.2z"/>
			</g>
		</g>
	</g>
	<g>
		<g>
			<path class="st34" d="M408.9,91.8c0,0.7-0.5,1.3-1.1,1.3c-0.6,0-1.1-0.6-1.1-1.3l0.2-29.5l2.1,0L408.9,91.8z"/>
		</g>
		<g>
			<path class="st34" d="M408,57.7c0.6,0,1.1,0.6,1.1,1.3l0,3.2l-2.1,0l0-3.2C407,58.3,407.5,57.7,408,57.7z"/>
		</g>
		<g>
			<g>
				<path class="st34" d="M403.2,101.2c0.8-1.6,2-3.6,2.1-6.8c0-0.8,0.1-1.6,0-2.4c-0.1-0.6-0.4-0.9-0.4-1.4c0-0.9,0-3.5,0-3.5
					c0-0.6,0.5-1.1,1.2-1.1l1.8,0l-0.3,42.4c0,0,0,0,0,0c-4,0-6.8-6.9-6.7-15.4C400.8,108.2,401.5,104.9,403.2,101.2z"/>
			</g>
			<g>
				<path class="st34" d="M412.3,101.3c-0.7-1.6-1.9-3.6-2-6.8c0-0.8-0.1-1.6,0-2.4c0.1-0.6,0.4-0.9,0.4-1.4c0-0.9,0-3.5,0-3.5
					c0-0.6-0.5-1.2-1.1-1.2l-1.8,0l-0.3,42.4c0,0,0,0,0,0c4,0,6.9-6.8,6.9-15.3C414.6,108.3,414,105,412.3,101.3z"/>
			</g>
		</g>
		<g>
			<g>
				<path class="st34" d="M408.7,101.2c1,0,1.8,0.8,1.8,1.9l-0.1,19.8c0,1-0.8,1.8-1.9,1.8l-1,0l0.2-23.5L408.7,101.2z"/>
			</g>
			<g>
				<path class="st34" d="M404.8,122.9l0.1-19.8c0-1,0.8-1.8,1.9-1.8l0.9,0l-0.2,23.5l-0.9,0C405.6,124.7,404.8,123.9,404.8,122.9z"
					/>
			</g>
		</g>
	</g>
	<g>
		<path class="st44" d="M97.2,419.5c0.6,0.6,0.6,1.7,0,2.3c-0.6,0.6-1.7,0.6-2.3,0c0,0,0,0,0,0L97.2,419.5
			C97.2,419.5,97.2,419.5,97.2,419.5z"/>
		<path class="st45" d="M94.8,419.5c0.6-0.6,1.7-0.6,2.3,0l-2.3,2.3C94.2,421.2,94.2,420.1,94.8,419.5z"/>
	</g>
</g>
</svg>
