<?xml version="1.0" encoding="utf-8"?>
<!-- Generator: Adobe Illustrator 21.0.2, SVG Export Plug-In . SVG Version: 6.00 Build 0)  -->
<svg version="1.1" xmlns="http://www.w3.org/2000/svg" xmlns:xlink="http://www.w3.org/1999/xlink" x="0px" y="0px"
	 viewBox="0 0 1060 664" style="enable-background:new 0 0 1060 664;" xml:space="preserve">
<style type="text/css">
	.st0{opacity:0.2;fill:#6C63FF;enable-background:new    ;}
	.st1{opacity:0.5;fill:#C4C4C4;}
	.st2{fill:#6B3D8E;}
	.st3{fill:#F2F2F2;}
	.st4{fill:#2F2E41;}
	.st5{fill:#3F3D56;}
	.st6{fill:#EDDE72;}
	.st7{fill:#89C9B5;}
	.st8{fill:#805A40;}
	.st9{fill:#C4C4C4;}
	.st10{opacity:0.55;fill:#D4D4D4;}
	.st11{fill:#856961;}
	.st12{fill:#6E7070;}
	.st13{fill:#B2B2B2;}
	.st14{fill:#FBFFF9;}
	.st15{opacity:0.35;fill:#D4D4D4;}
	.st16{fill:#586066;}
	.st17{fill:#60C1D1;}
	.st18{fill:#FFFFFF;}
	.st19{fill:#8A8A8A;}
	.st20{fill:#CCC6AC;}
	.st21{fill:#83B069;}
	.st22{fill:none;stroke:#FFFFFF;stroke-width:2;stroke-miterlimit:10;}
	.st23{opacity:0.6;fill:#89C9B5;}
</style>
<g id="Layer_4">
	<path class="st0" d="M333,159c-64.3,21.5-92,33.3-120,58c-13.5,11.9-38.9,35.8-52,76c-3.6,11.2-18.6,57,0,98
		c19.3,42.5,66.1,60.9,112.7,73.9c138.7,38.6,189.5-2.1,380.3,15.1c63.3,5.7,229.2,23.7,285-39c7.8-8.7,49.7-55.9,46-122
		c-4.7-83-120.3-148.9-148-164c-150.3-81.8-311-49.8-360-40C446.3,121.1,408.6,133.7,333,159z"/>
</g>
<g id="Layer_3">
	<path class="st1" d="M515,551c59.1,2.3,70.1,2.4,95,5c72,7.6,118.5,21.4,118,25c-0.4,3-32.7-4.1-40,9c-7.2,13,17.3,32.5,12,41
		c-8.6,13.9-76.1-33.1-171-37c-19.3-0.8-52.1-2.2-93,8c-51.3,12.7-87.3,36.6-95,27c-7.1-8.9,20-33.6,12-46c-11.3-17.5-79.7,10-82,4
		c-1.1-3,14.4-14,39-24C357.6,543.7,394.9,546.4,515,551z"/>
</g>
<g id="Layer_1">
	<g>
		<path class="st2" d="M452.3,263H348.8c-3.2,0-5.8-2.6-5.8-5.8v-71.6c0-3.2,2.6-5.8,5.8-5.8h103.5c3.2,0,5.8,2.6,5.8,5.8v71.6
			C458,260.4,455.4,263,452.3,263z"/>
		<path class="st3" d="M451.2,260.5H349.8c-2.3,0-4.3-1.9-4.3-4.3v-69.6c0-2.3,1.9-4.3,4.3-4.3h101.5c2.3,0,4.3,1.9,4.3,4.3v69.6
			C455.5,258.6,453.6,260.5,451.2,260.5z"/>
		<path class="st4" d="M416.9,243.7c0,5.8-1.3,11.6-3.9,16.8h-65.4c-1.3,0-2.3-1-2.3-2.3v-32.7c10-18.5,33.2-25.3,51.7-15.3
			C409.2,216.9,416.9,229.7,416.9,243.7L416.9,243.7z"/>
		<path class="st5" d="M455.9,237.6v19.6c0,1.8-1.5,3.3-3.3,3.3l0,0H347.5c-1.3,0-2.3-1-2.3-2.3v0c0-16.3,50.8-30.3,65.3-35.7
			C427.3,216.2,446.2,222.5,455.9,237.6L455.9,237.6z"/>
		<circle class="st6" cx="438.5" cy="201" r="9.5"/>
		<path class="st7" d="M384.5,213c0,12.9-7.7,17.4-17.2,17.4c-9.5,0-17.2-4.5-17.2-17.4s17.2-29.4,17.2-29.4S384.5,200.1,384.5,213z
			"/>
		<polygon class="st5" points="366.7,228.5 366.8,217.6 374.2,204.3 366.9,215.9 366.9,211.1 372,201.4 367,209.8 367,209.8 
			367.1,201 372.5,193.3 367.1,199.7 367.2,183.6 366.7,204.9 366.7,204 361.2,195.6 366.6,205.7 366.1,215.4 366.1,215.2 
			359.8,206.3 366.1,216.1 366,217.3 366,217.3 366,217.4 364.7,242.2 366.4,242.2 366.7,229.4 372.9,219.7 		"/>
		<path class="st7" d="M417.2,205.3c0,10.1-6.2,13.6-13.9,13.6s-13.9-3.5-13.9-13.6s13.9-22.8,13.9-22.8S417.2,195.2,417.2,205.3z"
			/>
		<polygon class="st5" points="402.9,217.2 403,208.5 408.9,197.7 403,207.1 403.1,203.2 407.2,195.4 403.1,202.1 403.1,202.1 
			403.2,195.1 407.6,188.9 403.3,194 403.3,181 402.9,198.2 402.9,197.5 398.5,190.7 402.8,198.8 402.4,206.7 402.4,206.5 
			397.3,199.4 402.4,207.2 402.4,208.2 402.3,208.2 402.3,208.3 401.3,228.3 402.7,228.3 402.9,218 407.9,210.1 		"/>
		<path class="st7" d="M455.2,220.5c0,6-3.6,8.1-8,8.1c-4.4,0-8-2.1-8-8.1s8-13.6,8-13.6S455.2,214.5,455.2,220.5z"/>
		<polygon class="st5" points="446.9,227.7 447,222.7 450.4,216.5 447,221.9 447.1,219.6 449.4,215.2 447.1,219 447.1,219 
			447.1,215 449.6,211.4 447.1,214.4 447.2,206.9 446.9,216.8 446.9,216.4 444.4,212.5 446.9,217.1 446.7,221.7 446.7,221.5 
			443.7,217.4 446.7,222 446.6,222.5 446.6,222.5 446.6,222.6 446,234.1 446.8,234.1 446.9,228.1 449.8,223.6 		"/>
		<path class="st7" d="M371.7,234.2c-0.6,0.9-1.4,0.9-2,0.5c-0.7-0.4-1-1.1-0.5-2.1s2.6-1.4,2.6-1.4S372.3,233.2,371.7,234.2z"/>
		<path class="st7" d="M353.3,236.7c-0.6,0.9-1.4,0.9-2,0.5c-0.7-0.4-1-1.1-0.5-2.1c0.6-0.9,2.6-1.4,2.6-1.4
			S353.9,235.8,353.3,236.7z"/>
		<path class="st7" d="M418.4,232.2c0.1,1.1-0.5,1.6-1.3,1.6c-0.8,0.1-1.5-0.2-1.6-1.3c-0.1-1.1,1.2-2.7,1.2-2.7
			S418.2,231.1,418.4,232.2z"/>
		<path class="st7" d="M397.2,218.5c-0.6,0.9-1.4,0.9-2,0.5c-0.7-0.4-1-1.1-0.5-2.1c0.6-0.9,2.6-1.4,2.6-1.4
			S397.8,217.6,397.2,218.5z"/>
		<path class="st7" d="M445.9,233c-0.6,0.9-1.4,0.9-2,0.5c-0.7-0.4-1-1.1-0.5-2.1c0.6-0.9,2.6-1.4,2.6-1.4S446.5,232.1,445.9,233z"
			/>
	</g>
	<polygon class="st8" points="385.9,507.2 384.3,528.7 389.6,528.7 398.1,507.2 	"/>
	<polygon class="st8" points="633.2,507.2 634.7,528.7 629.4,528.7 620.9,507.2 	"/>
	<path class="st9" d="M381.7,458.4l5.3-45c1.5-10.4,11.7-18.3,23.8-18.3h196.5c11.7,0,21.6,7.3,23.6,17.3l7.7,46H381.7z"/>
	<path class="st10" d="M637.4,433.2c0,0-19.8,5.3-27.6,16.4H410.3c0,0-5.3-15.5-23.8-15.3v27.1h253L637.4,433.2z"/>
	<rect x="380" y="498.4" class="st11" width="259.5" height="11.2"/>
	<path class="st9" d="M656.7,429.3h-5.7c-10.1,0-19.8,4.8-25.7,13c-4.3,5.9-6.4,13.5-6.4,13.5l-108.8,1.7l-108.8-1.7
		c0,0-2.1-7.6-6.4-13.5c-6-8.2-15.6-13-25.7-13h-5.7c-10.8,0-15.7,10-13.4,20.5c2.8,12.9,6.4,29.7,16.2,43.6
		c4.7,6.6,12.4,10.4,20.5,10.4h103.4H530h103.4c8.1,0,15.8-3.8,20.5-10.4c9.8-13.9,13.3-30.7,16.2-43.6
		C672.4,439.2,667.5,429.3,656.7,429.3z"/>
	<path class="st12" d="M627.2,480.8H393.1c-3.3,0-5.9-2.7-5.9-5.9l0,0c0-10.4,8.4-18.7,18.7-18.7h210.4c9.3,0,16.8,7.5,16.8,16.8
		v1.9C633.2,478.2,630.5,480.8,627.2,480.8z"/>
	<path class="st13" d="M504,477.4H392.4c-2.9,0-5.2-2.3-5.2-5.2l0,0c0-9.1,7.4-16.5,16.5-16.5H504c2.9,0,5.2,2.3,5.2,5.2v11.4
		C509.2,475.1,506.8,477.4,504,477.4z"/>
	<path class="st13" d="M628,477.4H516.4c-2.9,0-5.2-2.3-5.2-5.2v-11.4c0-2.9,2.3-5.2,5.2-5.2h100.3c9.1,0,16.5,7.4,16.5,16.5l0,0
		C633.2,475.1,630.8,477.4,628,477.4z"/>
	<path class="st14" d="M431,455.9l-25.9,2c-2.9,0.2-5.4-1.9-5.6-4.8l-1.6-20.3c-0.2-2.9,1.9-5.4,4.8-5.6l25.9-2
		c2.9-0.2,5.4,1.9,5.6,4.8l1.6,20.3C436,453.2,433.9,455.7,431,455.9z"/>
	<path class="st2" d="M462.8,464.1h-26c-2.9,0-5.3-2.4-5.3-5.3v-20.3c0-2.9,2.4-5.3,5.3-5.3h26c2.9,0,5.3,2.4,5.3,5.3v20.3
		C468.1,461.7,465.8,464.1,462.8,464.1z"/>
	<path class="st2" d="M598,461.5h-26c-2.9,0-5.3-2.4-5.3-5.3v-20.3c0-2.9,2.4-5.3,5.3-5.3h26c2.9,0,5.3,2.4,5.3,5.3v20.3
		C603.3,459.1,600.9,461.5,598,461.5z"/>
	<path class="st15" d="M941,571c-0.5,4.6-59.3,2.7-106.2-1.5c-65.5-5.9-137.4-19.2-136.8-24.5c0.6-5.2,73.5-2.7,137,5
		C882.5,555.7,941.5,566.4,941,571z"/>
	<path class="st15" d="M630.7,533.2c0,4.6-58.8,8.4-105.8,8.7c-65.7,0.4-138.6-5.9-138.5-11.2c0.1-5.3,72.9-9.7,136.8-8.2
		C571,523.7,630.7,528.6,630.7,533.2z"/>
	<g>
		<path class="st16" d="M869.2,273.5l-40.6-62.7c-6.3-9.8-17.5-13.8-28-10.1l-104,37l1,2.6l104-37c9.1-3.3,19,0.4,24.6,9l40.6,62.7
			c6.5,10.1,10,21.9,10,34.3v209.3h2.8V309.2C879.6,296.4,876,284,869.2,273.5z"/>
		<g>
			<path class="st17" d="M700.3,248.7h-2.1c-1.3,0-2.4-1.1-2.4-2.4v-13.4c0-1.3,1.1-2.4,2.4-2.4h2.1c1.3,0,2.4,1.1,2.4,2.4v13.4
				C702.6,247.6,701.6,248.7,700.3,248.7z"/>
			<g>
				<path class="st18" d="M698.8,241.9c-16.8,0-31.3,9.7-37.7,23.7h75.3C730,251.6,715.6,241.9,698.8,241.9z"/>
			</g>
		</g>
		<rect x="859.7" y="514.4" class="st12" width="37.7" height="4.3"/>
	</g>
	<g>
		<g>
			<g>
				<path class="st19" d="M810.1,334.9c0-6.4-5.4-10.5-12.1-10.5s-12.1,4.1-12.1,10.5c0,4.2,2.3,7.9,5.8,9.9h12.6
					C807.8,342.8,810.1,339.1,810.1,334.9z"/>
			</g>
			<g>
				<rect x="709.9" y="344.8" class="st18" width="121.2" height="6.2"/>
			</g>
			<path class="st20" d="M728.1,344.6h-5.5c-0.7,0-1.2-0.5-1.2-1.2v-37.1c0-0.7,0.5-1.2,1.2-1.2h5.5c0.7,0,1.2,0.5,1.2,1.2v37.1
				C729.3,344,728.8,344.6,728.1,344.6z"/>
			<path class="st20" d="M737.3,344.6h-5.5c-0.7,0-1.2-0.5-1.2-1.2v-37.1c0-0.7,0.5-1.2,1.2-1.2h5.5c0.7,0,1.2,0.5,1.2,1.2v37.1
				C738.5,344,737.9,344.6,737.3,344.6z"/>
			<path class="st16" d="M746.3,344.6h-5.5c-0.7,0-1.2-0.5-1.2-1.2v-37.1c0-0.7,0.5-1.2,1.2-1.2h5.5c0.7,0,1.2,0.5,1.2,1.2v37.1
				C747.4,344,746.9,344.6,746.3,344.6z"/>
			<path class="st20" d="M772.2,340.4l-4.9,3c-0.5,0.3-1.2,0.1-1.5-0.4l-17.2-32.1c-0.3-0.6-0.1-1.3,0.4-1.6l4.9-3
				c0.5-0.3,1.2-0.1,1.5,0.4l17.2,32.1C772.9,339.4,772.7,340.1,772.2,340.4z"/>
			<path class="st20" d="M783,340.4l-4.9,3c-0.5,0.3-1.2,0.1-1.5-0.4l-17.2-32.1c-0.3-0.6-0.1-1.3,0.4-1.6l4.9-3
				c0.5-0.3,1.2-0.1,1.5,0.4l17.2,32.1C783.7,339.4,783.6,340.1,783,340.4z"/>
		</g>
		<rect x="722.7" y="310.1" class="st18" width="5.2" height="5.6"/>
		<rect x="731.9" y="340" class="st18" width="5.2" height="1.4"/>
		<rect x="731.9" y="335.5" class="st18" width="5.2" height="1.4"/>
	</g>
	<g>
		<rect x="234.9" y="341.8" class="st18" width="121.2" height="6.2"/>
	</g>
	<path class="st20" d="M253.1,341.6h-5.5c-0.7,0-1.2-0.5-1.2-1.2v-37.1c0-0.7,0.5-1.2,1.2-1.2h5.5c0.7,0,1.2,0.5,1.2,1.2v37.1
		C254.3,341,253.8,341.6,253.1,341.6z"/>
	<path class="st20" d="M262.3,341.6h-5.5c-0.7,0-1.2-0.5-1.2-1.2v-37.1c0-0.7,0.5-1.2,1.2-1.2h5.5c0.7,0,1.2,0.5,1.2,1.2v37.1
		C263.5,341,262.9,341.6,262.3,341.6z"/>
	<path class="st16" d="M271.3,341.6h-5.5c-0.7,0-1.2-0.5-1.2-1.2v-37.1c0-0.7,0.5-1.2,1.2-1.2h5.5c0.7,0,1.2,0.5,1.2,1.2v37.1
		C272.4,341,271.9,341.6,271.3,341.6z"/>
	<rect x="247.7" y="307.1" class="st18" width="5.2" height="5.6"/>
	<path class="st20" d="M287.1,341.6h-5.5c-0.7,0-1.2-0.5-1.2-1.2v-37.1c0-0.7,0.5-1.2,1.2-1.2h5.5c0.7,0,1.2,0.5,1.2,1.2v37.1
		C288.3,341,287.8,341.6,287.1,341.6z"/>
	<path class="st20" d="M296.3,341.6h-5.5c-0.7,0-1.2-0.5-1.2-1.2v-37.1c0-0.7,0.5-1.2,1.2-1.2h5.5c0.7,0,1.2,0.5,1.2,1.2v37.1
		C297.5,341,296.9,341.6,296.3,341.6z"/>
	<path class="st16" d="M305.3,341.6h-5.5c-0.7,0-1.2-0.5-1.2-1.2v-37.1c0-0.7,0.5-1.2,1.2-1.2h5.5c0.7,0,1.2,0.5,1.2,1.2v37.1
		C306.4,341,305.9,341.6,305.3,341.6z"/>
	<rect x="281.7" y="307.1" class="st18" width="5.2" height="5.6"/>
	<rect x="256.9" y="337" class="st18" width="5.2" height="1.4"/>
	<rect x="256.9" y="332.5" class="st18" width="5.2" height="1.4"/>
	<g>
		<path class="st21" d="M266.4,447.3c-0.1-0.2-1.6-6.1-2.2-13.8c-0.5-7.1-0.2-17.3,4.3-24.9c3.1-5.4,7.9-8.9,14.1-10.5l0.5,1.9
			c-5.7,1.4-10.1,4.7-12.9,9.6c-8.1,13.9-2,37-2,37.2L266.4,447.3z"/>
		<path class="st21" d="M265.7,428.4c0,0-3-12.8-12.2-8.5C253.5,419.9,255.8,432.4,265.7,428.4z"/>
		<path class="st21" d="M279.9,420.1c0,0-11.6-3.1-15.1,6.4C264.9,426.6,275.8,429.9,279.9,420.1z"/>
		<path class="st21" d="M266.4,415.3c0,0,4.7-11.4-4.1-16.4C262.3,399,257.4,409.7,266.4,415.3z"/>
		<path class="st21" d="M267.6,412.2c0,0,9.8,6.1,15.5-2.2C283.1,410,274.1,403.8,267.6,412.2z"/>
		<path class="st21" d="M276.1,401.8c0,0,9.8,6.1,15.5-2.2C291.6,399.6,282.6,393.4,276.1,401.8z"/>
	</g>
	<g>
		<path class="st19" d="M279.9,440.1l-5.9-7.7h-8.2h-0.2h-8.2l-5.9,7.7c-1.2,1.5-1.3,3.6-0.3,5.2l4.1,7.1h10.1h0.5h10.1l4.1-7.1
			C281.1,443.7,281,441.7,279.9,440.1z"/>
	</g>
	<path class="st9" d="M236.8,452.8v62.1h57.1v-62.1H236.8z M240.7,481.9v-25.2H290v25.2H240.7z M240.7,511v-25.2H290V511H240.7z"/>
	<g>
		<path class="st16" d="M249.7,481.8h-3.4c-0.4,0-0.7-0.3-0.7-0.7v-20c0-0.4,0.3-0.7,0.7-0.7h3.4c0.4,0,0.7,0.3,0.7,0.7v20
			C250.4,481.5,250.1,481.8,249.7,481.8z"/>
		<path class="st20" d="M255.2,481.8h-3.4c-0.4,0-0.7-0.3-0.7-0.7v-20c0-0.4,0.3-0.7,0.7-0.7h3.4c0.4,0,0.7,0.3,0.7,0.7v20
			C255.9,481.5,255.6,481.8,255.2,481.8z"/>
		<path class="st19" d="M260.6,481.8h-3.4c-0.4,0-0.7-0.3-0.7-0.7v-20c0-0.4,0.3-0.7,0.7-0.7h3.4c0.4,0,0.7,0.3,0.7,0.7v20
			C261.3,481.5,261,481.8,260.6,481.8z"/>
		<path class="st20" d="M276.1,479.6l-2.9,1.6c-0.3,0.2-0.7,0.1-0.9-0.2L262,463.6c-0.2-0.3-0.1-0.7,0.2-0.9l2.9-1.6
			c0.3-0.2,0.7-0.1,0.9,0.2l10.3,17.4C276.5,479,276.4,479.4,276.1,479.6z"/>
		<path class="st20" d="M282.6,479.6l-2.9,1.6c-0.3,0.2-0.7,0.1-0.9-0.2l-10.3-17.4c-0.2-0.3-0.1-0.7,0.2-0.9l2.9-1.6
			c0.3-0.2,0.7-0.1,0.9,0.2l10.3,17.4C283.1,479,283,479.4,282.6,479.6z"/>
	</g>
	<g>
		<path class="st17" d="M548.3,307.7h-2.1c-1.3,0-2.4-1.1-2.4-2.4v-13.8c0-1.3,1.1-2.4,2.4-2.4h2.1c1.3,0,2.4,1.1,2.4,2.4v13.8
			C550.6,306.7,549.6,307.7,548.3,307.7z"/>
		<g>
			<path class="st18" d="M546.8,300.8c-16.8,0-31.3,10-37.7,24.2h75.3C578,310.7,563.6,300.8,546.8,300.8z"/>
		</g>
	</g>
	<line class="st22" x1="547" y1="112" x2="547" y2="290.7"/>
	<path class="st9" d="M742.8,480.9l4.5-44.9c1.2-10.4,8.1-18.1,16-17.9l129.3,2.8c7.7,0.2,14.1,7.6,15.1,17.6l4.1,46.1L742.8,480.9z
		"/>
	<path class="st10" d="M908.9,464.5c0,0-12.9,4.2-18.8,14.8l-125.7-10.9c0,0-2-15.8-13.7-16.6l-2.3,27l159.4,13.9L908.9,464.5z"/>
	<g>
		<polygon class="st8" points="754.9,527.1 752.8,548.5 758.2,548.6 767.1,527.4 		"/>
		<polygon class="st8" points="897.3,543.9 895.8,565.3 890.3,564.5 884.9,542.1 		"/>
		
			<rect x="752.1" y="527.8" transform="matrix(0.9956 9.369002e-02 -9.369002e-02 0.9956 53.6088 -75.0962)" class="st11" width="149" height="11.2"/>
	</g>
	<path class="st9" d="M926.8,462.8l-3.7-0.3c-6.6-0.6-13.4,3.5-18.1,11.3c-3.3,5.6-5.4,13-5.4,13l-71.5-5l-71.1-8.4
		c0,0-0.7-7.7-2.9-13.8c-3.1-8.5-9-13.9-15.6-14.5l-3.7-0.3c-7.1-0.7-11.2,9-10.7,19.6c0.7,13,1.4,29.9,6.5,44.4
		c2.4,6.9,7.1,11.2,12.5,11.6l67.8,6.4l26,2.4l67.8,6.4c5.3,0.5,10.7-2.8,14.4-9.1c7.7-13.3,11.6-29.7,14.7-42.4
		C936.1,473.7,933.8,463.5,926.8,462.8z"/>
	<path class="st12" d="M893.2,510.4l-134.6-10.5c-1.9-0.1-3.2-2.9-2.9-6.2l0,0c0.8-10.3,6.3-18.3,12.2-17.9l120.9,9.4
		c5.3,0.4,9.1,8.3,8.4,17.5l-0.1,1.9C896.8,508,895.1,510.6,893.2,510.4z"/>
	<path class="st13" d="M891.7,506.9l-133.2-10.4c-0.6-1.1-6.7-12.1-1.6-20.6c0.7-1.2,1.7-2.5,3.3-3.8c44.5,3.5,88.9,6.9,133.4,10.4
		c3.4,0.3,6,3.1,5.7,6.3l-1,12.7C898,504.7,895.1,507.1,891.7,506.9z"/>
	<path class="st14" d="M803.1,479.8l-25.9,1.4c-2.9,0.2-5.4-2.1-5.5-5l-1.1-20.3c-0.2-2.9,2.1-5.4,5-5.5l25.9-1.4
		c2.9-0.2,5.4,2.1,5.5,5l1.1,20.3C808.2,477.1,806,479.6,803.1,479.8z"/>
	<path class="st13" d="M790.6,550.6"/>
	<path class="st23" d="M206,388.6c0,58.3-19.9,78.6-44.4,78.6s-44.4-20.4-44.4-78.6s44.4-132.4,44.4-132.4S206,330.3,206,388.6z"/>
	<polygon class="st5" points="158.8,458.3 159.6,409.6 192.6,349.2 159.7,401.9 160.1,380 182.8,336.3 160.2,374.2 160.2,374.2 
		160.8,334.7 185.1,300 160.9,328.5 161.3,256.2 158.8,352 159,348 134.2,310.1 158.6,355.6 156.3,399.6 156.2,398.5 127.7,358.6 
		156.1,402.6 155.8,408.1 155.8,408.2 155.8,408.6 150,520.4 157.8,520.4 158.7,462.7 187.1,418.8 	"/>
	<polygon class="st11" points="178,542 140,542 120,493 194,493 	"/>
</g>
<g id="Layer_5">
</g>
<g id="Layer_6">
</g>
</svg>
